<svg width="222" height="304" viewBox="0 0 222 304" fill="none" xmlns="http://www.w3.org/2000/svg">
<line x1="2.87868" y1="214.879" x2="215.011" y2="2.74665" stroke="white" stroke-width="6"/>
<line x1="7.12132" y1="2.87868" x2="219.253" y2="215.011" stroke="white" stroke-width="6"/>
<path d="M72.9785 278.426V286.31C71.625 284.657 70.4121 283.523 69.3398 282.908C68.2852 282.275 67.0459 281.959 65.6221 281.959C63.3896 281.959 61.5352 282.741 60.0586 284.306C58.582 285.87 57.8438 287.83 57.8438 290.186C57.8438 292.594 58.5557 294.571 59.9795 296.118C61.4209 297.665 63.2578 298.438 65.4902 298.438C66.9141 298.438 68.1709 298.131 69.2607 297.516C70.3154 296.918 71.5547 295.758 72.9785 294.035V301.866C70.5703 303.114 68.1621 303.738 65.7539 303.738C61.7812 303.738 58.459 302.455 55.7871 299.889C53.1152 297.305 51.7793 294.097 51.7793 290.265C51.7793 286.433 53.1328 283.198 55.8398 280.562C58.5469 277.925 61.8691 276.606 65.8066 276.606C68.3379 276.606 70.7285 277.213 72.9785 278.426ZM84.6592 258.466V303H78.7266V258.466H84.6592ZM90.9609 289.975C90.9609 286.266 92.2881 283.11 94.9424 280.509C97.5967 277.907 100.831 276.606 104.646 276.606C108.478 276.606 111.729 277.916 114.401 280.535C117.038 283.154 118.356 286.371 118.356 290.186C118.356 294.035 117.029 297.261 114.375 299.862C111.703 302.446 108.425 303.738 104.54 303.738C100.69 303.738 97.4648 302.42 94.8633 299.783C92.2617 297.182 90.9609 293.912 90.9609 289.975ZM97.0254 290.08C97.0254 292.646 97.7109 294.677 99.082 296.171C100.488 297.683 102.343 298.438 104.646 298.438C106.966 298.438 108.82 297.691 110.209 296.197C111.598 294.703 112.292 292.708 112.292 290.212C112.292 287.716 111.598 285.721 110.209 284.227C108.803 282.715 106.948 281.959 104.646 281.959C102.378 281.959 100.541 282.715 99.1348 284.227C97.7285 285.738 97.0254 287.689 97.0254 290.08ZM139.582 281.695L134.678 284.306C133.904 282.724 132.946 281.933 131.804 281.933C131.259 281.933 130.793 282.117 130.406 282.486C130.02 282.838 129.826 283.295 129.826 283.857C129.826 284.842 130.969 285.817 133.254 286.784C136.4 288.138 138.519 289.386 139.608 290.528C140.698 291.671 141.243 293.209 141.243 295.143C141.243 297.621 140.329 299.695 138.501 301.365C136.726 302.947 134.581 303.738 132.067 303.738C127.761 303.738 124.711 301.638 122.918 297.437L127.98 295.09C128.684 296.32 129.22 297.103 129.589 297.437C130.31 298.104 131.171 298.438 132.173 298.438C134.177 298.438 135.179 297.524 135.179 295.696C135.179 294.642 134.405 293.657 132.858 292.743C132.261 292.444 131.663 292.154 131.065 291.873C130.468 291.592 129.861 291.302 129.246 291.003C127.523 290.159 126.311 289.315 125.607 288.472C124.711 287.399 124.263 286.02 124.263 284.332C124.263 282.1 125.027 280.254 126.557 278.795C128.121 277.336 130.02 276.606 132.252 276.606C135.539 276.606 137.982 278.303 139.582 281.695ZM169.983 291.557H151.579C151.737 293.666 152.423 295.345 153.636 296.593C154.849 297.823 156.404 298.438 158.303 298.438C159.779 298.438 161.001 298.087 161.968 297.384C162.917 296.681 163.998 295.38 165.211 293.481L170.221 296.276C169.447 297.595 168.63 298.729 167.769 299.678C166.907 300.609 165.984 301.383 165 301.998C164.016 302.596 162.952 303.035 161.81 303.316C160.667 303.598 159.428 303.738 158.092 303.738C154.26 303.738 151.184 302.508 148.863 300.047C146.543 297.568 145.383 294.281 145.383 290.186C145.383 286.125 146.508 282.838 148.758 280.324C151.025 277.846 154.031 276.606 157.775 276.606C161.555 276.606 164.543 277.811 166.74 280.219C168.92 282.609 170.01 285.923 170.01 290.159L169.983 291.557ZM163.893 286.705C163.066 283.541 161.071 281.959 157.907 281.959C157.187 281.959 156.51 282.073 155.877 282.302C155.244 282.513 154.664 282.829 154.137 283.251C153.627 283.655 153.188 284.147 152.818 284.728C152.449 285.308 152.168 285.967 151.975 286.705H163.893Z" fill="white"/>
</svg>
