<svg width="222" height="304" viewBox="0 0 222 304" fill="none" xmlns="http://www.w3.org/2000/svg">
<line x1="2.87868" y1="215.011" x2="215.011" y2="2.87867" stroke="black" stroke-width="6"/>
<line x1="7.12132" y1="3.0107" x2="219.253" y2="215.143" stroke="black" stroke-width="6"/>
<path d="M72.9785 278.558V286.442C71.625 284.789 70.4121 283.656 69.3398 283.04C68.2852 282.407 67.0459 282.091 65.6221 282.091C63.3896 282.091 61.5352 282.873 60.0586 284.438C58.582 286.002 57.8438 287.962 57.8438 290.318C57.8438 292.726 58.5557 294.703 59.9795 296.25C61.4209 297.797 63.2578 298.571 65.4902 298.571C66.9141 298.571 68.1709 298.263 69.2607 297.648C70.3154 297.05 71.5547 295.89 72.9785 294.167V301.998C70.5703 303.246 68.1621 303.87 65.7539 303.87C61.7812 303.87 58.459 302.587 55.7871 300.021C53.1152 297.437 51.7793 294.229 51.7793 290.397C51.7793 286.565 53.1328 283.33 55.8398 280.694C58.5469 278.057 61.8691 276.739 65.8066 276.739C68.3379 276.739 70.7285 277.345 72.9785 278.558ZM84.6592 258.598V303.132H78.7266V258.598H84.6592ZM90.9609 290.107C90.9609 286.398 92.2881 283.242 94.9424 280.641C97.5967 278.039 100.831 276.739 104.646 276.739C108.478 276.739 111.729 278.048 114.401 280.667C117.038 283.286 118.356 286.503 118.356 290.318C118.356 294.167 117.029 297.393 114.375 299.994C111.703 302.578 108.425 303.87 104.54 303.87C100.69 303.87 97.4648 302.552 94.8633 299.915C92.2617 297.314 90.9609 294.044 90.9609 290.107ZM97.0254 290.212C97.0254 292.779 97.7109 294.809 99.082 296.303C100.488 297.815 102.343 298.571 104.646 298.571C106.966 298.571 108.82 297.823 110.209 296.329C111.598 294.835 112.292 292.84 112.292 290.344C112.292 287.848 111.598 285.853 110.209 284.359C108.803 282.847 106.948 282.091 104.646 282.091C102.378 282.091 100.541 282.847 99.1348 284.359C97.7285 285.87 97.0254 287.822 97.0254 290.212ZM139.582 281.827L134.678 284.438C133.904 282.856 132.946 282.065 131.804 282.065C131.259 282.065 130.793 282.249 130.406 282.618C130.02 282.97 129.826 283.427 129.826 283.99C129.826 284.974 130.969 285.949 133.254 286.916C136.4 288.27 138.519 289.518 139.608 290.66C140.698 291.803 141.243 293.341 141.243 295.275C141.243 297.753 140.329 299.827 138.501 301.497C136.726 303.079 134.581 303.87 132.067 303.87C127.761 303.87 124.711 301.77 122.918 297.569L127.98 295.222C128.684 296.452 129.22 297.235 129.589 297.569C130.31 298.237 131.171 298.571 132.173 298.571C134.177 298.571 135.179 297.656 135.179 295.828C135.179 294.774 134.405 293.789 132.858 292.875C132.261 292.576 131.663 292.286 131.065 292.005C130.468 291.724 129.861 291.434 129.246 291.135C127.523 290.291 126.311 289.448 125.607 288.604C124.711 287.531 124.263 286.152 124.263 284.464C124.263 282.232 125.027 280.386 126.557 278.927C128.121 277.468 130.02 276.739 132.252 276.739C135.539 276.739 137.982 278.435 139.582 281.827ZM169.983 291.689H151.579C151.737 293.798 152.423 295.477 153.636 296.725C154.849 297.955 156.404 298.571 158.303 298.571C159.779 298.571 161.001 298.219 161.968 297.516C162.917 296.813 163.998 295.512 165.211 293.614L170.221 296.408C169.447 297.727 168.63 298.861 167.769 299.81C166.907 300.741 165.984 301.515 165 302.13C164.016 302.728 162.952 303.167 161.81 303.448C160.667 303.73 159.428 303.87 158.092 303.87C154.26 303.87 151.184 302.64 148.863 300.179C146.543 297.7 145.383 294.413 145.383 290.318C145.383 286.257 146.508 282.97 148.758 280.456C151.025 277.978 154.031 276.739 157.775 276.739C161.555 276.739 164.543 277.943 166.74 280.351C168.92 282.741 170.01 286.055 170.01 290.291L169.983 291.689ZM163.893 286.837C163.066 283.673 161.071 282.091 157.907 282.091C157.187 282.091 156.51 282.205 155.877 282.434C155.244 282.645 154.664 282.961 154.137 283.383C153.627 283.787 153.188 284.28 152.818 284.86C152.449 285.44 152.168 286.099 151.975 286.837H163.893Z" fill="black"/>
</svg>
