<svg xmlns="http://www.w3.org/2000/svg" xmlns:xlink="http://www.w3.org/1999/xlink" viewBox="0 0 779.5 248.4"><defs><style>.cls-1{fill:none;}.cls-2,.cls-6{fill:#fff;}.cls-3{fill:#3e3a39;}.cls-4{clip-path:url(#clip-path);}.cls-5{fill:url(#名称未設定グラデーション_62);}.cls-6{opacity:0.3;}</style><clipPath id="clip-path" transform="translate(0 23.76)"><path class="cls-1" d="M119.75,84.27l-7.35,65.27L86,159.92,93.4,94.65ZM623.44,116c4.2-24.31,16.43-39.25,39-39.25,22.22,0,31.41,14.6,29.85,39.13l23.89-9.41C715.72,79.93,704.4,63,682,57.54L609.82,86c-5.36,9.68-8.86,21.51-10.41,35.29l-2.18,19.33a96.22,96.22,0,0,0-.59,12.94l23.73-9.34c.08-1.19.16-2.38.29-3.6l.47-4.1h18.79L692,116ZM489.09,21.71l-17.76,7h17ZM460.1,58l-5.86,52.11,24.51-9.66L483.54,58Zm-186-2.63c1.32-11.68-.5-21.78-4.71-30l-24.2,9.54c3.18,4.95,4.75,11.39,3.85,19.34-1.71,15.22-12.34,29-27.92,45.1L209.73,111.2l46.59-18.35C265.13,81.83,272.56,69.4,274.14,55.36Zm119.28,4L303.36,94.86,294.56,173l27.88-11a64.07,64.07,0,0,1-.8-21.42l2.41-21.38c3-26.36,18.84-42.47,42.28-42.47,24,0,35.61,16.69,32.47,44.52l-1.26,11.17,24.52-9.66.17-1.51C425.86,89,415.1,67.59,393.42,59.39Zm154.51,51L523.41,120,519,159.33c-1.1,9.78-1,17.92.81,24.48l24-9.45c-2-4.65-1.76-11.49-.7-20.88Z"/></clipPath><linearGradient id="名称未設定グラデーション_62" x1="58.81" y1="100.44" x2="760.79" y2="100.44" gradientTransform="matrix(1, 0, -0.11, 1, 2.66, 23.76)" gradientUnits="userSpaceOnUse"><stop offset="0" stop-color="#e4007f"/><stop offset="0.23" stop-color="#ea5514"/><stop offset="0.43" stop-color="#faee00"/><stop offset="0.65" stop-color="#8fc31f"/><stop offset="0.82" stop-color="#71c7d5"/><stop offset="1" stop-color="#ab539b"/></linearGradient></defs><title>12bite</title><g id="レイヤー_2" data-name="レイヤー 2"><g id="_12bite" data-name="12bite"><rect class="cls-2" x="5.86" y="42.28" width="767.79" height="185.86"/><path class="cls-3" d="M779.5,210.3H0V12.59H779.5ZM8.78,201.45H770.72v-180H8.78Z" transform="translate(0 23.76)"/><g class="cls-4"><polygon class="cls-5" points="738.15 248.4 36.16 248.4 64.15 0 766.13 0 738.15 248.4"/></g><path class="cls-2" d="M111.15,63.16c.4-.18-.26-.32.25-.22C111.36,63.12,111.3,63.26,111.15,63.16Z" transform="translate(0 23.76)"/><path class="cls-2" d="M95.52,171.62c-1-1.31.34-3.07-.25-4.5,0-.17.61,0,.5-.35-.73-1.39,0-3.6.79-5.33l.17.09c.15-.33-.39-.71-.29-1.05.12,0,.16.1.32,0-.34-.08-.11-.62-.35-.76.14-.14.42-.14.58-.32l-.38-.18c-.89-.52.18-1.34-.25-2.07.09,0,.16.1.25,0-.48-1.18-.26-2.69-.36-4a.72.72,0,0,0,.54,0c-.41-.05-.48-.46-.54-.82.44-.18-.34-.6-.07-1l.09,0c-.42-.29.29-.47-.23-.7l.36-.22c-.6-.11.34-.46,0-.71l-.12,0c-.13-.24.18-.38.1-.6l.07,0c-.12-.53.24-.85-.23-.81.39-.2.13.5.7.19a19.37,19.37,0,0,1,0-5.27c.2-.2.27-.33.45-.38-.08-.17,0-.66-.26-.81,0,.06.25-.12.28-.21.2-.33-.5-.33-.26-.69a.39.39,0,0,0,.44.13c-.34-.29-.25-.69-.35-1,.08.05.12.14.27.12-.39-.37.14-.71-.1-1l.26.12c.37-.56-.55-.14-.32-.62.07.11.18.07.29.09-.46-.42-.24-1.14-.37-1.57a.23.23,0,0,0,.11,0,5.32,5.32,0,0,0,0-1.49c.13-.2.66,0,.59-.46-.54,0-.15-.85-.79-.53.12-.44.37-1.13.21-1.41.2.19.69-.23.7.13l.36-.29c.22,0-.1.28.19.19,0-.18-.19-.7-.08-.86-.31-.32-.91-.61-.94-1.14.19.24.61-.17.69,0l-1-.71c0-.18.43-.06.31-.31-.14,0-.22-.09-.33-.17.06-.07-.08-.74.46-.84.22-.08.09.29.3.09,0-.33-.16-.34-.14-.67H98c.1-.22-.18-.64-.49-.39,0,.15.32-.07.15.16-.3-.14-.35-.53-.33-.86.08.11.22.1.37.14a3.14,3.14,0,0,1-.62-1.4c-.25,0,.45.18.31.25.41-.64-.39-1.3.17-1.84,0,.08-.36,0-.29,0,.06-.3.43-.3.3-.5.22,0,0-.25-.09-.45s.11-.06.12.12a2.73,2.73,0,0,1,0-2.09c-.14,0-.49-.4-.46-.55l.33,0c.21-.14,0-.51.31-.54-.38-.32.23,1.25,0,.81.29-.12-.48-.6,0-.51,0-.31-.34-.6,0-.9-.06.09.44.24.44,0,0-.43-.15-.12-.23-.47l-.12-.22c-.32,0,.08-.39-.3-.22.28-.06-.11-.63.43-.59l.42,0c0-.19-.42-.3-.59-.45a.39.39,0,0,1,.2-.06c-.65,0,.09-.46-.39-.67.26-.4.12-1,.54-1.2-.17-.3-.38-.57-.2-.92,0,.07.06.16.2.18.21-.22.05-.27,0-.47.09,0,.42-.44.68-.69-.17-.29-.53-.19-.74-.21.67-.29-.33-.85.28-1.2.08.1.28.43.46.18.67-.28-.42-.55-.06-1l-.55.12c.35-.2-.24-.65.3-.62-.18-.14.23-.52-.3-.47.52-.73-.08-1.77.9-2.23-.07-.1,0-.37-.23-.31s.18.24,0,.31c0-.1-.15-.12-.22-.13.14-.22.2-.4.61-.19.37-.51-.83-.52-.56-1.16.21,0,.29,0,.28-.21l-.33-.36c.13-.41.52-.24.89-.25,0-.22,0-.49-.26-.59l.49-.27c-.35.19-.2-.18-.27-.29l.07.11c.16,0,.1-.3.06-.43-.22,0-.35.29-.43.43-.14-.11-.09-.29-.26-.44.35,0,.3-.36.35-.54s-.29-.22-.27-.28c.18,0,.06-.34.31-.18.05.07-.2.16,0,.28.15-.14.47-.12.27-.4s-.71.05-.44-.34c.07.1.22.12.33.2l.23-.37-.32,0c.09,0,.11,0,.16,0-.33-.12,0-.57-.42-.66,0-.18.27-.39.33-.57l0,0a.47.47,0,0,0-.08-.7h.07a.56.56,0,0,0-.15-.55c.29-.3,1.25-.1.88-.43,0-.31-.54-.48-.76-.36.28-.55-.17-1.18.39-1.69-.12-.08-.21,0-.26-.19.22-.81-.19-1.71.54-2.35.1.24.32,0,.51,0-.27-.2.33-.23-.16-.31-.3,0-.44,0-.59.22a1.83,1.83,0,0,1,.33-1.5c-.16.13-.23,0-.31-.09.47,0,.58-.31.46-.58l-.28,0,.32-.17c-.07-.11-.58-.14-.26-.4a1.07,1.07,0,0,0,.32-.06c-.19-.3-.52-.71-.23-1l.45-.23c0-.13-.23-.36-.4-.14.35-.51.44-.84.82-1a3.89,3.89,0,0,1-.23-3.3l.21,0c.25-.27-.34-.18-.15-.37.18.11.48-.17.68.08.31-.38-.26-.55-.3-.82-.27-.07.14.22-.21.14-.09-.06.34-.53-.07-.64a.94.94,0,0,1,.64.1l-.15-.27c.55-.24.73.77,1.4.52l0-.23c.48-.16.37.64.64.1-.16-.26-.72-.54-1-.34,0-.52-1-.34-.79-.89.28-.12,0,.45.32.38.4-.22-.07-.54.1-.75-.21.23-.58,0-.62-.2.26-.26.35.22.48-.16-.22-.1-.32-.48-.56-.19-.51-.21.25-.39-.13-.66.42-.08.8.52,1.09.11-.39,0-.38-.6-1-.44a.5.5,0,0,1,.64,0c.28-.21-.53-.67.22-.66l-.36-.13c.15-.06.26-.15.5-.25.06-.21-.34-.76.22-.66,0-.08.1-.56-.34-.43s.21.39-.37.49c.49-.16,0-.45-.05-.65h.23c-.06-.12,0-.35-.17-.45a.25.25,0,0,0,.34,0l-.3-.16c-.06-.45.61,0,.62-.44l.18.35c0-.07.31-.17.26-.38-.29-.12-.62-.32-.84-.42-.07-.25.37,0,.12-.33l.29.36c.09.06.55-.13.63-.44s-.41-.59-.66-.3c0-.16.28-.35.47-.19,0-.36-.34,0-.45-.34.24-.09.63-.43,1-.61l.42.4.06-.21c.34.34.35-.08.74.14.11-.13,0-.33-.07-.49-.8.31-.81-.62-1.47-.61,0-.6,1.63-.09.82-.86-.19.07-.59-.3-.51.1.17-.35-.56-.36-.18-.73.17.36.73-.22,1,.29-.19-.06-.22.23-.19.31.29-.11.62.14.73-.23s.08-.53-.26-.55-.06.35-.38.14c0-.47.57-.44,0-.74,0,.29-.42.29-.67.24l0-.35.22.11c.32-.49-.39-.24-.17-.73l.54-.15c.36.19-.4.7.28.73.13-.32-.17-.49.09-.77a2.44,2.44,0,0,0,.06.26c.06-.12,1-.07.59-.63-.13-.28-.21-.11-.46-.16.08-.54-.12-.75,0-1.1.46.17.23-.58.6-.11a.73.73,0,0,0-.13,1.15c.62-.08-.2.4.34.62.13-.42.69-.29,1.07-.28.06-.12-.06-.26-.09-.34-.33-.11-.37,0-.73,0a1.18,1.18,0,0,0-.07-1.26c.21-.13.54,0,.52.18a4.68,4.68,0,0,1,.57-1.66c-.67.22,0-.62-.49-.48-.21.25-.69.41-.89.21.09-.17.24.05.39,0-.24-.29.6-.24.19-.57,0,.55.65.25,1.06.43-.13-.42.3.08.42-.28a3.52,3.52,0,0,1-.14-1.33c.58-.41.42-1.28.55-1.74.3-.18.74.09.91-.15s-.6.1-.23-.29l.09.06c-.07-.16.6-.73-.06-1l.49.26c.07-.07,0-.18-.06-.26.18,0,.37,0,.44.14.46-.19.13-.59.22-.89l-.38.12c-.08-.57.35-.84.41-1.36l.3.09-.08-.34c.27.14.56-.08.36-.29l.5.94c-.26.17-.3-.32-.65-.26a.37.37,0,0,0-.1.67c.09-.17,0-.19,0-.35.45,0,.34.3.59.5,0-.1.18-.2.06-.25a.76.76,0,0,1,0,.72c-.09-.24-.3,0-.4-.06.37.11.39.43.17.77-.53.17,0,.76-.22,1.16a1.69,1.69,0,0,1-.63-.85c-.28.23-.09.3-.37.53.24.19.65.39.71.78l-.29,0c0,.35.46.45.25.83a13.79,13.79,0,0,0-.8,1.9l-.29,0c.51.42-.09,1,0,1.48-.48.62-.18,1.52-.78,1.77a13.72,13.72,0,0,1-.7,3.54l-.35-.28c.24.27-.28.1-.29.33.41-.19.35.38.56.57a1.82,1.82,0,0,0-.16,1.8l-.29,0c.4.58-.23,1.09-.48,1.69-.14.06-.44.13-.45.32.38.4.3.57.47,1.1a3.89,3.89,0,0,1-.62,1.26c.33,1.43-.41,2.76-.3,4.2l-.36.07c.44,1.42-.54,3-.36,4.22l-.57-.15a.48.48,0,0,0,.44.77c-.24.35.15.92-.38,1.13-.16.37.21.46.24.78a3,3,0,0,0-.31,1.71l.07-.17c-.13-.08-.38-.09-.44.08.13.27-.29,1,.46.71-.51.76.11,1.78-.53,2.52.2-.06.22.13.34.21-.08.66-.56,1.36-.29,1.9-.11.11-.31-.17-.36.1s.25,0,.33.2c.23,1.09-.62,2.2-.64,3.18a31.57,31.57,0,0,1-.32,5.26l-.14,0c.49.56-.7,1.32.08,1.76-.15.14-.12.51-.38.42.34.44-.5,1.25-.06,1.9,0-.06,0-.1-.07-.17-.37.66,0,1.23-.35,1.93,0-.07-.09-.2-.23-.22-.3.27.55.62-.16.78,0,.16.34.11.33,0a16.72,16.72,0,0,0-.11,4.69c-.51,1.14-1.17.1-.73,1-.14.07.26,0,.11.06.17.34-.82.55-.48.78.44-.11.23.16.48.16-.33.69-.73.84-.45,1.38l-.22,0c.58.62.18,1.37.86,1.89-.17,3.51,0,6.87-.2,10.29-.41,3.4-.32,6.71-1,10.17-.65.83-.64.89-.46,1.77-.1,0-.11-.09-.21,0,.48,0,0,.63.46.69-.19,1.28-.15,2.45-.24,3.77,0-.21-.42-.3-.41-.05l.29.24-.14.05c.06.17.28.34.45.16.17,3.29-1,6.57-1.21,9.81a8.39,8.39,0,0,0-.16,2.7c-.87,2.5-1.61,4.74-1.43,7.27C96.91,173,95.7,172.66,95.52,171.62Z" transform="translate(0 23.76)"/><path class="cls-2" d="M110.66,63.31a3.2,3.2,0,0,0-.22-.27l.44-.39a.28.28,0,0,1-.28-.07l-.19.17s0,0,0-.09C110.49,62.88,110.67,63.09,110.66,63.31Z" transform="translate(0 23.76)"/><path class="cls-2" d="M106.4,69.51c.07,0-.12.08-.17.1s-.15-.23,0-.27C106.21,69.43,106.32,69.44,106.4,69.51Z" transform="translate(0 23.76)"/><path class="cls-2" d="M105.66,71.41c-.2-.07-.23-.52-.18-.77Z" transform="translate(0 23.76)"/><path class="cls-2" d="M104.26,73.06c-.22.12-.3.06-.24-.15C104.14,72.92,104.17,73,104.26,73.06Z" transform="translate(0 23.76)"/><path class="cls-2" d="M104.69,73.28c0,.15-.19.2-.33.25C104.54,73.56,104.36,73.16,104.69,73.28Z" transform="translate(0 23.76)"/><path class="cls-2" d="M102.94,77.13c0,.09.11.33-.15.38C103,77.44,102.66,77,102.94,77.13Z" transform="translate(0 23.76)"/><path class="cls-2" d="M102.75,79s-.08.07,0,.15c-.13.1-.25,0-.25-.14Z" transform="translate(0 23.76)"/><polygon class="cls-2" points="98.25 136.66 98.17 136.46 98.38 136.48 98.25 136.66"/><path class="cls-2" d="M96.93,127.62c.12.19-.21.14-.25.18C96.68,127.62,96.94,127.85,96.93,127.62Z" transform="translate(0 23.76)"/><polygon class="cls-2" points="97.37 159.28 97.37 159.22 97.8 159.22 97.37 159.28"/><path class="cls-2" d="M155.79,187.55a2,2,0,0,0-.76-.16,5.41,5.41,0,0,0,.27,1.07A1.82,1.82,0,0,1,155.79,187.55Z" transform="translate(0 23.76)"/><path class="cls-2" d="M157.29,189.32c.15-.39.29-.8.48-1.2-2.82-1.49-1.38-1.78-4.59-1.42a8.48,8.48,0,0,0-.12,1.16l1.45.94a4.9,4.9,0,0,1-.12-1.26,1.71,1.71,0,0,0-.29-1.22,3,3,0,0,0-.68,1.81l.7.45a.92.92,0,0,1,.47-.72,2.13,2.13,0,0,1,.23,1.2l-2.13-1.38a6.25,6.25,0,0,0,.07-1.61,2.19,2.19,0,0,0-1.18.94l4.3,2.79c.14-.36-.49-.87.37-1.42Z" transform="translate(0 23.76)"/><path class="cls-2" d="M156,186.16a5.33,5.33,0,0,0,.92,1.19C156.64,186.9,156.64,186,156,186.16Z" transform="translate(0 23.76)"/><path class="cls-2" d="M156.41,185.33c.72-.54.77.82,1,.87-.22-.69-.44-1.41-.63-2.13Z" transform="translate(0 23.76)"/><path class="cls-2" d="M159.28,183a3.17,3.17,0,0,0,.21-.41C159.18,182.38,159.25,182.67,159.28,183Z" transform="translate(0 23.76)"/><path class="cls-2" d="M160.57,181.62c-.7-.32-.83.29-1.08.92l.12.07c.75.13,1.24,1.55.39,1.76-.42.78-1.28-.34-1.22.84l1.47.23C161.11,184.5,160.48,182.4,160.57,181.62Z" transform="translate(0 23.76)"/><path class="cls-2" d="M159.28,183a1.66,1.66,0,0,1-.32.38C159.27,183.37,159.3,183.18,159.28,183Z" transform="translate(0 23.76)"/><polygon class="cls-2" points="157.75 207.8 157.59 208.33 158.07 208.7 157.75 207.8"/><path class="cls-2" d="M162.93,179.67c.95,1.69-1.86,1.15-1.16,2.51a2,2,0,0,1,2.89.8l.72-1.29C165.31,180.83,164,180,162.93,179.67Z" transform="translate(0 23.76)"/><path class="cls-2" d="M167.89,182a.75.75,0,0,1,.05-.46A.54.54,0,0,0,167.89,182Z" transform="translate(0 23.76)"/><path class="cls-2" d="M171.19,174.93c-.35,1.18-.64,2.32-1.12,3.59-.16-.68-.64-1.07-.22-1.73-1.25.76-.63,1.83-1.68,2.43-1.37-1.19,1.54-1.43,0-2.25a2.88,2.88,0,0,0-1.12,3l-1.75-.2,1.51,1.33c.76.13-.07-1.9,1-1,.64.57.3,1,.12,1.43.43-.83,2.81-.23,4.13-1.73S170.91,176.45,171.19,174.93Z" transform="translate(0 23.76)"/><polygon class="cls-2" points="172.7 200.25 173.36 200.69 172.57 200 172.7 200.25"/><path class="cls-2" d="M173.57,172.31l-.42,2a2.68,2.68,0,0,1-.9-.45c.34.3.52,1.17.81,1.41,1.72.85,1.12-1.74,1.57-2.55,2.26-.91.54.79,2.31,1.48-.51.39-.81.09-1.56.58,2.36.6,2.52-2,2.88-3-.32,0-.73-.33-1,.13l.33-1.07C175.92,170.45,175.05,170.71,173.57,172.31Z" transform="translate(0 23.76)"/><path class="cls-2" d="M171.4,174.23c.37-.49.62-.54.82-.39C171.79,173.58,171.41,173.46,171.4,174.23Z" transform="translate(0 23.76)"/><path class="cls-2" d="M178.6,171.44c-.15,0-.25.13-.34.37C178.39,171.79,178.51,171.71,178.6,171.44Z" transform="translate(0 23.76)"/><path class="cls-2" d="M176.51,170.47l1-.62-.9-.33C176.55,169.7,176.21,170.17,176.51,170.47Z" transform="translate(0 23.76)"/><path class="cls-2" d="M208.31,140.21a1.05,1.05,0,0,0-1.64.43c-.66-.71.24-1.43.18-2.19-1.25.46-.85-.75-1.76-1.14-.93.9-.36,2.15-1.48,3a1.72,1.72,0,0,0-.88-.57c-.65,1.64-1.86,4.33-3.56,5-1.32.94-1.74,2.11-2.54,3.68-4.1,3.94-7.2,9.1-12.07,13l.79,1.9c-.9-.42-1,1.07-1.79.11.41-.08.48-.45.75-.76-2.1-.17-2.34,2.62-3.92,3.29.36.12,1.68,1.12,1.53,1.66-1.34-1.6-1.37,1.34-3.33-.13-1.57.62,1.18,1.41-.27,2.27.68,1,1.58-.63,2.43-.15.27,1.1-1.41.71-.5,1.63,2.45-1.32,4.44-6.83,6.53-10.22l.58,1.08c.8-2.08,3-4.58,5.52-4.61-1.1-.41,2.46-1.9.33-3.28.78,0,.82-.2,1.47-.62l-.48-.65c.7-.79,1.53.12,2.26-.84-1.34-.09-1-.95-1.48-1.78,1.83-.28,3.7-.81,5.25-1.09a2.55,2.55,0,0,0-1.33-.31c.83-.38-.05-.93-.19-1.34.49-.63,1.5.33,2,.81,1.29-.82-.3-3,1.1-3.26l-1.09-.44c.79-1.3,2.58-1.46,3.41-2.95,1.69.39.07,1.88.11,2.82.46,0,1-.52,1.54-.37a31.08,31.08,0,0,1-.06-3.76C206.5,142.22,207.85,140.56,208.31,140.21Z" transform="translate(0 23.76)"/><path class="cls-2" d="M205.79,144.19a4.76,4.76,0,0,0,.14.76.6.6,0,0,1,.28-.5A.88.88,0,0,0,205.79,144.19Z" transform="translate(0 23.76)"/><path class="cls-2" d="M208.31,140.21l.16.09C208.51,140.11,208.44,140.12,208.31,140.21Z" transform="translate(0 23.76)"/><path class="cls-2" d="M199,144.86a2.14,2.14,0,0,0,.22-.1l.21-.18Z" transform="translate(0 23.76)"/><path class="cls-2" d="M202,149a8.31,8.31,0,0,0-1.75.2A1.5,1.5,0,0,0,202,149Z" transform="translate(0 23.76)"/><path class="cls-2" d="M194.31,155.93c-.06.36.31.44.45.84C195.22,156.3,195.09,155.9,194.31,155.93Z" transform="translate(0 23.76)"/><polygon class="cls-2" points="207.24 166.77 207.83 165.6 207.91 165.06 207.24 166.77"/><path class="cls-2" d="M219.94,119.91c-1.75,0-2.21,1.78-3.32,2.65-1.13,2.36,2,2.09.55,4l-1.81-2.06c-1.46,1.93-4.15,4.12-3.69,7.19-.37-.08-1,0-.85-.74-1,1.27,2.4,3.13.29,4.15,0-2.59-1.66-.55-2.58-2.06l.06-.35c-.77,1.13-1.29,3.05-2,3.65.5.48,1.84.59,1.1,1.55.43-.28.9.39,1.4.87.25-1.43,1.06-1.63.86-2.79,1.17.08-.08.54,1.07.61l0-1.3c.65-.41.19,1.16,1.09.43a1.86,1.86,0,0,1,.56-2.11l.06.4c.18-.75,1.17-1.19-.2-1.92l1.68.36-.88-.55c1.56-1.15,3.91-.1,4.54-2.76-.62.24-.69-.52-.63-.87-1.22.3-.24,1.43-.77,2.25-.88-.56-.75-2.58-2-2.1,1.79-.17,1.47-1.91,3.81-.68,1.14-1.06.56-2.3,2.05-3.11l.27.28c-1.13-1.3,1.43-.48.84-2.46l-.84.38c-.51-.47-.27-.79,0-1.29.17.22.17.22.54.29-.84-.91.15-2.37,0-2.77-.64.43-.44,1.76-.76,2.62C220.18,120.89,219.3,120.34,219.94,119.91Z" transform="translate(0 23.76)"/><path class="cls-2" d="M212.91,134.77l-.12-.76A1,1,0,0,0,212.91,134.77Z" transform="translate(0 23.76)"/><path class="cls-2" d="M226.14,115.93c.85-.58.65.86,1.68.49,0-1.3-2.12-.2-2.5-1.74,1,0,.58-1.55.82-1.88a4,4,0,0,0,2.13,1.67c-.12-.58,1.07-.74,1.51-1.22-1.82.62.37-1.41-1.43-1-.7-.68-.32-2.26.66-2.28.52.45.1.75-.13,1.08.85,1.06,1.2-.35,2.31.2-.5-2.3,2.6-6-.64-6.68-.77.07-.47.83-.72,1.34,1.46-.87,1.27.92,1.61,1.34-.8.24-.77,1.71-1.45.87l-.23-1.5a54.68,54.68,0,0,0-7.52,9.29l1.14-1.26c.5.65,0,1.3-.08,2l2.07.58c-.43.28-.51.82-1,.36.26,1,.82,1.08,1.58,1.22-.56,1.19-1.28.87-.93,2.42,2.63-.62.12-2.2,2.79-3.19Z" transform="translate(0 23.76)"/><polygon class="cls-2" points="223.98 143.91 223.54 142.9 223.42 143.8 223.98 143.91"/><path class="cls-2" d="M221.15,116.84c.35.25.3.61.65.85C222.66,117.13,222.12,116.84,221.15,116.84Z" transform="translate(0 23.76)"/><path class="cls-2" d="M232.08,110.31l.53-1.2-.83.42A.75.75,0,0,1,232.08,110.31Z" transform="translate(0 23.76)"/><path class="cls-2" d="M233.44,100.32c-.89,1.5-.61,2.63-2.63,3.6.44,1.51,2.22,1,2.9,2.06.84-.61-1-1.79-.7-2.83,1.13.34.71-1.32,1.51-2A1.9,1.9,0,0,1,233.44,100.32Z" transform="translate(0 23.76)"/><path class="cls-2" d="M240.55,97.87c.49-.64.26-1.77,1.07-2,.53.45.46,1,0,1.27,1.49.62.32-.85,1.71-1-.19,0-.6.08-.74-.31,1.59-1.56-.36-1.69,2-3.5-.13-.57.11-.9-.82-1.4,2-.61,1.57.06,3.66-.94a16,16,0,0,1-3.23-1.16c3.1-1.28,1.31-2.41,3.45-3.16,0,.19.13.56-.29.86,1.72.73.51-1.39,1.33-2l1.33.83c.27-.89.17-2.68,1.76-3.14l.57.58c.11-2.51,1.91-4.7,2.22-6.62l1.37-.53c.1-2.8-1.71,2.11-3-.53,2.82.89-.24-1.57,1.51-2.45,1.39-.18-.14,1.58,1.44,1.4-1.22-.88,0-.88-.06-1.76,1.22.7.94-1.42,2.18-.36l-1.14-3.52c.95-.1,1.18-.89,1.25-1.51-.68,1.36-1.77-1.13-3.12.15a20.91,20.91,0,0,1-4,8.76c1.62,1.06-.93,1.73.26,2.8-.59-.19-1.19-.21-1.78-.41-.58,1.89,1.19,0,1.59.76-.2.88-1.59,1-2.18.61-.79,1.17.4.37,1,1.46l-2.35-.16c-1.64,4-3.81,9.72-7.83,13.19l1.32.41c-2,1.47.13,4.77-3.44,4.85l.51,1.2c-.29-.67-1.86-.8-2.23-1.79,0,.76-.82,1-.88,1.76l1.21-.57c.43,1.29-.69,1.61-1.65,1.26,0,2.13,2.48.49,3.62.8-.52-3.33,3.46-.64,4-3.12C242.41,97.29,241.08,98.33,240.55,97.87Z" transform="translate(0 23.76)"/><path class="cls-2" d="M235.78,98.28a1.21,1.21,0,0,0,.08.48A1.5,1.5,0,0,0,235.78,98.28Z" transform="translate(0 23.76)"/><path class="cls-2" d="M258.17,66.93a2.61,2.61,0,0,0,.22-.64C258.18,66,258.24,66.38,258.17,66.93Z" transform="translate(0 23.76)"/><path class="cls-2" d="M234.52,101.2h0a0,0,0,0,1,0,0Z" transform="translate(0 23.76)"/><polygon class="cls-2" points="236.44 127.75 236.87 127.25 236.31 127 236.44 127.75"/><path class="cls-2" d="M262.57,61.18l-.68-.2A1.21,1.21,0,0,0,262.57,61.18Z" transform="translate(0 23.76)"/><path class="cls-2" d="M265.76,42.31l0,.41A.36.36,0,0,0,265.76,42.31Z" transform="translate(0 23.76)"/><path class="cls-2" d="M235.85,15.61a7,7,0,0,0-4,1.33l.28-.71c-.72.24-2.87,1.18-2,2.61l.44-.59c1.64-.86.68,1.33,1.55,2,1.29-.1,2.94-2.61,3.85-1.68.52.06.17.75-.17,1.24,1,.49,2.24-1.39,3.14-1.4-1,2.68,0,2.58,1.22,2.37s2.87-.58,2.87,1.37c1.23,0,2.31.95,4.08.52-1.34,1,1.1.65,0,1.94,1-1.38,1.7-.62,2.34.07s1.25,1.28,2.65-.32c.69,2,.32-.2,1.22,1.91-.33.34-.58.12-.74.1,0,1.12,2.19-.43,1.22,1.42.86,1.46,1-.56,2.59-.54.72,1.77,0,1.72-.86,3.56,1.7-1.08,1.53.34,2.84.5,0-.25-.38-1.5.7-1.27.84,2,2,.73,3.47,2.36-1.47,2-1-1.81-1.7.68-1.46-.63-1.87-1.49-3.56-1.14a14.55,14.55,0,0,0,3.45,4.27c.07,1.08-1.12,0-1,.79-.31,2,3,1.74,2.39,3.54l-1.13.06c1.63.41.35,3.18,1.21,4.67.53-.31.89-.54,1.28-.37-1.4.25-.94.75-.49,1.52s1.05,1.81,0,2.74a2.09,2.09,0,0,1,2,.82,3.55,3.55,0,0,1,.62,1.92,2.55,2.55,0,0,1-1.7.24c1.26-1.82-1.62-1.81-2.38-3.07.87,1.09-.3,2.9.73,4L261,52.53c-.49,1.46,2.78,1.7,1,3.19l-.92-.33c-.79,3.33-4,6.44-3.17,9.69.64.51,3-.15,3.62,0,.06-1.81-.89-3.15-1.08-4.53l1.45.45c-.87-.58-.94-2.18-2-1.61-.39-1.15,1.58-.37,1.13-1.71,1.53.46,1.45,1.19,2.73,1.54l-.4-1.21c.5.47.73-.51,1.24-.05a2,2,0,0,1,.26-2.48,2.78,2.78,0,0,0,.9-2.46l-.52,1.15c-.89-.11-.67-.76-.84-1.27,1.4-.47,1.28-.82,2-1.91-.58-1-2.21-1.41-2.13-2.59,1.77.14,1-2.09,2.43-2.53-1.7,0-.78-2.29-1.78-2.26a1,1,0,0,1,.55-1.69,2.72,2.72,0,0,1,.36.41l0-.66c.21,0,.35,0,.39,0-.05-.6-1.27-.25-.59-1.22.45-.13.55.26.77.55,0-1.69-3.12-1.79-2-3.54-.83.06-1.47-1.5-3.11-.37.47-.68,1.94-1.18,1.23-2.21-1.73.1,0-1.56-1.34-1.88,2.05.28.44-.26,2.33,0,.21-1.13-2.23-1.21-2.73-2.59.25-.34.66-.6.91-.95-.76-.18-2.19.08-1.39-1.15l-.91.74c-.05-1.2-1.18-2-.88-3.71-.84.16-1.66.34-2.48.53a1.88,1.88,0,0,0-1.47-2.49,5.85,5.85,0,0,0-3.51.58c-.41-.4-1-1.14-.7-1.56.21-.07.59-.24,1-.35-.7-.52-1.07-2.09-2.42-.73-1.08.1,0-1.37-.46-1.92-2.84,1.5-4.17-3.71-6.37-.39.68.27,1.65,1.46,3,1.83-.55.29-.63,1.08-1.14,1-1.36-.35-1.41-1.9-3-1.81l1.23-2.18c-.58-1.56-2.11-1.23-3.43-.89S236.22,17.5,235.85,15.61Z" transform="translate(0 23.76)"/><path class="cls-2" d="M252.79,22.58c0-.54-.1-1.07-.18-1.62l-.51,1C252.48,22,252.78,22.12,252.79,22.58Z" transform="translate(0 23.76)"/><path class="cls-2" d="M252.1,21.92a2.12,2.12,0,0,0-.81.1.79.79,0,0,0,.68.14Z" transform="translate(0 23.76)"/><path class="cls-2" d="M231.57,15.2a1.21,1.21,0,0,0-1.15-.16A.82.82,0,0,0,231.57,15.2Z" transform="translate(0 23.76)"/><polygon class="cls-2" points="230.18 39.52 230.62 39.96 230.76 39.69 230.18 39.52"/><path class="cls-2" d="M200.09,24l-1.19,2c-.5-.55-2.08,1-1.86-.37-.46,2-3,1.34-1.54,3.29a63.56,63.56,0,0,1,8.06-3.73,45.48,45.48,0,0,0,4.34-2.09,40.24,40.24,0,0,0,3.65-2.32c-.23.39-.45.79-.66,1.19a2.82,2.82,0,0,1,3.09-.9c.91.12,1.69,0,2.78-2.07l-.23,2c1.28.36,2.47-3.22,3.91-1.28l-.15-.79c.38,0,.53.3.91.27l-.15-.35a1.9,1.9,0,0,1,2.55-.42c0,.64-.43.31-.71.51.4.61,1.12-.82,1.85-.83.52.53-.07.91-.16,1.19,2.2-1,2.75,1.24,4.85-1.61.27-.54-.37-1.08.5-1.25-1.29-1.1-2.78,0-4.17.84h.37c-1.33,2.93-.75-.68-2.52.7.48-1.23,1.24-1.24,1.6-1.9-2-2.13-3,1.94-4.27-.78l.15-.1c-.3-.24-.85.36-1.31.68.15.35.61.49.91.73-.46.32-.7,1.62-.85,2.17-.52-1.21-.68.71-1.51.17-.31-1.14.68-1.17,1-1.84l-1,.93c-.91.19-.92-1.17-1.41-1.74-.74,1,.48.57-.1,1.92-1-1.37-5.3-.17-6.92,1.59.62-.36,0-1.29.84-1.34-.35-.18-1.29.73-1.09,1.6a4.84,4.84,0,0,1-4.31,1.07l.63.69c-.58,1.84-3,.06-4.53,1.67h.05c-.53.44-.38,2.69-1.6,2.73C199.87,25.12,200.48,25,200.09,24Z" transform="translate(0 23.76)"/><path class="cls-2" d="M194.26,28.66l.22-1.42c-.74,0-1.08,1.87-.69,2.56.36-.43,1.11-.16,1-.87C194.63,28.8,194.5,28.37,194.26,28.66Z" transform="translate(0 23.76)"/><path class="cls-2" d="M183.87,36.2c-.08.37.18.75.25,1.1.51-.36,1.24-.83,2.07-1.45s1.5-1.21,2.12-1.73c1.24-1.06,2.12-1.71,2.81-1.67.84-.25-.21-1.74.35-2.68.34.26.66.53,1,.82,0-1,1.62-.24.5-1.94-.14-.14,0,1-.46.9l-.25-.65c-.24.23-.48.47-.71.73l-.18-.92c-.94-.12-.82.62-.63,1.35s.42,1.52-.59,1.87L189,30.6c-1.12.84-1.36,1.86-3.09,1.89,0,0,.51.7.51.25a1.2,1.2,0,0,1,1.15.76c-1.21,2.67-.32-1-2.1-.58A11.51,11.51,0,0,1,183,36.11c-.84.78-1.13,1-1.79.65,1,.48,1.58,1.44,1.49,1.51a2.9,2.9,0,0,1-1.33-.83c-.25.09-.73.16-.51.48.93,0,2.11.73,2.68.76s0,.06-.48-.43C182.48,37.9,182.82,36.67,183.87,36.2Z" transform="translate(0 23.76)"/><path class="cls-2" d="M184,37.83a.59.59,0,0,0,.1-.53l-.61.43Z" transform="translate(0 23.76)"/><path class="cls-2" d="M467.21,100.26a1.57,1.57,0,0,0-.26-.19C466.94,100.14,467,100.21,467.21,100.26Z" transform="translate(0 23.76)"/><path class="cls-2" d="M464.05,114.19l0,.08.08,0Z" transform="translate(0 23.76)"/><path class="cls-2" d="M464.15,114.24l.33.16C464.38,114.19,464.27,114.19,464.15,114.24Z" transform="translate(0 23.76)"/><path class="cls-2" d="M465,98.87a.9.9,0,0,0-.37-.39Z" transform="translate(0 23.76)"/><path class="cls-2" d="M463.31,100.18a.36.36,0,0,0-.19.08Z" transform="translate(0 23.76)"/><path class="cls-2" d="M470.52,87.76l.12.07A.2.2,0,0,0,470.52,87.76Z" transform="translate(0 23.76)"/><path class="cls-2" d="M470.11,86.73a.45.45,0,0,0,0-.22l-.07,0C470,86.52,470.06,86.66,470.11,86.73Z" transform="translate(0 23.76)"/><path class="cls-2" d="M469.58,87.1v-.21A.37.37,0,0,0,469.58,87.1Z" transform="translate(0 23.76)"/><path class="cls-2" d="M466.31,80.53l-.36,0A1.86,1.86,0,0,0,466.31,80.53Z" transform="translate(0 23.76)"/><path class="cls-2" d="M470.93,88a1.12,1.12,0,0,0-.29-.19C470.73,87.92,470.74,88.07,470.93,88Z" transform="translate(0 23.76)"/><path class="cls-2" d="M467.37,100.3l-.16,0A.16.16,0,0,0,467.37,100.3Z" transform="translate(0 23.76)"/><path class="cls-2" d="M465.24,98v0C465.24,98.06,465.25,98,465.24,98Z" transform="translate(0 23.76)"/><path class="cls-2" d="M463.16,119.44a3,3,0,0,0,.06.4C463.38,119.55,463.32,119.45,463.16,119.44Z" transform="translate(0 23.76)"/><path class="cls-2" d="M469,91.33c-1.1,0,.07-.52-1-.59.17.29.3.51-.28.57-.54-.28.17-.54-.69-.74l.26.43c-.5.21-1.12-.21-1.1,0,1.14.45-.72,1.08-.61,1.47l-.09-.14-.68.51h-.07l.22,0c-.65.17-1.17.56-1.12,1,.66.24-.05,1.52.5,1.78-.14-.21-.12-.38.11-.62l.83.1c-.1.44-.78,0-.36.44,1.15,0,.11-.62.3-.92a1.16,1.16,0,0,1,.52.51c.16-.62.66-1.18-.39-1.7a.77.77,0,0,1,.83.11c-.57-.51.71-.27.18-.71,1,.23.36,1,.89,1.4-.94.5-.29,1.31-.25,2-.78,0-1.36-.52-1.85-.3-.63.6.3.66.69,1-.36.43-1.31,0-1.47.68l-.44-.45c-1.17.34.37.42.09.72.31-.09.59-.08.62-.43a.49.49,0,0,1,.55.4l.05-.08c.51.18,1.08.26.73.69-.61-.32-.55.33-.87.42l-.12-.12c.16.34,0,.67.1.89l-.16,0c.23.26,1,.39.78.74-.32,0-1.13-.52-1.05-.12-.48-.08-.46-.52-.22-.87-.24.35-1.07.49-1,0-.65.09.2.43-.13.65a3.9,3.9,0,0,1,.59,0c-.84,0-.2.86.38.9l-.4-.46c.68,0,1,.56,1.44.41-1.09.15.34,1.17-.59,1.35l.57-.13c-.46.87.64,1.66.76,2.57-.29-.32-1.45-.4-1-.94-.36.84-1.19.2-1.81.43-.53.64,1,.39,1.36.61l-.14-.46c1.25.65-.56,1.68.13,2.64-.37,0-.17-.2-.29-.33-.76.37.08.4.3.66a1,1,0,0,1-1.37.6c-.29.46.52,0,.74.25l-.2.07.87.55a2.85,2.85,0,0,1-1.73,1c0,1,1.85.46,2,1.17-.5.36-.63-.12-.95-.18l0,.62c-.9-.29-.35-.75-1.45-.78,1,.58.19.7.79,1.44l.11,0c.69.36,0,1,.09,1.44-.42-.21-.38-.65-.49-1a1.38,1.38,0,0,0,.57,2c-.21.24-.71.75-1,.34-.35.88,1.31.51.86,1.26l-.73-.1c-1.24.75.61,1.75-.51,2.47l.89.13c-.41.14-.66.48-1,.52l-.22-.44c-.83.29.64.47,0,.85.27,0,.95-.29,1.25-.26-.19-1.76,1.45-3.34.91-5.17a.57.57,0,0,1-.43.06c.26-.17.09-.55.56-.45l.06.07c-.12-.48,1.08-.81,1.12-1.09-.58-.23.44-.94-.65-.81l.72-.26c-.37-.13-.89-.11-1.06-.32a.47.47,0,0,1,.79,0,6.84,6.84,0,0,0,.63-3.89l.44.36c.3-.29-.69-1.13.53-.81-.4-.63.63-1.64-.69-1.74,1.34-.34.8-1.44.74-2.28-1.15.09-.21-.7-.7-.94.89-.08.79.73,1.37.77-1.22-.92,1.36-2.32-.83-2.79a.23.23,0,0,1,.28-.06c0-.17.45-.36.58-.52-.38-.12-.62.23-.69-.17.13-.31.72-.1,1-.21-.41-.63-.46-1.58-1.34-1.74.28-.16.82-.32,1-.11-.54-1,.3-.9,0-1.88,0,.33.92.23.46.69,1.33-.29,0-1.47.85-2.17l-.74-.38c-.05-.47.72-.42.95-.08.65-.73.24-1.18.37-1.77.1,0,.26,0,.2.11l.21-.88a1.69,1.69,0,0,0-1.05-.46C469.19,90.65,469.43,90.87,469,91.33Z" transform="translate(0 23.76)"/><polygon class="cls-2" points="468.75 114.26 468.66 114.23 468.66 114.27 468.75 114.26"/><path class="cls-2" d="M463.69,98.18a1,1,0,0,0,.38-.19A.8.8,0,0,0,463.69,98.18Z" transform="translate(0 23.76)"/><path class="cls-2" d="M468.71,82.07c-1.26.08.13.54-.26.91-.14-.37-.87-.3-1.24-.26,1.54.5-.4.54-.19,1.38-.52,0-.55-.41-1.12-.47.34.46.44,1.17,1.32,1.31-.11.78-.52,1.31-.46,1.78-.26-.58-.87-.16-1.57-.6a39.25,39.25,0,0,1,3.07,2.9,6.26,6.26,0,0,1-2-.12c-.83.86.85.34.38,1.2l.26-.39c.2.44,1.12.56,1.73.76l.08-1.08c.67.07.44.72.57.94.73.4.69-.52,1.3-.35-.5-.2-.25-.61-.42-.9l.37,0c.47-.48-.38-.83-.29-1.28a.58.58,0,0,1,.25,0c-.38-.19-.84-.38-.94-.66v.21c-.79-.44-1.19-1.4-2.23-.84l.45-1c.93.17,2.34.45,2.34,1.09l.39.09c.61-.44-.51-1.36-1.37-1.09-2.21-.57.17-1.64-.67-2.46.63,0,.81.4,1.22.61,0,.24,0,.41-.5.41.19,1,2-.13,1.6,1-.4.55-.89-.73-1.11.09l1.63.68a3.65,3.65,0,0,0-.31-1.43,4.5,4.5,0,0,1,.37-3.94c.24-3.37.39-6.71.56-10-.13-1,0-1.41-1.69-1.82-.37.22-.28.86-.85.64.62.11.93.51.81,1-.63.06-.25-.5-.41-.36l-.06.11c-.31-.06-.52-.15-.51-.32a1.14,1.14,0,0,0,.21,2.18c-.7.5-.94-.33-1.41-.58A19,19,0,0,0,467.1,76c1.1,0,.68.18,1.41.42l-.42.15c.21-.07.94.17,1.2-.17-1,1,1.33,1.2,1.73,1.91l-.57-.06a2.55,2.55,0,0,0,.26,1.26c-1.19.91-.07-.82-1.5-.58l.2.27a6.77,6.77,0,0,1-1.81-.63c.81.89-.52,1.26.07,2.22-.62-.12-1-1-1.05-1.22-.1.32.28.9-.31.92l.79.08c0,.57-.73-.09-1.26.09C465.78,82,468.4,80.92,468.71,82.07Z" transform="translate(0 23.76)"/><path class="cls-2" d="M465.75,95.68a.45.45,0,0,0,0-.43A1,1,0,0,0,465.75,95.68Z" transform="translate(0 23.76)"/><path class="cls-2" d="M464.79,92.87l-.28-.08A.43.43,0,0,0,464.79,92.87Z" transform="translate(0 23.76)"/><path class="cls-2" d="M463.75,92.5c.37,0,.34.14.76.29C464.3,92.59,464.38,92.14,463.75,92.5Z" transform="translate(0 23.76)"/><path class="cls-2" d="M458.59,136.71c.25,0,.57.3.74.14l-.4-.45Z" transform="translate(0 23.76)"/><path class="cls-2" d="M459.21,135.35l.22-.6-1.13-.08C458.41,135.25,459.1,134.8,459.21,135.35Z" transform="translate(0 23.76)"/><path class="cls-2" d="M459.59,133.74l.27.06C459.74,133.72,459.66,133.71,459.59,133.74Z" transform="translate(0 23.76)"/><path class="cls-2" d="M459.13,133.83l-.81,0c.22.19.43.38.66.56l.12-.29c.27-.07.36-.26.49-.32l-.59-.13C459.08,133.66,459.22,133.76,459.13,133.83Z" transform="translate(0 23.76)"/><path class="cls-2" d="M459,133.25l-.23.09A.4.4,0,0,0,459,133.25Z" transform="translate(0 23.76)"/><path class="cls-2" d="M460.42,131.7c-.29.17-.73,0-1.06,0-.28.57.89.4.54.91-.67-.58-.45.33-.87.66a2.16,2.16,0,0,0,1.39-1.18l-.5,0C459.9,131.83,460.21,131.92,460.42,131.7Z" transform="translate(0 23.76)"/><path class="cls-2" d="M459.2,129.13l.72.35c-.37.1-.37.76-1.13.81.11.23.44.23.64.39-.38.23-.68.4-.14.56.51-1.06.69-.78.92-1.64.17,0,.14.11.11.21l.42-.58C459.82,129.26,459.79,128.54,459.2,129.13Z" transform="translate(0 23.76)"/><path class="cls-2" d="M459.79,128.27c0,.44.72.63,1.21.38-.19-.29-.37-.59-.54-.89C460.45,128,460.51,128.36,459.79,128.27Z" transform="translate(0 23.76)"/><path class="cls-2" d="M459.85,127.61c.39-.2,1.25-.5.51-.78C460.44,127.32,459.34,127.13,459.85,127.61Z" transform="translate(0 23.76)"/><path class="cls-2" d="M460.87,124.41l-.6.86c-1,.16-.25-.42-.65-.69-.29.75,0,.51.59,1.07-.08.22.39.54.63.78C460.17,125.31,462.54,125.27,460.87,124.41Z" transform="translate(0 23.76)"/><polygon class="cls-2" points="459.69 149.92 460.08 150.01 459.81 149.59 459.69 149.92"/><path class="cls-2" d="M462.22,122.41c1.23-.45-.49-1,.11-1.58.05.07.16,0,.27.16l0-.5h.26c-.68,0-.86-.54-1.34-.81-.82.47.8.32-.07.72-.29-.13-.75-.24-1-.36a2.8,2.8,0,0,0,1,.6c0,.33-.36.21-.62.22.34.4,1.34.46,1,1-.66.33-.91-.26-.77.37,1.14-.26-.27.62.39.89a1.47,1.47,0,0,1-1.37.63,2.1,2.1,0,0,1,1.71.79l-.61-.8,1-.23c-.41-.44-.28-.75-.1-1.16Z" transform="translate(0 23.76)"/><path class="cls-2" d="M460.44,120a1.57,1.57,0,0,1-.15-.19C460.26,119.91,460.33,120,460.44,120Z" transform="translate(0 23.76)"/><polygon class="cls-2" points="459.81 147.64 459.64 147.44 459.33 147.57 459.81 147.64"/><path class="cls-2" d="M459.81,119.58c-.05.1.27.16.32.06l-.43-.2Z" transform="translate(0 23.76)"/><polygon class="cls-2" points="460.53 142.91 461.15 142.7 460.72 142.5 460.53 142.91"/><path class="cls-2" d="M463.15,108.55c-.4.32.28.33.76.42C464.14,108.45,463.33,108.92,463.15,108.55Z" transform="translate(0 23.76)"/><path class="cls-2" d="M463.38,101.81c-.5.36.1.74,0,1.12A.74.74,0,0,0,463.38,101.81Z" transform="translate(0 23.76)"/><path class="cls-2" d="M461.55,98.83c.2.1.29.24.42,0l1.14.43C463.6,98.77,462.07,98.84,461.55,98.83Z" transform="translate(0 23.76)"/><path class="cls-2" d="M462,95.52l.36.57.08-.28a4.5,4.5,0,0,1,1,.51A1.42,1.42,0,0,0,462,95.52Z" transform="translate(0 23.76)"/><path class="cls-2" d="M463.55,96.81l0-.2C463.37,96.66,463.18,96.68,463.55,96.81Z" transform="translate(0 23.76)"/><path class="cls-2" d="M463.54,96.4l-.12-.08a2,2,0,0,1,.1.29C463.63,96.57,463.73,96.52,463.54,96.4Z" transform="translate(0 23.76)"/><path class="cls-2" d="M462.62,95.16l0-.94-.3.34C463.08,94.69,461.85,95,462.62,95.16Z" transform="translate(0 23.76)"/><path class="cls-2" d="M464.23,90.38H465c.28-.56-1.14-1.4.09-1.63-.49.2-.73-.53-1.06.11A1.09,1.09,0,0,1,464.23,90.38Z" transform="translate(0 23.76)"/><path class="cls-2" d="M465.71,88.4c.2.11.37,0,.59-.08s-.17-.44-.49-.35C466.73,88.21,465.17,88.14,465.71,88.4Z" transform="translate(0 23.76)"/><path class="cls-2" d="M466.11,85.77c0,.16,0,.4.25.17,0-.5-.8-.42-1.25-.69C464.6,85.64,465.67,86.06,466.11,85.77Z" transform="translate(0 23.76)"/><path class="cls-2" d="M472.07,82c-.63,0-.6.45-.4.55C471.58,82.38,471.8,82.13,472.07,82Z" transform="translate(0 23.76)"/><polygon class="cls-2" points="466.89 105.51 466.73 105.65 467.66 105.84 466.89 105.51"/><polygon class="cls-2" points="466.76 102.5 466.19 102.12 466.23 102.68 466.76 102.5"/><path class="cls-2" d="M467,78.16v-.5l-.26.17C466.52,78.08,467,78,467,78.16Z" transform="translate(0 23.76)"/><path class="cls-2" d="M467,76.65c.06.07,0,.1-.16.14l.36.46Z" transform="translate(0 23.76)"/><path class="cls-2" d="M471.85,68.59c.63.11.27-.35.43-.49C472.12,68.07,471.28,68.37,471.85,68.59Z" transform="translate(0 23.76)"/><path class="cls-2" d="M405.08,147.43a5.17,5.17,0,0,0,.84-.5l-.16-.56A5.77,5.77,0,0,1,405.08,147.43Z" transform="translate(0 23.76)"/><path class="cls-2" d="M409.5,144.51c.21-.57.39-1.13.56-1.68-1.81.38-.83-.58-3,1.32-.14.88-1,2.75-.41,2.92.45-.61.54-1.72,1.17-2.5.18.56-.43,1.47-.34,2.22,1.42-1.25.36-1.09,1.42-2.62Z" transform="translate(0 23.76)"/><path class="cls-2" d="M409,142.14c.18.22.35.45.56.49C409.38,142.4,409.41,141.55,409,142.14Z" transform="translate(0 23.76)"/><path class="cls-2" d="M409.25,141.15c.46-1,.52.18.63.11-.14-.48-.29-.94-.47-1.39C409.37,140.29,409.32,140.72,409.25,141.15Z" transform="translate(0 23.76)"/><path class="cls-2" d="M410.72,137l0-.49C410.55,136.69,410.65,136.83,410.72,137Z" transform="translate(0 23.76)"/><path class="cls-2" d="M411.09,134.94c-.43.38-.34.92-.34,1.6l.07,0c.42-.55,1,.09.55,1-.13,1-.77.8-.61,1.75l.91-1.08C412.05,136.57,411.23,135.56,411.09,134.94Z" transform="translate(0 23.76)"/><path class="cls-2" d="M410.72,137a4.11,4.11,0,0,1-.11.55A.53.53,0,0,0,410.72,137Z" transform="translate(0 23.76)"/><polygon class="cls-2" points="410.01 162.87 409.97 163.42 410.3 163.37 410.01 162.87"/><path class="cls-2" d="M411.61,131.47c.94.27-.47,2.48.2,2.8.22-1.38,1.06-2.47,1.54-2.15l-.09-1.57C413,130,412.17,130.69,411.61,131.47Z" transform="translate(0 23.76)"/><path class="cls-2" d="M414.37,128.45a.67.67,0,0,1-.13-.35C414.26,128.27,414.29,128.41,414.37,128.45Z" transform="translate(0 23.76)"/><path class="cls-2" d="M413.11,120.75c.33,1.15.62,2.33.88,3.51-.29-.31-.6-.16-.68-1-.19,1.59.41,1.76.22,3.08-.92.43.08-2.3-.77-1.51,0,.92-.08,2.29.61,3l-.75,1.47,1-.5c.34-.61-.66-1.19.05-1.58.44-.2.47.4.53.82-.11-.94,1-2.64.94-4.61S413.57,122,413.11,120.75Z" transform="translate(0 23.76)"/><polygon class="cls-2" points="414.2 144.26 414.58 143.97 414.06 144.2 414.2 144.26"/><path class="cls-2" d="M412.8,116.78l.7,1.75a1.48,1.48,0,0,1-.46.51c.23-.11.62.34.81.24.87-1-.37-2.27-.58-3.19.27-2.65.48,0,1.27-1.1,0,.73-.2.77-.2,1.79.9-1.72-.1-3.58-.43-4.58-.07.31-.34.44-.22,1l-.36-1C412.71,113.41,412.55,114.37,412.8,116.78Z" transform="translate(0 23.76)"/><path class="cls-2" d="M412.92,120.07c-.08-.68,0-.94.11-1C412.79,119.26,412.62,119.51,412.92,120.07Z" transform="translate(0 23.76)"/><path class="cls-2" d="M413.84,111.64a1,1,0,0,0,.07.56A1,1,0,0,0,413.84,111.64Z" transform="translate(0 23.76)"/><path class="cls-2" d="M412.87,112.88v-1.3l-.38.58C412.55,112.33,412.65,113,412.87,112.88Z" transform="translate(0 23.76)"/><path class="cls-2" d="M387.83,73.43c-.06.37.22.73,1.18,1.08-.37.39-1.46-.23-2.11-.22,1,.82-.29.51-.23,1.07,1.24.66,2.16.3,3.44,1.14A.44.44,0,0,0,390,77c1.76.55,4.65,1.94,5.64,3.49a38.31,38.31,0,0,0,3.45,3.39c3.7,4.84,8,9.77,10.14,16.23.41.15.83.3,1.23.47-.33.52.56,1.54-.09,1.6a3.47,3.47,0,0,0-.39-1.1c-.29,1.71,1.33,3.55,1.53,5.35.11-.25.82-.83,1.11-.37-1,.22.56,2.07-.56,2.94,0,1.82.93-.17,1,1.73.65.07.08-1.86.45-2.34.61.47,0,1.78.68,1.55a14.32,14.32,0,0,0-1.8-5.83c-1-2-2.2-4.2-3.31-6.11l.73.14c-1.29-1.93-3.1-5-3.31-7.11-.22.67-1.62-3-2.49-1.88a3.43,3.43,0,0,0-.62-1.47l-.46.09c-.68-.93-.07-1.17-.91-2.19.09,1-.62.39-1.22.4-.44-1.57-1.15-3.27-1.63-4.62a1.41,1.41,0,0,0,0,.93c-.44-.81-.75-.34-1.05-.4-.58-.63,0-1.06.31-1.27-1-1.46-2.56-.91-3.2-2l-.05.72c-1.38-1-2.18-2.26-3.92-3-.36-1.12,1.73.18,2.58.38-.23-.36-.9-.83-1-1.19l-3.52-.38C390.61,74.72,388.32,73.72,387.83,73.43Z" transform="translate(0 23.76)"/><path class="cls-2" d="M392.78,75.49a4.45,4.45,0,0,0,.66,0,1.53,1.53,0,0,1-.59-.29A.24.24,0,0,0,392.78,75.49Z" transform="translate(0 23.76)"/><path class="cls-2" d="M387.83,73.43s0-.07,0-.1C387.65,73.3,387.69,73.34,387.83,73.43Z" transform="translate(0 23.76)"/><path class="cls-2" d="M395.74,80.72l-.14-.2-.21-.21Z" transform="translate(0 23.76)"/><path class="cls-2" d="M398.64,79.88c.13.45.29,1,.49,1.51C399.21,81.08,399.35,80.9,398.64,79.88Z" transform="translate(0 23.76)"/><path class="cls-2" d="M405.18,89.11c.28.23.31,0,.6,0C405.39,88.55,405.09,88.47,405.18,89.11Z" transform="translate(0 23.76)"/><path class="cls-2" d="M391,74.33l-1.41-.5-.57-.09C389.69,73.91,390.34,74.11,391,74.33Z" transform="translate(0 23.76)"/><path class="cls-2" d="M361.92,71c1.28.46,3.13-.08,4.67.07,2.9-.26.56-1.47,3.35-1.37L369.2,71c2.73.08,6.27,1.15,8.9.71.11.21.49.54-.25.53,1.79.43,1.44-1.68,3.73-.7-2.53.33.47.93-.44,1.62h-.36a15.41,15.41,0,0,1,4.32,1.17c.21-.3-.3-1.15.91-.63-.45-.29-.06-.56.15-.86-1.45-.23-1.87-.74-3-.7-.62-.74.64.08,0-.66a10.15,10.15,0,0,0-1.36,0c-.84-.31,1.05-.22-.27-.64a3.56,3.56,0,0,1-2.28,0l.31-.1a9.27,9.27,0,0,1-1.05-.12c-.34,0-.56,0-.53.46l-.6-1,0,.54c-2-.75-2.41-2.16-5.42-2,.63.26-.06.44-.43.48,1.07.52,1.53-.17,2.65,0,0,.53-2,.8-.78,1.34-1.26-.88-2.71-.33-3.07-1.67-1.81-.22-2.58.36-4.4.09l.07-.19c-.4.85-1.51-.34-2.92.66l1,.1c-.06.35-.53.41-1.18.53.07-.14.07-.15-.14-.29-.21.62-2.23,1-2.46,1.26a21.7,21.7,0,0,0,2.88-1C362.6,70.47,362.76,71,361.92,71Z" transform="translate(0 23.76)"/><path class="cls-2" d="M380.15,70.64l-.61.18A1,1,0,0,0,380.15,70.64Z" transform="translate(0 23.76)"/><path class="cls-2" d="M353.84,71.93c-1.13.23.19-.59-.9-.52-1,.77,1.47.41.51,1.37-.76-.13-1.72.83-2.16,1a.9.9,0,0,0-.29-1.27c-.38.35-1.43.3-2.17.56,1.92-.18-1.43.83.32.75,0,.5-1.55,1.44-2.32,1.39-.06-.34.51-.5.95-.69.18-.76-1.22.12-1.66-.31-1.5,1.45-6.52,4.33-4.44,4.75.65-.07.94-.62,1.49-1-1.73.65-.33-.66-.29-1,.79-.19,1.86-1.21,1.77-.6l-.91,1c3.58-1.68,8.77-3.38,13.12-5L355,73c.14-.45,1-.77,1.69-1.16l-1.14-.63c.58-.11,1.09-.41,1.11-.06.61-.6.27-.75-.22-.94,1.48-.59,1.77-.28,2.88-1.16-2.65-.18-2.11,1.15-5,1.36Z" transform="translate(0 23.76)"/><polygon class="cls-2" points="359.07 93.64 358.53 94.25 359.41 93.82 359.07 93.64"/><path class="cls-2" d="M358.41,72.17c-.06-.2.27-.38.22-.58C357.5,71.74,357.69,72,358.41,72.17Z" transform="translate(0 23.76)"/><path class="cls-2" d="M344.65,74.82c-.45.28-.9.55-1.34.85l1-.29C344.18,75.2,344.49,75,344.65,74.82Z" transform="translate(0 23.76)"/><path class="cls-2" d="M336.6,82.45c1.65-1.27,2.18-2.15,4.41-3,.7-1.13-1-.72-.84-1.46-1.08.51-.46,1.33-1.38,2.15-.65-.2-1.43,1.09-2.44,1.66A.45.45,0,0,1,336.6,82.45Z" transform="translate(0 23.76)"/><path class="cls-2" d="M329.7,85.44c-.73.68-1.13,1.68-1.85,2.08-.16-.29.16-.81.64-1.19-.79-.22-.69.87-1.78,1.36.13,0,.48-.24.4.1-1.89,1.93-.54,1.48-3,4-.12.52-.4.91.06,1.11-1.64,1.25-1.08.45-2.84,2.14.3.06,1.28-.26,1.81.07-2.51,2.31-1.63,2.86-3.26,4.35a2.41,2.41,0,0,1,.44-1c-.92-.15-.73,1.58-1.43,2.51l-.62-.41c-.41,1-.83,2.81-1.93,3.79l-.21-.42c-.73,2.62-2.37,5.41-3,7.67l-.9,1c-.27,1.64.06.85.5,0s1-1.67,1.13-.44c-1.46,0-.18,1.63-1.17,3.2-.79.72.22-1.79-.67-1,.59.52-.07,1-.11,1.91-.61-.29-.62,1.85-1.22,1.16.13,1.05.09,2.22.15,3.38A3.48,3.48,0,0,0,310,123c.53-1.72.84.65,1.74-1.19a24,24,0,0,1,.6-2.4c.28-.93.51-1.91.75-2.9a21.77,21.77,0,0,1,2.09-5.59c-.72-.66,1-2.15.53-2.94.31,0,.67-.13,1-.11.87-2.2-.71.32-.76-.32.35-1,1.24-1.54,1.5-1.32.82-1.51-.14-.27-.2-1.24l1.44-.6c2.12-4.81,5.12-11.42,9.72-15.63l-.77,0c2.07-1.82,2.37-4.43,5.18-5l.36-1c-.2.52.92.46.58,1.24.48-.63,1.26-.92,1.79-1.53l-1.29.58a1.91,1.91,0,0,1,2.06-1.19c1.37-1.71-1.59-.18-2.27-.3-1.68,2.68-3.12.93-5,3.33C328,86.38,329.56,85.12,329.7,85.44Z" transform="translate(0 23.76)"/><path class="cls-2" d="M333.54,84.35a2.16,2.16,0,0,0,.23-.39A1.54,1.54,0,0,0,333.54,84.35Z" transform="translate(0 23.76)"/><path class="cls-2" d="M310,123c-.05.21-.12.45-.18.78S310,123.58,310,123Z" transform="translate(0 23.76)"/><polygon class="cls-2" points="336.35 105.59 336.33 105.59 336.32 105.61 336.35 105.59"/><polygon class="cls-2" points="336.69 103.52 336.02 103.95 336.29 104.11 336.69 103.52"/><path class="cls-2" d="M307.46,130.72l.34,0A.26.26,0,0,0,307.46,130.72Z" transform="translate(0 23.76)"/><path class="cls-2" d="M304.22,152l0-.47A.93.93,0,0,0,304.22,152Z" transform="translate(0 23.76)"/><path class="cls-2" d="M309.83,151.88a14.59,14.59,0,0,0-.29-4.29l.33.11c-.05-.75-.22-3.14-1.07-1.61l.24.37c.22,1.76-.77,1.25-1.2,2.59-.11,1.64,1,2.64.49,4.1-.07.65-.4.54-.62.34-.32,1.48.6,2.07.58,3.08-1.32.16-1.3,1.26-1.29,2.58s.1,3-.82,4.09a37.15,37.15,0,0,0,0,4.94c-.51-.92-.29,1.61-1,1.18.73.33.27,1.4-.18,2.73s-.59,2.53.34,2.68c-.74,2.22,0,.38-.51,2.42l.63,0a1.79,1.79,0,0,0,.15-.49c.15,0,.18.28.14.54l-1.21-.1V177l-.08.22,1.39.11a1.44,1.44,0,0,0-.29-1.45.67.67,0,0,1,.11-1c.31-2-.48-.35-.89-1.57.14-2.23.39-1.7,1.16-3-.92-.09-.48-1.48-.9-2.56-.06.28-.28,1.85-.6.86.26-2.68-.5-2.11-.56-4.59,1.1-1.3-.16,2.48.79.26.35,1.56.23,2.76.93,3.54a32.33,32.33,0,0,0-.12-6.93c.17-1.29.46.61.57-.41.49-2.33-1-3.38-.51-5.25l.51.33c-.69-1.06.27-4,.19-6.08-.29.26-.49.44-.63.16,1.29,0-.33-3,.82-5-.84.18-1.09-1.88-1-3.22a.7.7,0,0,1,.84-.31c-.83,2.11.59,2.08.77,3.73-.29-1.4.47-3.63.11-4.87l.56.51c.43-1.9-1.14-1.77-.17-3.73l.44.23c.59-4.09,2.11-8.68,2-12-.31-.35-1.61,1.16-1.92,1.22-.13,2,.35,3.18.42,4.68l-.73-.06c.43.37.44,2.15,1,1.19.18,1.21-.79.88-.58,2.27-.75-.13-.71-1-1.35-1l.2,1.22c-.24-.37-.37.7-.61.33.58,2.22-.91,3-.9,5.37l.37-1.29c.42,0,.24.78.27,1.34-.71.6-.7,1-1.14,2.19.19,1.08.92,1.64.75,3-.78-.29-.7,2.28-1.42,2.54.78.3,0,2.65.44,2.86.07.76-.08,1.78-.52,1.8,0-.12-.08-.33-.09-.57l-.09.76c-.09-.07-.16,0-.17-.13-.06.69.54.65.1,1.54-.22,0-.2-.46-.27-.84-.23,1.82,1.16,3,.4,4.52.38.24.4,2.24,1.28,1.72-.33.57-1,.43-.92,1.87.7.78-.34,1.62,0,2.7-.66-1.44-.21,0-.85-1.24-.36.95.48,2.46.25,4.21-.18.19-.4.2-.58.39.22.66.8,1.35.19,2.05l.52-.13a12.2,12.2,0,0,0-.19,2.09c0,.37,0,.75-.08,1.12a1.58,1.58,0,0,1-.3.83,15.79,15.79,0,0,1,.86,1.48,2.67,2.67,0,0,0-.22,1.4,2.58,2.58,0,0,1,0,.7l2.05.15a9.36,9.36,0,0,0-.78-3.89c.15-.74.59-1.82.81-1.77,0,.17.1.47.17.81.25-1,1.22-2.33.48-3-.06-1.14.7-.81.94-1.66-.44-1.14-.12-2.79.16-4.22s.55-2.6-.24-3a21,21,0,0,0-.85,4.37c-.17-.45-.55-.09-.53-.73.09-1.78.84-2.68,1-4.45l1.05.34C310.25,157,307.8,154.12,309.83,151.88Z" transform="translate(0 23.76)"/><path class="cls-2" d="M306.28,174.16c.24-.41.49-.81.75-1.19l-.5.1A1.89,1.89,0,0,1,306.28,174.16Z" transform="translate(0 23.76)"/><path class="cls-2" d="M306.53,173.07a5.39,5.39,0,0,0-.09-.73,1.49,1.49,0,0,0,0,.75Z" transform="translate(0 23.76)"/><path class="cls-2" d="M310.45,146.81a4,4,0,0,0,.22-1.38A2.18,2.18,0,0,0,310.45,146.81Z" transform="translate(0 23.76)"/><polygon class="cls-2" points="310.34 169.09 310.07 169.72 310.18 169.82 310.34 169.09"/><path class="cls-2" d="M314.13,108.28l-.45-2c.38-.35.22-2.66.73-1.91-.67-1.21.42-3.85-.86-2.87-.27,6-1.89,14.21-1.62,21.11l-.34-1.11c.57,3.62-1.74,4.85-.32,7.76l-.88-.41c-.51,1.61.81,3.15-.37,4.84l.4-.16c-.06.46-.25.64-.31,1.1l.2-.17a5.38,5.38,0,0,1-.3,3.14c-.31.07-.06-.56-.1-.94-.37.54.16,1.5,0,2.42-.35.73-.43,0-.55-.12.09,2.79-1,4.06,0,6,.23.19.59-.71.56.3.75-1.82.38-3.3.18-5l-.06.46c-1.21-1.34.43-1,.09-3.14.48.58.37,1.5.63,1.88,1.32-2.42-.39-3.54,1.14-5.1l0,.19A3.73,3.73,0,0,0,312,133a4.35,4.35,0,0,0-.52,1.06c-.06-.56-.62-.88-.86-1.08.68-.6-.16-.84.29-1.82.62-.33.38.85.62,1.24l-.19-1.22c.14-1.09.78-1.05,1.17-1.58-.28-.94-.39.53-.86-.24.87-1.15,1.55-6.19,1.19-8.59,0,.83.57.29.36,1.3.17-.37,0-1.65-.4-1.66a12.56,12.56,0,0,1,.88-5.31l-.49.44c-.57-1.29.91-3.29.75-5.58l0,0c0-.73-1-1.37-.62-2.73C313.73,107.62,313.6,108.36,314.13,108.28Z" transform="translate(0 23.76)"/><path class="cls-2" d="M314,100.19l.52.74c.22-.82-.43-1.85-.84-1.67.07.55-.28,1.28,0,1.38C313.87,100.55,314.08,100.55,314,100.19Z" transform="translate(0 23.76)"/><path class="cls-2" d="M315.68,84.79c-.1-.3-.34-.22-.49-.35-.29,3.25-.51,7.27-1.12,8.57-.3,1.11.58,1.3.63,2.69l-.68.62c.3.75-.61,3,.47,2.22.1-.09-.39-.65-.14-1.29l.33.1,0-1.47.38.47c.84-2-1.13-1.41-.45-3.87l.86,0c.23-1.66,0-2.49.71-3.94,0,0-.42,0-.28.27-.08.28-.46.63-.7.44-.4-2.49.47.38,1-1.35-.34-2.16-.42-6.06.46-7.42-.67,1.19-1.1-.64-.43-2.19.57-.63.26.65.48.88.32-.64.66-1.07,1.05-1.86-.51.36-.79.36-.86,0a3,3,0,0,1,1.42-2.25,4.35,4.35,0,0,0-1.78,1.5,5.46,5.46,0,0,0-.8,1.62,7.63,7.63,0,0,0-.3,2.59A14.69,14.69,0,0,1,315.68,84.79Z" transform="translate(0 23.76)"/><path class="cls-2" d="M315.05,84c0,.29.05.42.14.49,0-.38.07-.77.11-1.13Z" transform="translate(0 23.76)"/><polygon class="cls-2" points="551.99 206.57 551.84 206.41 551.93 207.03 551.99 206.57"/><path class="cls-2" d="M551.54,184.53c.08.08.14.24.22.32-.07-.6-.12-1.2-.14-1.81C550.92,182.35,552,185,551.54,184.53Z" transform="translate(0 23.76)"/><path class="cls-2" d="M551.3,184.48c-.39-.22-.12.52,0,.78C551.05,184.69,551.73,185.2,551.3,184.48Z" transform="translate(0 23.76)"/><path class="cls-2" d="M537.76,186h.08S537.81,185.94,537.76,186Z" transform="translate(0 23.76)"/><path class="cls-2" d="M533.06,183.47l-.64.24c1.41.34.81,1.87,1.77,2.42l-.24.08c1,2.25,3.42,3.52,5.63,4.19-.07,0-.19.21-.27.26.24-.15.57-.46.64-.36a.61.61,0,0,1-.26.3c-.09.61.38.6.77.52s.76-.25.8.17a1.26,1.26,0,0,0,.34-.87,6.67,6.67,0,0,0,4.65-2.62,1.46,1.46,0,0,1,.39.67c.74-2.29,2.5-2.66,4.31-3.43-.14-.42-.39-.31-.44-.81-.8-.15-.45,1.53-1.29,1.12l-.15-.41c-.46,0,.45,1-.15.71-.31-.22-.23-.49-.31-.48-.61.58-1.47.67-1.63,1.94-.56-.74-.72.37-1.32-.31,0,.41-.21.41,0,1-1.2.33-2.21.82-3,1a2.52,2.52,0,0,1-2.4-.39c-1,.51-1.43,0-1.66-.62s-.33-1.39-1-1.74a.56.56,0,0,1,.16-.12,1.35,1.35,0,0,1-1.27-1.1l-.94,0a32.32,32.32,0,0,0-.87-5,16.41,16.41,0,0,1-.51-5.21c.08-2.07.33-4.21.36-5.94a10.68,10.68,0,0,0-1.21-5.6c.18,0,.29,0,.35.07-.27-1.16.51-2.22.26-3.33h.18c-1.2-2.77,1-5.76-.32-8.48a60.49,60.49,0,0,0,.74-10.41h.36c-.43-2.78,1.87-5.4,1.71-8.15,1.26-2.75-1.14-5.93.56-8.7,2.14-1.6-1.25-4.28.92-5.76,3.45-3.17,2.3-6.66,1.27-10.14.82-1.54.68-3.12.77-4.76A6.31,6.31,0,0,1,541.93,99c-.87-1.59,2.19-2.85,2.43-4.28l-.44-.07c1.5-.17-1.31-1.76.74-1.56l.06.08c1.11-.07-2.07-1.27-.84-1.15l-.48-.15c0-.36.57.07.85-.16,0-.11-.9-.19-.56-.34,1,.12,1-.13.93-.36s-.07-.42,1.12-.48c0,.28,1-.47,1.4.17.29-.19.18-1.2-.84-.94a7.17,7.17,0,0,0-2.84.49l.78,0a4.68,4.68,0,0,1-1,.2c-.12.36-1.27.38-1.76.5h.08c.89.23.29.41.12.51l-.43,0c-.89-.13,1.55.8.11.34.1.86-.43,1.95-.86,3.32.5.29-.35,1.09.84.93-1.37.29-1.83.9-1.86,1.22-.12,0-.25-.05-.19-.09-1.78.33,1.36.87-.78,1.11,1.39.3-.71.9.86,1.48a2.56,2.56,0,0,1-.86-.07c-.3,1-1.12,2.06-1.41,3,1.06.9-1,1.93.63,2.74-.47.5-1.36,1.29-.8,2l-.2-.09c0,.82-.16,1.84.83,2.47-1.71.13-1.45.5-2.05.81.67.6.23,1.68.78,2.55-.8.07.19.71-.93.67,1.71,2.48.4,5.31-1.7,7.62l-.08,0c.55.38,1.83.88,2.56,1.29-.1,0-.29,0-.27-.07.12.47-1.06.79-.95,1.27a.6.6,0,0,1-.34-.11c.4.48-1.08.82-.32,1.41H534l.35.36c-.37,0-.92-.1-.76-.26-1.16,4,.13,8.18-.69,12.21l-.33-.15.52.8a.79.79,0,0,1-.35-.09c-.76,1,.16,2-.12,3-.18,0-.52-.16-.75,0,.93.73-1.46,1.15.61,1.53a1.87,1.87,0,0,1-.74,0,12.19,12.19,0,0,1-.38,6.07c1.73,1.69-.23,3.51,1,5.28l-.38,0c1,2.28-.74,4.64-.74,7-.26,1,.12,1.63.06,2.61l-.48,0c1.69,1.53-1.86,3.62.17,5.17l-.65,0c1,.14-.33,1.1,1.39.75l-.51.38c2.33.76-.91,2.27.67,3.41h-.41c.35.31.63.69.28,1-.06,0-.18,0-.3-.06-1.52,1.49.38,2.45.48,3.67l-.77,0c1,.38.3,1.68.86,2.34l-.36.06.58.24-.7.24C531.75,181.87,532.62,182.59,533.06,183.47Z" transform="translate(0 23.76)"/><path class="cls-2" d="M539.69,190.6s0,0,0,0S539.65,190.62,539.69,190.6Z" transform="translate(0 23.76)"/><path class="cls-2" d="M541.34,91a.76.76,0,0,1,.16-.06C541.36,91,541.38,91,541.34,91Z" transform="translate(0 23.76)"/><path class="cls-2" d="M624.79,168c0,.15.14.2.38.19C625.14,168.08,625.05,168,624.79,168Z" transform="translate(0 23.76)"/><path class="cls-2" d="M637.84,85.93c.21-.44.22-.69.13-.85-.6.53-1.18,1.09-1.75,1.67A1.49,1.49,0,0,0,637.84,85.93Z" transform="translate(0 23.76)"/><path class="cls-6" d="M612.62,126.93c.6-.86.2-1.3-.42-1.66-.06.28-.4.49-.75.8C611.79,126,612.15,126.15,612.62,126.93Z" transform="translate(0 23.76)"/><path class="cls-6" d="M611.22,126.15c-.33-.45-.39-1.25-1.15-1a3.36,3.36,0,0,0-.37,1.69C610.34,126.82,610.78,126.36,611.22,126.15Z" transform="translate(0 23.76)"/><path class="cls-6" d="M611.29,131.06l.63,1.54.4-.19a.86.86,0,0,0,.48-1.32l0-.08C612.18,130.94,611.6,130.83,611.29,131.06Z" transform="translate(0 23.76)"/><path class="cls-6" d="M611.87,134a1.31,1.31,0,0,1,0-.45l-.67,0A.76.76,0,0,0,611.87,134Z" transform="translate(0 23.76)"/><path class="cls-2" d="M608.46,132.43a1.69,1.69,0,0,0,0,.67l0-.67Z" transform="translate(0 23.76)"/><path class="cls-6" d="M608.46,132.43a1.69,1.69,0,0,0,0,.67l0-.67Z" transform="translate(0 23.76)"/><path class="cls-2" d="M615.6,160.77l1.27-.39a5,5,0,0,1-2.14-2.65,4,4,0,0,1,.25-3.59c-1,.83-.38-2.8-2.78-1.52.46-.72.32-.82.35-1.57l-.86.12c-.24-1,1-1.24.73-2.34-1,1.09-1.47.39-2.46.32.49-.86.95-1.74,1.38-2.57s1-1.64,1.41-2.32a3.38,3.38,0,0,0-1.21.87c.32-.88-.76-.51-1.17-.65-.14-.78,1.34-1,2.09-1.08.34-1.44-2.45-1.67-1.56-2.89l-1.17.53c-.38-1.49,1.07-2.91.69-4.54,1.65-.88,1.34,1.29,2,1.89.35-.36.46-1,1-1.31a15,15,0,0,1-2.5-2.64c1.26.57,1.66-.29,1.86-1a8.48,8.48,0,0,1-.88.13h0a1.31,1.31,0,0,0,0,.45.76.76,0,0,1-.64-.41l-2.6.16a2.69,2.69,0,0,1,.43,2.08A1.87,1.87,0,0,0,608,136c.52,1.75,1.4,4.51.63,6.29-.37,1.69.33,2.79.95,4.4a25.57,25.57,0,0,0,2.05,8.36c1,2.73,2.48,5.22,3.67,8,.71-.17,1.44-.38,2.15-.58-.68.87.81,1.09-.34,1.81,0-.42-.35-.52-.59-.82-.71,2.19,2.17,2.53,2.75,4,.14-.39,1.28-1.82,1.81-1.76-1.73,1.6,1.23,1.1-.21,3.37.76,1.46,1.37-1.5,2.33-.3.93-.94-.58-1.35-.25-2.24q-.3-.78-.57-1.59l-1.77-.84A16,16,0,0,1,615.6,160.77Z" transform="translate(0 23.76)"/><path class="cls-6" d="M615.6,160.77l1.27-.39a5,5,0,0,1-2.14-2.65,4,4,0,0,1,.25-3.59c-1,.83-.38-2.8-2.78-1.52.46-.72.32-.82.35-1.57l-.86.12c-.24-1,1-1.24.73-2.34-1,1.09-1.47.39-2.46.32.49-.86.95-1.74,1.38-2.57s1-1.64,1.41-2.32a3.38,3.38,0,0,0-1.21.87c.32-.88-.76-.51-1.17-.65-.14-.78,1.34-1,2.09-1.08.34-1.44-2.45-1.67-1.56-2.89l-1.17.53c-.38-1.49,1.07-2.91.69-4.54,1.65-.88,1.34,1.29,2,1.89.35-.36.46-1,1-1.31a15,15,0,0,1-2.5-2.64c1.26.57,1.66-.29,1.86-1a8.48,8.48,0,0,1-.88.13h0a1.31,1.31,0,0,0,0,.45.76.76,0,0,1-.64-.41l-2.6.16a2.69,2.69,0,0,1,.43,2.08A1.87,1.87,0,0,0,608,136c.52,1.75,1.4,4.51.63,6.29-.37,1.69.33,2.79.95,4.4a25.57,25.57,0,0,0,2.05,8.36c1,2.73,2.48,5.22,3.67,8,.71-.17,1.44-.38,2.15-.58-.68.87.81,1.09-.34,1.81,0-.42-.35-.52-.59-.82-.71,2.19,2.17,2.53,2.75,4,.14-.39,1.28-1.82,1.81-1.76-1.73,1.6,1.23,1.1-.21,3.37.76,1.46,1.37-1.5,2.33-.3.93-.94-.58-1.35-.25-2.24q-.3-.78-.57-1.59l-1.77-.84A16,16,0,0,1,615.6,160.77Z" transform="translate(0 23.76)"/><path class="cls-2" d="M614,137a1.1,1.1,0,0,0-.51.1,3.8,3.8,0,0,0,.63.42A.52.52,0,0,1,614,137Z" transform="translate(0 23.76)"/><path class="cls-6" d="M614,137a1.1,1.1,0,0,0-.51.1,3.8,3.8,0,0,0,.63.42A.52.52,0,0,1,614,137Z" transform="translate(0 23.76)"/><path class="cls-2" d="M608.48,142.53a1.73,1.73,0,0,0,.1-.24l0-.29Z" transform="translate(0 23.76)"/><path class="cls-6" d="M608.48,142.53a1.73,1.73,0,0,0,.1-.24l0-.29Z" transform="translate(0 23.76)"/><path class="cls-2" d="M613.88,142.84a9.15,9.15,0,0,0-1.13,1.42A1.66,1.66,0,0,0,613.88,142.84Z" transform="translate(0 23.76)"/><path class="cls-6" d="M613.88,142.84a9.15,9.15,0,0,0-1.13,1.42A1.66,1.66,0,0,0,613.88,142.84Z" transform="translate(0 23.76)"/><path class="cls-2" d="M614.35,152.35c.3.18.58-.12,1-.09C615.19,151.72,614.81,151.65,614.35,152.35Z" transform="translate(0 23.76)"/><path class="cls-6" d="M614.35,152.35c.3.18.58-.12,1-.09C615.19,151.72,614.81,151.65,614.35,152.35Z" transform="translate(0 23.76)"/><polygon class="cls-2" points="613.34 157.44 613.86 159.09 613.61 157.88 613.34 157.44"/><polygon class="cls-6" points="613.34 157.44 613.86 159.09 613.61 157.88 613.34 157.44"/><path class="cls-2" d="M612.2,125.27c.62.36,1,.8.42,1.66-.47-.78-.83-.93-1.17-.86l-.18.16s0-.06,0-.08c-.44.21-.88.67-1.52.65a2.22,2.22,0,0,0,.12.66l1.47,3.6c.31-.23.89-.12,1.47-.05l-1.83-3.26h.19a.24.24,0,0,0,.11-.06l-.08.06,1.64,3.26h.09c-.65-1.27,0-1.91-.81-2.74,1.1-.61.22.49,1.3-.12l-.68-1.07c.37-.71.8.84,1.23-.26a1.61,1.61,0,0,1-.56-2.06l.26.3c-.21-.73.5-1.62-1.14-1.53l1.75-.57-1.09,0c1-1.82,3.63-2,3.13-4.61-.51.49-.89-.16-1-.51-1.07.83.33,1.4.2,2.36-1.08-.06-1.84-2-2.81-.92,1.63-1,.67-2.48,3.42-2.38.66-1.46-.3-2.36.86-3.73l.37.16c-1.57-.8,1.23-1,0-2.66l-.71.69c-.67-.26-.52-.66-.4-1.25.23.15.23.15.63.08-1.12-.56-.57-2.38-.78-2.72-.58.65,0,1.91,0,2.86-.52-.66-1.58-.87-1.05-1.54-1.77.71-1.72,2.63-2.51,4-.31,2.79,2.69,1.12,2,3.58l-2.57-1.12c-.72,2.5-2.45,6-.5,8.49-.39.13-.92.51-1.16-.19-.15.83.76,1.18,1.55,1.57a2.56,2.56,0,0,0,.39,0A.29.29,0,0,1,612.2,125.27Z" transform="translate(0 23.76)"/><path class="cls-6" d="M612.2,125.27c.62.36,1,.8.42,1.66-.47-.78-.83-.93-1.17-.86l-.18.16s0-.06,0-.08c-.44.21-.88.67-1.52.65a2.22,2.22,0,0,0,.12.66l1.47,3.6c.31-.23.89-.12,1.47-.05l-1.83-3.26h.19a.24.24,0,0,0,.11-.06l-.08.06,1.64,3.26h.09c-.65-1.27,0-1.91-.81-2.74,1.1-.61.22.49,1.3-.12l-.68-1.07c.37-.71.8.84,1.23-.26a1.61,1.61,0,0,1-.56-2.06l.26.3c-.21-.73.5-1.62-1.14-1.53l1.75-.57-1.09,0c1-1.82,3.63-2,3.13-4.61-.51.49-.89-.16-1-.51-1.07.83.33,1.4.2,2.36-1.08-.06-1.84-2-2.81-.92,1.63-1,.67-2.48,3.42-2.38.66-1.46-.3-2.36.86-3.73l.37.16c-1.57-.8,1.23-1,0-2.66l-.71.69c-.67-.26-.52-.66-.4-1.25.23.15.23.15.63.08-1.12-.56-.57-2.38-.78-2.72-.58.65,0,1.91,0,2.86-.52-.66-1.58-.87-1.05-1.54-1.77.71-1.72,2.63-2.51,4-.31,2.79,2.69,1.12,2,3.58l-2.57-1.12c-.72,2.5-2.45,6-.5,8.49-.39.13-.92.51-1.16-.19-.15.83.76,1.18,1.55,1.57a2.56,2.56,0,0,0,.39,0A.29.29,0,0,1,612.2,125.27Z" transform="translate(0 23.76)"/><path class="cls-2" d="M614.1,125.65l-.48-.57A.82.82,0,0,0,614.1,125.65Z" transform="translate(0 23.76)"/><path class="cls-6" d="M614.1,125.65l-.48-.57A.82.82,0,0,0,614.1,125.65Z" transform="translate(0 23.76)"/><path class="cls-2" d="M624.94,90.39c-.83.09-.61.93-.92,1.49,1.63-1,1.23,1,1.56,1.39-.87.26-.86,1.85-1.55,1l-.16-1.61a33.33,33.33,0,0,0-7.43,11.3l1-1.65c.62.55.24,1.35.26,2.1l2.24,0c-.39.4-.36.95-1,.62.46.89,1.07.84,1.87.79-.31,1.27-1.07,1.2-.31,2.54,2.41-1.26-.47-2.13,2-3.69l-2.06-1.78c.79-.76.8.71,1.8.15-.2-1.29-2.22.22-2.82-1.25,1-.21.44-1.72.66-2.12a3.75,3.75,0,0,0,2.36,1.35c-.2-.58,1-.92,1.44-1.44-1.84.85.29-1.49-1.53-.82A1.51,1.51,0,0,1,623,96.3c.55.43.12.79-.11,1.16.93,1,1.21-.51,2.38,0C624.6,95.12,628.18,91.11,624.94,90.39Z" transform="translate(0 23.76)"/><path class="cls-6" d="M624.94,90.39c-.83.09-.61.93-.92,1.49,1.63-1,1.23,1,1.56,1.39-.87.26-.86,1.85-1.55,1l-.16-1.61a33.33,33.33,0,0,0-7.43,11.3l1-1.65c.62.55.24,1.35.26,2.1l2.24,0c-.39.4-.36.95-1,.62.46.89,1.07.84,1.87.79-.31,1.27-1.07,1.2-.31,2.54,2.41-1.26-.47-2.13,2-3.69l-2.06-1.78c.79-.76.8.71,1.8.15-.2-1.29-2.22.22-2.82-1.25,1-.21.44-1.72.66-2.12a3.75,3.75,0,0,0,2.36,1.35c-.2-.58,1-.92,1.44-1.44-1.84.85.29-1.49-1.53-.82A1.51,1.51,0,0,1,623,96.3c.55.43.12.79-.11,1.16.93,1,1.21-.51,2.38,0C624.6,95.12,628.18,91.11,624.94,90.39Z" transform="translate(0 23.76)"/><polygon class="cls-2" points="618.58 131.45 619.18 131.39 618.48 130.54 618.58 131.45"/><polygon class="cls-6" points="618.58 131.45 619.18 131.39 618.48 130.54 618.58 131.45"/><path class="cls-2" d="M615.49,105.23c.42.14.45.52.86.66C617.1,105,616.49,104.9,615.49,105.23Z" transform="translate(0 23.76)"/><path class="cls-6" d="M615.49,105.23c.42.14.45.52.86.66C617.1,105,616.49,104.9,615.49,105.23Z" transform="translate(0 23.76)"/><path class="cls-2" d="M626.13,96.42l.55-1.26-.84.47A.75.75,0,0,1,626.13,96.42Z" transform="translate(0 23.76)"/><path class="cls-6" d="M626.13,96.42l.55-1.26-.84.47A.75.75,0,0,1,626.13,96.42Z" transform="translate(0 23.76)"/><path class="cls-2" d="M628.81,85.8c-1.34,1.55-1.2,2.82-3.5,3.83.25,1.66,2.15,1.16,2.72,2.27.93-.6-.77-1.92-.29-3,1.1.44,1-1.41,2-2A1.67,1.67,0,0,1,628.81,85.8Z" transform="translate(0 23.76)"/><path class="cls-6" d="M628.81,85.8c-1.34,1.55-1.2,2.82-3.5,3.83.25,1.66,2.15,1.16,2.72,2.27.93-.6-.77-1.92-.29-3,1.1.44,1-1.41,2-2A1.67,1.67,0,0,1,628.81,85.8Z" transform="translate(0 23.76)"/><path class="cls-2" d="M636.61,84.46c.68-.52.87-1.75,1.72-1.75a.85.85,0,0,1-.44,1.31c1.19,1.08.59-.8,1.94-.47-.16-.1-.59-.12-.57-.55,2.08-1,.32-1.9,3.31-2.75.15-.61.52-.84-.05-1.71,2.09.24,1.36.66,3.63.72A17.88,17.88,0,0,1,644,76.64c3.39.19,2.59-1.71,4.82-1.27-.17.16-.27.59-.78.64.91,1.62,1.25-1,2.35-1.08l.43,1.53c.75-.55,1.95-2.27,3.36-1.48l0,.85c1.84-2,4.68-2.19,6.53-3.27l1.18.74c2.55-1.85-2.76.07-1.1-2.78.69,2.89,1.3-1.32,3.05-.46.84,1-1.53.93-.57,2.11.18-1.58.78-.6,1.57-1.2-.07,1.46,1.74-.11,1.33,1.61.9-1,1.83-2.1,2.81-3.11.49.76,1.33.52,2,.27-1.6.13.5-2.22-1.34-2.71A41,41,0,0,1,659,69.47c0,2-2.13.57-2.35,2.3-.19-.59-.55-1-.75-1.64-2,1.09.72.89.34,1.76-.86.52-1.84-.34-1.93-1.06-1.55.42-.05.58-.56,1.86L652.25,71c-4.71,2.45-9.78,6.88-15,9.33l1.09.82c-2.52,1-1.55,4.87-5,4.22l.17,1.34c-.1-.75-1.65-1.16-1.73-2.27-.25.79-1.12,1-1.38,1.77l1.37-.45c.1,1.44-1.07,1.62-2,1.15-.46,2.26,2.42.8,3.45,1.34.21-2.42,1.73-1.57,3.05-1.47.57-.58,1.15-1.14,1.75-1.67C637.75,84.68,636.88,84.89,636.61,84.46Z" transform="translate(0 23.76)"/><path class="cls-6" d="M636.61,84.46c.68-.52.87-1.75,1.72-1.75a.85.85,0,0,1-.44,1.31c1.19,1.08.59-.8,1.94-.47-.16-.1-.59-.12-.57-.55,2.08-1,.32-1.9,3.31-2.75.15-.61.52-.84-.05-1.71,2.09.24,1.36.66,3.63.72A17.88,17.88,0,0,1,644,76.64c3.39.19,2.59-1.71,4.82-1.27-.17.16-.27.59-.78.64.91,1.62,1.25-1,2.35-1.08l.43,1.53c.75-.55,1.95-2.27,3.36-1.48l0,.85c1.84-2,4.68-2.19,6.53-3.27l1.18.74c2.55-1.85-2.76.07-1.1-2.78.69,2.89,1.3-1.32,3.05-.46.84,1-1.53.93-.57,2.11.18-1.58.78-.6,1.57-1.2-.07,1.46,1.74-.11,1.33,1.61.9-1,1.83-2.1,2.81-3.11.49.76,1.33.52,2,.27-1.6.13.5-2.22-1.34-2.71A41,41,0,0,1,659,69.47c0,2-2.13.57-2.35,2.3-.19-.59-.55-1-.75-1.64-2,1.09.72.89.34,1.76-.86.52-1.84-.34-1.93-1.06-1.55.42-.05.58-.56,1.86L652.25,71c-4.71,2.45-9.78,6.88-15,9.33l1.09.82c-2.52,1-1.55,4.87-5,4.22l.17,1.34c-.1-.75-1.65-1.16-1.73-2.27-.25.79-1.12,1-1.38,1.77l1.37-.45c.1,1.44-1.07,1.62-2,1.15-.46,2.26,2.42.8,3.45,1.34.21-2.42,1.73-1.57,3.05-1.47.57-.58,1.15-1.14,1.75-1.67C637.75,84.68,636.88,84.89,636.61,84.46Z" transform="translate(0 23.76)"/><path class="cls-2" d="M670.92,69.74a3,3,0,0,0,.71-.14C671.89,69.24,671.49,69.51,670.92,69.74Z" transform="translate(0 23.76)"/><path class="cls-6" d="M670.92,69.74a3,3,0,0,0,.71-.14C671.89,69.24,671.49,69.51,670.92,69.74Z" transform="translate(0 23.76)"/><path class="cls-2" d="M629.7,86.87h0s0,0,0,0Z" transform="translate(0 23.76)"/><path class="cls-6" d="M629.7,86.87h0s0,0,0,0Z" transform="translate(0 23.76)"/><path class="cls-2" d="M631.07,89.22V90c.16-.16.34-.3.51-.45Z" transform="translate(0 23.76)"/><path class="cls-6" d="M631.07,89.22V90c.16-.16.34-.3.51-.45Z" transform="translate(0 23.76)"/><path class="cls-2" d="M677.7,71.33l.13-.73A1.38,1.38,0,0,0,677.7,71.33Z" transform="translate(0 23.76)"/><path class="cls-6" d="M677.7,71.33l.13-.73A1.38,1.38,0,0,0,677.7,71.33Z" transform="translate(0 23.76)"/><path class="cls-2" d="M693.65,76.58l-.22-.23C693.43,76.5,693.53,76.55,693.65,76.58Z" transform="translate(0 23.76)"/><path class="cls-6" d="M693.65,76.58l-.22-.23C693.43,76.5,693.53,76.55,693.65,76.58Z" transform="translate(0 23.76)"/><path class="cls-2" d="M674.22,116.19l0-.21h-.5A1.65,1.65,0,0,0,674.22,116.19Z" transform="translate(0 23.76)"/><path class="cls-2" d="M691,99.08c.31,1.45.55,3,.74,4.55A2.83,2.83,0,0,0,692,103l-.75-4Z" transform="translate(0 23.76)"/><path class="cls-6" d="M691,99.08c.31,1.45.55,3,.74,4.55A2.83,2.83,0,0,0,692,103l-.75-4Z" transform="translate(0 23.76)"/><path class="cls-2" d="M701.35,89.84c-1.71-.67-.38-1.78-1.18-2.94-.1.28-.86,1.56-1.33.59.39-1.1.14-1.58-.26-2a3.83,3.83,0,0,1-1.18-1.58c2.1-1.35.11,1.93,1.75,0,1.07,1.2.8,2.28,2.18,3.21A7.46,7.46,0,0,0,700,80.67c-.07-1.22,1.17.22,1.06-.75.14-1.25-.73-1.81-1.54-2.19s-1.63-.6-1.7-1.54l1.12-.41c-.91,0-1.37-.73-2-1.58a4,4,0,0,0-2.44-2c-.13.6-.24,1-.66,1.18.87-1.16.07-1.26-1-1.22s-2.3.17-2.72-1.09c-.66,1.7-2.66,2-3.75,1.94a2.71,2.71,0,0,1,.34-1.69c1.34,1.47,2.41-1.28,4.24-1.57a4.39,4.39,0,0,1-2.37-.28,2.85,2.85,0,0,0-2.34.16l.89-1.22c-1.68-.63-2.49,2.66-3.85,1l.46-1c-3.58-.52-7.94-2.45-11.13,0-.29.84,1,2.71,1,3.36,1.72-.76,2.89-2.22,4.34-2.85l-.26,1.56c.45-1.07,2.19-1.6,1.45-2.5,1.27-.7.55,1.45,2,.69-.48,1.62-1.24,1.72-1.54,3.08l1.2-.7c-.46.59.49.63,0,1.23,2.38-1.69,2.35,1.16,4.44.74-.31-.2-.62-.37-.94-.54.31-.89.89-.68,1.43-.8,0,1.39.42,1.29,1.13,2.1,1-.41,2.23-1.85,3.32-1.4-1.06,1.54,1.43,1.62.71,3,1.12-1.51,2,.36,2.67-.34.69,0,1.15.73.43,1.42a3.39,3.39,0,0,1-.49,0l.32.4c-.19.12-.29.24-.35.22.27.34,1.28-.58,1,.49-.38.31-.55.06-.87,0,.25.54,1.12.45,1.82.59s1.29.41.84,1.28c.84-.27,1.5,1.16,3.12.07-.49.74-1.89,1.14-1.37,2.14,1.69.21-.32,1.41.73,2.06-1.72-.84-.45,0-2.1-.56-.28.41.14.73.54,1.2a1.74,1.74,0,0,1,.61,1.73c-.39.12-.85.1-1.24.2.5.44,1.56,1.23.19,1.46l1.07.15a9.72,9.72,0,0,0-1,1.4,3,3,0,0,1-1.62,1.21,21.88,21.88,0,0,1,1.13,2c-2.77.53-2.53,3.37-2.14,5.71-.52.51-1.5,1.09-1.83.79,0-.21-.06-.61-.06-1a11.31,11.31,0,0,1-1.2.79l.75,4c.28,1.58.66-1.51,1.47-.24-.94-1.21.16-1.89,1.15-2.69s1.88-1.7.42-2.92c2.27-1.26-.14-.19,2.17-1.9.37.22.11.61.07.8,1.31-.52-.49-2.19,1.52-2.11,1.37-1.78-.74-.81-1.06-2.32C699.12,89.83,699.31,90.62,701.35,89.84Z" transform="translate(0 23.76)"/><path class="cls-6" d="M701.35,89.84c-1.71-.67-.38-1.78-1.18-2.94-.1.28-.86,1.56-1.33.59.39-1.1.14-1.58-.26-2a3.83,3.83,0,0,1-1.18-1.58c2.1-1.35.11,1.93,1.75,0,1.07,1.2.8,2.28,2.18,3.21A7.46,7.46,0,0,0,700,80.67c-.07-1.22,1.17.22,1.06-.75.14-1.25-.73-1.81-1.54-2.19s-1.63-.6-1.7-1.54l1.12-.41c-.91,0-1.37-.73-2-1.58a4,4,0,0,0-2.44-2c-.13.6-.24,1-.66,1.18.87-1.16.07-1.26-1-1.22s-2.3.17-2.72-1.09c-.66,1.7-2.66,2-3.75,1.94a2.71,2.71,0,0,1,.34-1.69c1.34,1.47,2.41-1.28,4.24-1.57a4.39,4.39,0,0,1-2.37-.28,2.85,2.85,0,0,0-2.34.16l.89-1.22c-1.68-.63-2.49,2.66-3.85,1l.46-1c-3.58-.52-7.94-2.45-11.13,0-.29.84,1,2.71,1,3.36,1.72-.76,2.89-2.22,4.34-2.85l-.26,1.56c.45-1.07,2.19-1.6,1.45-2.5,1.27-.7.55,1.45,2,.69-.48,1.62-1.24,1.72-1.54,3.08l1.2-.7c-.46.59.49.63,0,1.23,2.38-1.69,2.35,1.16,4.44.74-.31-.2-.62-.37-.94-.54.31-.89.89-.68,1.43-.8,0,1.39.42,1.29,1.13,2.1,1-.41,2.23-1.85,3.32-1.4-1.06,1.54,1.43,1.62.71,3,1.12-1.51,2,.36,2.67-.34.69,0,1.15.73.43,1.42a3.39,3.39,0,0,1-.49,0l.32.4c-.19.12-.29.24-.35.22.27.34,1.28-.58,1,.49-.38.31-.55.06-.87,0,.25.54,1.12.45,1.82.59s1.29.41.84,1.28c.84-.27,1.5,1.16,3.12.07-.49.74-1.89,1.14-1.37,2.14,1.69.21-.32,1.41.73,2.06-1.72-.84-.45,0-2.1-.56-.28.41.14.73.54,1.2a1.74,1.74,0,0,1,.61,1.73c-.39.12-.85.1-1.24.2.5.44,1.56,1.23.19,1.46l1.07.15a9.72,9.72,0,0,0-1,1.4,3,3,0,0,1-1.62,1.21,21.88,21.88,0,0,1,1.13,2c-2.77.53-2.53,3.37-2.14,5.71-.52.51-1.5,1.09-1.83.79,0-.21-.06-.61-.06-1a11.31,11.31,0,0,1-1.2.79l.75,4c.28,1.58.66-1.51,1.47-.24-.94-1.21.16-1.89,1.15-2.69s1.88-1.7.42-2.92c2.27-1.26-.14-.19,2.17-1.9.37.22.11.61.07.8,1.31-.52-.49-2.19,1.52-2.11,1.37-1.78-.74-.81-1.06-2.32C699.12,89.83,699.31,90.62,701.35,89.84Z" transform="translate(0 23.76)"/><path class="cls-2" d="M693.31,96.6l-1.64.22.84.5A.91.91,0,0,1,693.31,96.6Z" transform="translate(0 23.76)"/><path class="cls-6" d="M693.31,96.6l-1.64.22.84.5A.91.91,0,0,1,693.31,96.6Z" transform="translate(0 23.76)"/><path class="cls-2" d="M692.51,97.32a2.72,2.72,0,0,0-.08.82.94.94,0,0,0,.3-.69Z" transform="translate(0 23.76)"/><path class="cls-6" d="M692.51,97.32a2.72,2.72,0,0,0-.08.82.94.94,0,0,0,.3-.69Z" transform="translate(0 23.76)"/><path class="cls-2" d="M668.59,117.56l.41-.17c-.27,3.16-1.09-.2-2.63,1.74.17-1.3,1-1.62,1.12-2.35-2.77-1.14-2.67,2.84-4.83.69l.14-.14c-.39-.15-.83.57-1.27,1,.24.3.77.31,1.17.46-.44.42-.41,1.72-.47,2.29-.86-1-.65.86-1.73.53-.55-1,.57-1.27.77-2l-.94,1.12c-1,.38-1.24-1-1.84-1.43-.69,1.11.61.48.13,1.9-1.29-1-5.62.24-7.57,2a.69.69,0,0,1-.2.17l.2-.17c.35-.44-.1-1.14.73-1.23-.39-.15-1.41.81-1.21,1.68a5.62,5.62,0,0,1-4.91,1.09l.63.73c-.85,1.86-3.26,0-5.26,1.41h.05c-.65.37-1,2.71-2.46,2.54.3-1.16,1-1.22.82-2.27-.6.61-1.23,1.22-1.9,1.8-.44-.63-2.52.52-1.87-.82-1.1,1.86-3.63.49-2.68,2.85,1.45-.39,2.92-.63,4.68-.93a46.33,46.33,0,0,0,5.48-1.3,33.86,33.86,0,0,0,9.58-4.56l-.75,1.24a3.52,3.52,0,0,1,3.46-1.12c1,0,2.18-.15,3.21-2.41l0,2c1.73.09,2.46-3.63,4.52-2.17l-.35-.72c.43-.14.68.15,1.12,0l-.26-.29a2.79,2.79,0,0,1,2.85-1.23c.26.57-.43.46-.73.75.69.41,1.17-1.2,2-1.53.83.22.27.83.26,1.12,2.2-1.85,4.06-.62,4.74-3.91H669.9C669.47,116.47,669.06,117,668.59,117.56Z" transform="translate(0 23.76)"/><path class="cls-6" d="M668.59,117.56l.41-.17c-.27,3.16-1.09-.2-2.63,1.74.17-1.3,1-1.62,1.12-2.35-2.77-1.14-2.67,2.84-4.83.69l.14-.14c-.39-.15-.83.57-1.27,1,.24.3.77.31,1.17.46-.44.42-.41,1.72-.47,2.29-.86-1-.65.86-1.73.53-.55-1,.57-1.27.77-2l-.94,1.12c-1,.38-1.24-1-1.84-1.43-.69,1.11.61.48.13,1.9-1.29-1-5.62.24-7.57,2a.69.69,0,0,1-.2.17l.2-.17c.35-.44-.1-1.14.73-1.23-.39-.15-1.41.81-1.21,1.68a5.62,5.62,0,0,1-4.91,1.09l.63.73c-.85,1.86-3.26,0-5.26,1.41h.05c-.65.37-1,2.71-2.46,2.54.3-1.16,1-1.22.82-2.27-.6.61-1.23,1.22-1.9,1.8-.44-.63-2.52.52-1.87-.82-1.1,1.86-3.63.49-2.68,2.85,1.45-.39,2.92-.63,4.68-.93a46.33,46.33,0,0,0,5.48-1.3,33.86,33.86,0,0,0,9.58-4.56l-.75,1.24a3.52,3.52,0,0,1,3.46-1.12c1,0,2.18-.15,3.21-2.41l0,2c1.73.09,2.46-3.63,4.52-2.17l-.35-.72c.43-.14.68.15,1.12,0l-.26-.29a2.79,2.79,0,0,1,2.85-1.23c.26.57-.43.46-.73.75.69.41,1.17-1.2,2-1.53.83.22.27.83.26,1.12,2.2-1.85,4.06-.62,4.74-3.91H669.9C669.47,116.47,669.06,117,668.59,117.56Z" transform="translate(0 23.76)"/><path class="cls-2" d="M651.05,123.22l-.2.17A.69.69,0,0,0,651.05,123.22Z" transform="translate(0 23.76)"/><path class="cls-6" d="M651.05,123.22l-.2.17A.69.69,0,0,0,651.05,123.22Z" transform="translate(0 23.76)"/><path class="cls-2" d="M630.87,131.38c.53-.32,1.23.16,1.33-.58-.09-.17-.08-.62-.43-.41l.71-1.35C631.71,128.85,630.72,130.57,630.87,131.38Z" transform="translate(0 23.76)"/><path class="cls-6" d="M630.87,131.38c.53-.32,1.23.16,1.33-.58-.09-.17-.08-.62-.43-.41l.71-1.35C631.71,128.85,630.72,130.57,630.87,131.38Z" transform="translate(0 23.76)"/><path class="cls-2" d="M608.42,133.74h.21a2.68,2.68,0,0,1-.18-.63Z" transform="translate(0 23.76)"/><path class="cls-6" d="M608.42,133.74h.21a2.68,2.68,0,0,1-.18-.63Z" transform="translate(0 23.76)"/><path class="cls-2" d="M610.68,132.19c.31.37.31,1,.55,1.38l.67,0a1.1,1.1,0,0,1,1.11-.91c.06-.15.11-.2.2,0l-.2,0c-.06.16-.12.46-.21.78,2-.3,3.7-1.07,5.13-1.28-.32.36-.2.81-.33,1.19,2.07-.48,3.49-1.11,4.28-1.19a5.28,5.28,0,0,1,.66,0c.34,0,.66,0,1,.06a2.78,2.78,0,0,1,1.34.43c1,.32,1.34-1.6,2.67-2.14l.55,1.24c.74-.86,2.89.34,2.16-1.7-.08-.17-.64,1.05-1.25.73l.12-.73-1.4.36.48-1c-1.83-1.16-1.46,2.84-3.77,2.11l.14-1.83c-.78,0-1.37.14-1.93.16a2,2,0,0,1-1.42-.51s.05.9.23.5c.24.06.48.77.36,1.33-.75.82-.75.57-.65,0s.28-1.42-.47-1.64a9.15,9.15,0,0,1-3.73,2.25c-1.69.53-3.65.2-4.11-.7l0,0h0l0,.08a.86.86,0,0,1-.48,1.32l-.4.19-.63-1.54c-.06,0-.13.07-.16.15.09-1.23-1.15-.49-1.88-.56.22-.92-.31-2.86-.2-4.32l.13.35a1.55,1.55,0,0,0,.52.12,3.36,3.36,0,0,1,.37-1.69c.76-.21.82.59,1.15,1a.63.63,0,0,1,.23-.08c.35-.31.69-.52.75-.8l-.37-.19a2.38,2.38,0,0,1-1.17-.37c-.45-.28-.82-.66-1.14-.65s-.29,0-.43.57a14,14,0,0,0-.36,2.58l-.25,5.22C609.49,132.17,609.85,133.36,610.68,132.19Z" transform="translate(0 23.76)"/><path class="cls-6" d="M610.68,132.19c.31.37.31,1,.55,1.38l.67,0a1.1,1.1,0,0,1,1.11-.91c.06-.15.11-.2.2,0l-.2,0c-.06.16-.12.46-.21.78,2-.3,3.7-1.07,5.13-1.28-.32.36-.2.81-.33,1.19,2.07-.48,3.49-1.11,4.28-1.19a5.28,5.28,0,0,1,.66,0c.34,0,.66,0,1,.06a2.78,2.78,0,0,1,1.34.43c1,.32,1.34-1.6,2.67-2.14l.55,1.24c.74-.86,2.89.34,2.16-1.7-.08-.17-.64,1.05-1.25.73l.12-.73-1.4.36.48-1c-1.83-1.16-1.46,2.84-3.77,2.11l.14-1.83c-.78,0-1.37.14-1.93.16a2,2,0,0,1-1.42-.51s.05.9.23.5c.24.06.48.77.36,1.33-.75.82-.75.57-.65,0s.28-1.42-.47-1.64a9.15,9.15,0,0,1-3.73,2.25c-1.69.53-3.65.2-4.11-.7l0,0h0l0,.08a.86.86,0,0,1-.48,1.32l-.4.19-.63-1.54c-.06,0-.13.07-.16.15.09-1.23-1.15-.49-1.88-.56.22-.92-.31-2.86-.2-4.32l.13.35a1.55,1.55,0,0,0,.52.12,3.36,3.36,0,0,1,.37-1.69c.76-.21.82.59,1.15,1a.63.63,0,0,1,.23-.08c.35-.31.69-.52.75-.8l-.37-.19a2.38,2.38,0,0,1-1.17-.37c-.45-.28-.82-.66-1.14-.65s-.29,0-.43.57a14,14,0,0,0-.36,2.58l-.25,5.22C609.49,132.17,609.85,133.36,610.68,132.19Z" transform="translate(0 23.76)"/><path class="cls-2" d="M611.9,133.53h0a8.48,8.48,0,0,0,.88-.13c.09-.32.15-.62.21-.78A1.1,1.1,0,0,0,611.9,133.53Z" transform="translate(0 23.76)"/><path class="cls-6" d="M611.9,133.53h0a8.48,8.48,0,0,0,.88-.13c.09-.32.15-.62.21-.78A1.1,1.1,0,0,0,611.9,133.53Z" transform="translate(0 23.76)"/><path class="cls-2" d="M610.68,132.19c-.83,1.17-1.19,0-2.2.24l0,.67a2.68,2.68,0,0,0,.18.63l2.6-.16C611,133.16,611,132.56,610.68,132.19Z" transform="translate(0 23.76)"/><path class="cls-6" d="M610.68,132.19c-.83,1.17-1.19,0-2.2.24l0,.67a2.68,2.68,0,0,0,.18.63l2.6-.16C611,133.16,611,132.56,610.68,132.19Z" transform="translate(0 23.76)"/><path class="cls-2" d="M613,132.62l.2,0C613.12,132.42,613.07,132.47,613,132.62Z" transform="translate(0 23.76)"/><path class="cls-6" d="M613,132.62l.2,0C613.12,132.42,613.07,132.47,613,132.62Z" transform="translate(0 23.76)"/><path class="cls-2" d="M612.22,125.11a2.56,2.56,0,0,1-.39,0l.37.19A.29.29,0,0,0,612.22,125.11Z" transform="translate(0 23.76)"/><path class="cls-6" d="M612.22,125.11a2.56,2.56,0,0,1-.39,0l.37.19A.29.29,0,0,0,612.22,125.11Z" transform="translate(0 23.76)"/><path class="cls-2" d="M611.23,127.7a.24.24,0,0,1-.11.06h-.19l1.83,3.26h0l-1.64-3.26Z" transform="translate(0 23.76)"/><path class="cls-6" d="M611.23,127.7a.24.24,0,0,1-.11.06h-.19l1.83,3.26h0l-1.64-3.26Z" transform="translate(0 23.76)"/><path class="cls-2" d="M611.45,126.07a.63.63,0,0,0-.23.08s0,.06,0,.08Z" transform="translate(0 23.76)"/><path class="cls-6" d="M611.45,126.07a.63.63,0,0,0-.23.08s0,.06,0,.08Z" transform="translate(0 23.76)"/><path class="cls-2" d="M609.7,126.8a1.55,1.55,0,0,1-.52-.12l-.13-.35c-.11,1.46.42,3.4.2,4.32.73.07,2-.67,1.88.56,0-.08.1-.11.16-.15l-1.47-3.6A2.22,2.22,0,0,1,609.7,126.8Z" transform="translate(0 23.76)"/><path class="cls-6" d="M609.7,126.8a1.55,1.55,0,0,1-.52-.12l-.13-.35c-.11,1.46.42,3.4.2,4.32.73.07,2-.67,1.88.56,0-.08.1-.11.16-.15l-1.47-3.6A2.22,2.22,0,0,1,609.7,126.8Z" transform="translate(0 23.76)"/><path class="cls-2" d="M617,133.83c.4-.12.56-.31.62-.52a12,12,0,0,1-1.52.25Z" transform="translate(0 23.76)"/><path class="cls-6" d="M617,133.83c.4-.12.56-.31.62-.52a12,12,0,0,1-1.52.25Z" transform="translate(0 23.76)"/><path class="cls-3" d="M652.46,206.78c25.48,0,41.76-6.73,54-24.6l-16.7-12.89c-7.38,10.84-17.67,16.4-36.71,16.4-24.25,0-34.24-18.05-32.7-41.5l-23.73,9.34C597.45,186.62,617.56,206.78,652.46,206.78Z" transform="translate(0 23.76)"/><polygon class="cls-3" points="491.27 26.11 464.91 26.11 461.94 52.47 471.33 52.47 489.09 45.47 491.27 26.11"/><path class="cls-3" d="M396.62,140.59c-2.8,24.89-17.67,45.1-42.57,45.1-18.61,0-28.32-9.5-31.61-23.68l-27.88,11L291,204.44h23.43l1.45-12.89c6.76,10.25,18.5,15.23,38.12,15.23,39.83,0,61.75-28.12,66-66.19l2-17.82-24.52,9.66Z" transform="translate(0 23.76)"/><polygon class="cls-3" points="128.98 26.11 103.79 26.11 72.29 48.37 69.19 75.9 100.53 55.1 93.4 118.42 119.75 108.03 128.98 26.11"/><path class="cls-3" d="M558.42,204.44H571l2.51-22.26H561.8c-10.49,0-15.74-2.46-18-7.82l-24,9.45C523.6,197.68,535,204.44,558.42,204.44Z" transform="translate(0 23.76)"/><polygon class="cls-3" points="81.03 228.2 106.22 228.2 112.4 173.31 86.04 183.69 81.03 228.2"/><path class="cls-3" d="M222.38,0c-31.63,0-60.33,20.8-64.09,54.19h24.89c2.93-20.8,18.5-31.64,36.66-31.64,10.41,0,20.12,4.1,25.39,12.3l24.2-9.54C261.18,9.12,243.71,0,222.38,0Z" transform="translate(0 23.76)"/><path class="cls-3" d="M371.05,55.65c-19.34,0-32.62,6.15-41.75,17l7.92-70.3H313.79L303.36,94.86l90.06-35.47A63.07,63.07,0,0,0,371.05,55.65Z" transform="translate(0 23.76)"/><polygon class="cls-3" points="443.61 228.2 467.04 228.2 478.75 124.2 454.24 133.86 443.61 228.2"/><path class="cls-3" d="M237.05,114.23c6.07-6.45,13-13.56,19.27-21.38L209.73,111.2l-69.22,72.15-2.37,21.09H256.76l2.57-22.85H173.81Z" transform="translate(0 23.76)"/><path class="cls-3" d="M664.79,55.65c-25.66,0-44.13,10.76-55,30.32L682,57.54A73.41,73.41,0,0,0,664.79,55.65Z" transform="translate(0 23.76)"/><path class="cls-3" d="M692.27,115.87V116H692l-52.05,20.5h73.76l1.72-15.23a116.32,116.32,0,0,0,.76-14.8Z" transform="translate(0 23.76)"/><polygon class="cls-3" points="551.45 102.84 585.13 102.84 587.51 81.76 553.83 81.76 557.46 49.54 534.02 49.54 530.39 81.76 511.65 81.76 509.27 102.84 528.02 102.84 523.41 143.77 547.93 134.11 551.45 102.84"/></g></g></svg>