<svg xmlns="http://www.w3.org/2000/svg" xmlns:xlink="http://www.w3.org/1999/xlink" viewBox="0 0 339.11 141.53"><defs><style>.cls-1{fill:url(#名称未設定グラデーション_10);}.cls-2{opacity:0.6;}.cls-3{fill:#888;}</style><linearGradient id="名称未設定グラデーション_10" y1="60.64" x2="339.11" y2="60.64" gradientUnits="userSpaceOnUse"><stop offset="0" stop-color="#55c8ff"/><stop offset="1" stop-color="#e14a95"/></linearGradient></defs><title>azami</title><g id="レイヤー_2" data-name="レイヤー 2"><g id="レイヤー_1-2" data-name="レイヤー 1"><path class="cls-1" d="M141.66,23.52a.45.45,0,0,1,0-.9h10.51c0,.3,0,.6,0,.9Zm15.92-9.6a8,8,0,0,1,.77-.4L152.74,3.26a.42.42,0,0,0-.59-.17.48.48,0,0,0-.16.62Zm3.33-1.19c.28,0,.57-.08.86-.1l-2-11.91a.44.44,0,0,0-.5-.37.45.45,0,0,0-.35.52Zm-1.7.44c.27-.09.54-.18.82-.25L156.15,1.66a.43.43,0,0,0-.55-.27.46.46,0,0,0-.25.58Zm-17.3,6.42,10.4,1.94c.06-.3.12-.6.2-.89L142.06,18.7a.43.43,0,0,0-.5.36A.46.46,0,0,0,141.91,19.59Zm.89-3.83,10,3.85c.1-.28.22-.56.34-.83L143.1,14.91a.41.41,0,0,0-.55.27A.46.46,0,0,0,142.8,15.76Zm1.51-3.61,9.34,5.7q.22-.39.48-.75l-9.39-5.73a.4.4,0,0,0-.58.17A.46.46,0,0,0,144.31,12.15Zm10.44,4.14q.28-.35.6-.66l-8.41-7.44a.41.41,0,0,0-.6.05.48.48,0,0,0,0,.64ZM156.08,15q.33-.29.69-.54l-7.13-9a.42.42,0,0,0-.61,0A.46.46,0,0,0,149,6Zm16.25,5,11-4.23a.46.46,0,0,0,.26-.58.42.42,0,0,0-.55-.27l-11,4.24C172.13,19.43,172.24,19.71,172.33,20Zm-.68-1.63,10.18-6.21a.45.45,0,0,0,.16-.61.41.41,0,0,0-.58-.17l-10.2,6.21A8.62,8.62,0,0,1,171.65,18.36Zm1.1,3.37,11.49-2.14a.46.46,0,0,0,.35-.53.43.43,0,0,0-.5-.36l-11.52,2.14C172.64,21.13,172.7,21.43,172.75,21.73Zm-2-4.86,9-8a.47.47,0,0,0,.06-.64.42.42,0,0,0-.61-.05l-9,8Q170.48,16.51,170.73,16.87Zm-3.93-3.29L170.8,2a.46.46,0,0,0-.25-.58.43.43,0,0,0-.55.27l-4,11.58C166.28,13.34,166.54,13.46,166.8,13.58ZM165.19,13l2-12.1a.44.44,0,0,0-.34-.52.43.43,0,0,0-.5.37l-2,12.06A7.68,7.68,0,0,1,165.19,13Zm-1.69-.32V.45a.43.43,0,1,0-.85,0V12.6C162.93,12.61,163.22,12.62,163.5,12.65Zm4.78,1.8,5.87-10.74a.47.47,0,0,0-.15-.62.42.42,0,0,0-.59.17L167.55,14A8.21,8.21,0,0,1,168.28,14.45Zm1.32,1.11L177.17,6a.46.46,0,0,0,0-.63.42.42,0,0,0-.61,0L169,15A7.21,7.21,0,0,1,169.6,15.56Zm14.89,7.06H172.86c0,.3,0,.6,0,.9h11.59a.45.45,0,0,0,0-.9Zm4,25a24.7,24.7,0,0,1-.23,2.69H156.09A3.23,3.23,0,0,1,153,48l-.24-.8v7.82l.24-.8a3.24,3.24,0,0,1,3.1-2.3H188a33.78,33.78,0,0,1-10.71,18.4c8.71-2.71,14.35-6.29,18.35-16.79l-5.12-3.23Zm-12.46,12.6c-2.82,1.19,4.22,26.45-24,42.63,17.42-13.42,18.67-38.67,14.37-47.82C169,57.26,172.89,61.25,176.05,60.25Zm73.42-5.14.24-.79v7.82l-.24-.8a3.24,3.24,0,0,0-3.1-2.31h-7.29V81.77c0,15.52-12.62,11-12.62,23.8,0-15.38,6-10.16,6-23.8V59h-9.6V74.86l-6.64-4.3V59h-6.88a3.24,3.24,0,0,0-3.1,2.31l-.24.8V54.32l.24.79a3.24,3.24,0,0,0,3.1,2.31h6.88V47.65h6.64v9.77h9.6V47.65h6.64v9.77h7.29A3.24,3.24,0,0,0,249.47,55.11Zm21.14-.21-.23.8V47.88l.23.79A3.08,3.08,0,0,0,273.53,51h14.13l20.83,12.08h-9.78l-18-10.47h-7.15A3.08,3.08,0,0,0,270.61,54.9Zm17.13,15L308.57,82H298.8l-18-10.46h-7.15a3.08,3.08,0,0,0-2.92,2.31l-.23.79V66.78l.23.8a3.07,3.07,0,0,0,2.92,2.3h14.13Zm-.08,18.91,20.83,12.08h-9.78l-18-10.46h-7.15a3.07,3.07,0,0,0-2.92,2.3l-.23.8V85.69l.23.8a3.08,3.08,0,0,0,2.92,2.3h14.13Zm-171-1.31a8.74,8.74,0,0,1-1.48,1,37.79,37.79,0,0,1-4.57,2V79.74h7.21l1.55,2,2.13-2h0v0l1.66-1.52h0a7.32,7.32,0,0,1-1.66-4.66V68.06a7.11,7.11,0,0,1,.59-2.83l1.07-2.45-4.32,3.73h-8.27v-8c5.28-2.29,9.82-5.16,11.08-6.81-.65,1-3.69,1-3.87-2.5-1,2.9-6.58,3.59-7.72,3.4-1.49,4.06-8.17,7.7-14,9.34,3.16.21,7.09-.66,10.93-2v6.63H97.89a2,2,0,0,1-1.81-1.19V79.74h0l3.68,2v-1a1,1,0,0,1,1-1H107v12c-5.33,1.53-10.83,2-10.93-2h0C96,92,93.91,93.93,91.8,94.53h0c1,0,4.27,3.3,4.28,5.16h0c3.23,0,13.44-2.08,18.88-7.28a2.33,2.33,0,0,1,3.36.1l7.62,8.51h1.77L116.92,87.28Zm-.44-19.42a1.56,1.56,0,0,1,1.6,1.52v7.09a1.56,1.56,0,0,1-1.6,1.52h-5.61V68.06ZM101.39,78.19a1.56,1.56,0,0,1-1.6-1.52V69.58a1.56,1.56,0,0,1,1.6-1.52H107V78.19ZM256.93,50.52c-2.32,0-4.21-2.57-4.21-5.74l.24,0h-.24c-2.33,0-4.21-2.58-4.22-5.76h0c0,3.07-1.75,5.58-4,5.75h0c2.32,0,4.21,2.58,4.21,5.77h0c2.32,0,4.21,2.59,4.21,5.78,0-3.19,1.88-5.78,4.21-5.78h-.24Zm-8.18,0c0-3.06,1.76-5.56,4-5.73C252.71,47.84,251,50.34,248.75,50.51ZM139.88,96.73l1.73,2.38-.64-.48a3.36,3.36,0,0,0-3.82-.12L132,101.86l-.38-.53-7-9.54h0V48.32H93.65V80.13c-.57,17.56-18.17,6.31-18.17,21.36,0-18.25,11.36-8,11.36-21.36V51.58a5.43,5.43,0,0,0-3-4.81H124.6v-.05l8.73-4.38-1.92,4.38V99.17l.63.85,1.79-1.17,2.85-1.92a2.91,2.91,0,0,0,.82-3.08l-.25-.74L139,95.49ZM331,112.65c-2.32,0-4.21,2.59-4.21,5.77,0-3.18-1.89-5.77-4.21-5.77h0c2.21-.17,4-2.68,4-5.75h0c0,3.18,1.88,5.76,4.21,5.76H331ZM0,37.57H0c2.21-.18,4-2.68,4-5.75H4C4,35,5.86,37.57,8.18,37.57h.24c-2.32,0-4.21,2.58-4.21,5.77C4.21,40.15,2.33,37.57,0,37.57Zm69.4,5.79v7.56l-.27-.77a3.54,3.54,0,0,0-3.42-2.23H46.85l-6.78,3.91H56.21l5.37-2-1.24,1.61A9,9,0,0,0,58.42,57V66.7a5.28,5.28,0,0,0,1.79,3.9h0l-6.64,3.87-2-1.74H40.07a2.67,2.67,0,0,0-2.12,1l-.79,1-5-2V52.62L34.75,50l.08.56a.9.9,0,0,0,1.34.58l5.77-3.25H24.78a3.57,3.57,0,0,0-3.43,2.23l-.26.77V43.36l.26.77a3.57,3.57,0,0,0,3.43,2.23H65.71a3.54,3.54,0,0,0,3.42-2.23ZM51.09,69.84V54.72a1.4,1.4,0,0,0-1.47-1.33H41a1.4,1.4,0,0,0-1.47,1.33V69.84A1.41,1.41,0,0,0,41,71.17h8.61A1.41,1.41,0,0,0,51.09,69.84Zm-5.85-7.91c0-2,1.37-3.67,3.06-3.67h-.17c-1.69,0-3.06-1.64-3.06-3.66h0a3.46,3.46,0,0,1-2.89,3.66h0C43.87,58.26,45.24,59.91,45.24,61.93Zm.18,1.21h0a3.45,3.45,0,0,1-2.88,3.66h0c1.69,0,3.06,1.64,3.06,3.67,0-2,1.37-3.67,3.06-3.67h-.18C46.8,66.81,45.43,65.17,45.42,63.14Zm2.88,20.4h-.2c-1.94,0-3.51-1.88-3.51-4.2h0c0,2.24-1.47,4.07-3.31,4.19h0c1.94,0,3.51,1.89,3.51,4.21C44.79,85.43,46.36,83.54,48.3,83.54Zm10.07-6.13V75.85H29.75c.18,1.56,2.87,1.56,2.87,1.56-.16,8.94-11.53,2.29-11.53,13.76,0-6.83,18.82-1.79,18.45-13.76H52V87.74C44.29,95.35,19.73,83.9,21,101,22.54,81.77,57.4,107.12,58.37,77.41ZM64.44,90c-.95,5-8.35,2.31-9.63,1.43a6.85,6.85,0,0,1-3.31,1.58c8.61,6.81,12.67,5.64,13.32,7.69-.12-2.06.91-5.41,2.53-5.49C65.73,95.33,64.49,91.09,64.44,90ZM317.81,37.57c-1.63,0-2.95,1.81-2.95,4,0-2.23-1.32-4-2.95-4h0c1.55-.12,2.78-1.87,2.78-4h0c0,2.23,1.32,4,2.95,4h.17ZM13.22,115.5c-2.32,0-4.21,2.58-4.21,5.77,0-3.19-1.88-5.77-4.21-5.77h0c2.21-.17,4-2.68,4-5.75h0c0,3.18,1.89,5.76,4.21,5.76h.24Zm-.59-86.14c-1.71,0-3.1,1.9-3.1,4.25,0-2.35-1.38-4.25-3.09-4.25h0c1.62-.13,2.91-2,2.91-4.23h0c0,2.34,1.38,4.24,3.09,4.24h.18Zm326.48,76.21c-1.68,0-3,1.87-3,4.17,0-2.3-1.37-4.17-3.05-4.17h0c1.6-.12,2.87-1.94,2.87-4.16h0c0,2.3,1.37,4.17,3.05,4.17h.17Z"/><g class="cls-2"><path class="cls-3" d="M98.84,124.88c-.48.1-.59.18-.6.67,0,.22,0,.4,0,1.16v2.85H98l-3.24-3.9v1.85c0,.67,0,.88,0,1.12,0,.49.07.62.74.72v.11H93.88v-.11c.55-.08.6-.19.63-.7,0-.26,0-.54,0-1.14v-1.9a.58.58,0,0,0-.12-.38.79.79,0,0,0-.63-.35v-.12h1.38L98,128v-1.33c0-.76,0-.95,0-1.15,0-.5-.19-.6-.82-.68v-.12h1.7Z"/><path class="cls-3" d="M106.4,129.46v-.11c.5-.11.51-.19.38-.57s-.21-.61-.36-1h-1.33c-.12.33-.23.66-.32.92-.17.48-.11.55.52.67v.11h-1.57v-.11c.48-.08.57-.18.82-.82l1.5-3.82.2,0c.45,1.28.92,2.54,1.4,3.8.25.7.33.77.77.87v.11Zm-.63-3.56c-.22.6-.39,1.09-.59,1.63h1.15Z"/><path class="cls-3" d="M117.43,125.83a1.52,1.52,0,0,0-.32-.69c-.12-.13-.2-.17-.57-.17h-.6v3.6c0,.62.08.68.64.78v.11h-2.14v-.11c.53-.12.61-.14.61-.78V125h-.66a.55.55,0,0,0-.5.19,2.15,2.15,0,0,0-.33.68h-.12c0-.39.07-.87.09-1.24h.1c.12.16.24.16.44.16H117a.52.52,0,0,0,.44-.16h.1c0,.33,0,.85,0,1.22Z"/><path class="cls-3" d="M125.8,125.79a1.08,1.08,0,0,0-1-1,.66.66,0,0,0-.68.75c0,.46.25.68.87,1s1.18.76,1.18,1.51a1.5,1.5,0,0,1-1.66,1.43,4.47,4.47,0,0,1-1.1-.17c0-.14-.15-1-.15-1.11l.11,0a1.33,1.33,0,0,0,1.25,1.13c.5,0,.72-.34.72-.82s-.27-.78-.78-1.09-1.18-.77-1.18-1.51a1.38,1.38,0,0,1,1.55-1.32c.44,0,.76.09.91.09,0,.27.08.67.13,1Z"/><path class="cls-3" d="M136.48,124.88c-.57.06-.57.26-.6.56s0,.48,0,1v.85a2.46,2.46,0,0,1-.46,1.77,1.71,1.71,0,0,1-1.32.49,1.92,1.92,0,0,1-1.27-.39,1.76,1.76,0,0,1-.53-1.51v-1.88c0-.75-.05-.83-.59-.91v-.12h2.06v.12c-.55.1-.58.16-.58.91v2c0,.95.46,1.41,1.26,1.41s1.2-.45,1.2-1.82v-.88c0-.54,0-.82,0-1s-.12-.48-.75-.53v-.12h1.65Z"/><path class="cls-3" d="M141.19,124.76h2.05v.12c-.53.1-.59.14-.59.78V127a1.13,1.13,0,0,0,.34-.24,12.54,12.54,0,0,0,1.36-1.41c.23-.27.21-.32-.21-.42l-.15,0v-.12h1.69v.12a1.43,1.43,0,0,0-1,.49c-.42.42-.83.82-1.25,1.27.5.68,1.1,1.47,1.64,2.11.38.45.52.54.87.6v.11h-1.45c-.42-.56-1.12-1.48-1.51-2-.16-.21-.22-.3-.29-.32v1.44c0,.64.06.68.59.79v.11h-2.05v-.11c.51-.1.58-.14.58-.79v-2.9c0-.64-.06-.69-.58-.78Z"/><path class="cls-3" d="M152.84,129.46v-.11c.5-.11.5-.19.37-.57s-.21-.61-.36-1h-1.32l-.33.92c-.16.48-.11.55.52.67v.11h-1.57v-.11c.48-.08.58-.18.83-.82l1.5-3.82.19,0c.46,1.28.93,2.54,1.4,3.8.26.7.33.77.77.87v.11Zm-.63-3.56c-.23.6-.39,1.09-.6,1.63h1.16Z"/><path class="cls-3" d="M163.82,128.29c-.06.25-.2.83-.27,1.17h-3.77l-.05-.06c1-1.46,1.89-3,2.79-4.42H161.2c-.54,0-.64.08-.81.37a3.33,3.33,0,0,0-.25.5H160c.05-.34.12-.95.14-1.25h.09c.13.15.19.16.45.16h2.94l0,.07c-.92,1.45-2,3.13-2.73,4.41h1.34a1.26,1.26,0,0,0,.93-.23,2,2,0,0,0,.5-.75Z"/><path class="cls-3" d="M172.82,128.33c0,.25-.17,1-.21,1.13h-3.53v-.11c.62-.09.67-.13.67-.77v-2.94c0-.65,0-.71-.54-.76v-.12h3.24a9.73,9.73,0,0,0,.07,1l-.12,0a2,2,0,0,0-.31-.64c-.13-.16-.29-.2-.72-.2h-.54c-.15,0-.18,0-.18.17v1.73h.7c.57,0,.6-.16.7-.61h.11v1.43h-.11c-.1-.42-.13-.6-.7-.6h-.7v1.54c0,.5.11.6.56.6h.42c.43,0,.53-.05.71-.25a2.4,2.4,0,0,0,.37-.69Z"/><path class="cls-3" d="M193.06,129.46v-.11c.5-.11.51-.19.38-.57s-.21-.61-.37-1h-1.32c-.12.33-.24.66-.32.92-.17.48-.11.55.52.67v.11h-1.57v-.11c.47-.08.57-.18.82-.82l1.5-3.82.19,0c.46,1.28.93,2.54,1.41,3.8.25.7.32.77.76.87v.11Zm-.63-3.56c-.22.6-.39,1.09-.59,1.63H193Z"/><path class="cls-3" d="M204,128.29c-.06.25-.2.83-.27,1.17H200l-.05-.06c1-1.46,1.9-3,2.79-4.42h-1.32c-.53,0-.63.08-.81.37a4.66,4.66,0,0,0-.24.5h-.14c.05-.34.12-.95.14-1.25h.1c.12.15.18.16.44.16h2.94l0,.07c-.92,1.45-1.94,3.13-2.73,4.41h1.34a1.3,1.3,0,0,0,.94-.23,2.11,2.11,0,0,0,.5-.75Z"/><path class="cls-3" d="M211.44,129.46v-.11c.5-.11.5-.19.37-.57s-.21-.61-.36-1h-1.32l-.33.92c-.16.48-.1.55.52.67v.11h-1.57v-.11c.48-.08.58-.18.83-.82l1.5-3.82.19,0c.46,1.28.93,2.54,1.4,3.8.26.7.33.77.77.87v.11Zm-.63-3.56c-.23.6-.39,1.09-.6,1.63h1.16Z"/><path class="cls-3" d="M221.82,129.46v-.11c.52-.11.56-.16.57-.92l0-3c-.55,1.28-1.6,3.71-1.71,4h-.11c-.13-.34-1.06-2.63-1.59-3.9-.1,2.2-.11,3.06-.11,3.3s.18.4.73.49v.11h-1.69v-.11c.5-.08.6-.2.65-.47s.06-.63.23-3.5c0-.17-.05-.44-.68-.5v-.12h1.44L221,128.1l1.49-3.34h1.37v.12c-.6.1-.65.15-.64.84l0,2.71c0,.73,0,.81.61.92v.11Z"/><path class="cls-3" d="M229.33,129.46v-.11c.54-.1.58-.15.58-.82v-2.84c0-.68,0-.73-.58-.81v-.12h2.06v.12c-.52.09-.58.13-.58.81v2.83c0,.7,0,.73.58.83v.11Z"/><path class="cls-3" d="M125.2,138c-.11-.35-.26-.74-.76-.74a.5.5,0,0,0-.52.52c0,.3.2.48.68.72s1,.57,1,1.11a1.17,1.17,0,0,1-1.31,1.11,3.28,3.28,0,0,1-.91-.17c0-.13-.13-.69-.17-1l.22,0c.1.35.41.94.94.94a.5.5,0,0,0,.53-.56c0-.31-.19-.5-.65-.74s-.93-.58-.93-1.14.44-1,1.26-1a3.66,3.66,0,0,1,.77.1c0,.2.06.48.11.82Z"/><path class="cls-3" d="M133.34,137.3a.72.72,0,0,0-.66.45c-.2.34-.37.64-.63,1.18a.5.5,0,0,0-.06.29v.67c0,.47,0,.49.49.54v.21h-1.72v-.21c.43-.05.47-.07.47-.54v-.62a.54.54,0,0,0-.06-.25c-.16-.32-.36-.69-.69-1.26-.2-.35-.28-.42-.6-.46v-.2h1.6v.2c-.37,0-.36.13-.26.31.17.36.41.79.61,1.19.17-.31.43-.83.58-1.16s.06-.29-.33-.34v-.2h1.26Z"/><path class="cls-3" d="M139,137a1.77,1.77,0,0,1,1.83,1.8A1.87,1.87,0,1,1,139,137Zm-.08.24c-.55,0-1,.54-1,1.5s.36,1.71,1.1,1.71c.51,0,.91-.5.91-1.5S139.57,137.27,138.94,137.27Z"/><path class="cls-3" d="M148.88,137.3c-.33,0-.44.12-.45.36a7.67,7.67,0,0,0,0,.87v2.16h-.3L145.82,138v1.23a7,7,0,0,0,0,.84c0,.24.14.36.54.38v.21H145v-.21c.31,0,.45-.1.48-.36a7.94,7.94,0,0,0,0-.86v-1.29a.66.66,0,0,0-.11-.44c-.1-.14-.23-.15-.46-.18v-.2H146l2.07,2.41v-1c0-.47,0-.65,0-.85s-.1-.35-.56-.38v-.2h1.35Z"/><path class="cls-3" d="M155.94,139.71c0,.15-.17.77-.22.93H152.9v-.2c.49-.05.52-.08.52-.53v-2.08c0-.46-.06-.49-.43-.53v-.2h2.6c0,.1,0,.55.06.88l-.22,0a1.37,1.37,0,0,0-.23-.5c-.1-.11-.17-.15-.45-.15h-.35c-.21,0-.23,0-.23.2v1.13h.54c.3,0,.35-.08.44-.46h.21v1.21h-.21c-.09-.4-.13-.47-.45-.47h-.53v.94c0,.37,0,.49.35.49h.39c.3,0,.38,0,.5-.18a2.06,2.06,0,0,0,.33-.55Z"/><path class="cls-3" d="M163.85,137.3c-.33,0-.44.12-.45.36a8.43,8.43,0,0,0,0,.87v2.16h-.31L160.8,138v1.23c0,.47,0,.68,0,.84s.14.36.54.38v.21H160v-.21c.31,0,.45-.1.48-.36a7.94,7.94,0,0,0,0-.86v-1.29a.66.66,0,0,0-.11-.44c-.1-.14-.23-.15-.46-.18v-.2H161l2.07,2.41v-1c0-.47,0-.65,0-.85s-.1-.35-.55-.38v-.2h1.34Z"/><path class="cls-3" d="M174.58,137.3c-.38,0-.43.08-.43.54v1.79a1.73,1.73,0,0,1-.58,1.56,1.93,1.93,0,0,1-.67.34l-.09-.21a.82.82,0,0,0,.53-.67,7.89,7.89,0,0,0,.06-1v-1.77c0-.46-.06-.5-.48-.54v-.2h1.66Z"/><path class="cls-3" d="M179.82,140.64v-.21c.41,0,.46-.07.46-.52v-2.07c0-.46-.05-.5-.46-.54v-.2h1.68v.2c-.41,0-.46.08-.46.54v2.07c0,.45.05.48.46.52v.21Z"/><path class="cls-3" d="M187.4,137.1a2.18,2.18,0,0,1,1.56.48,1.54,1.54,0,0,1,.48,1.18,1.72,1.72,0,0,1-.67,1.42,2.54,2.54,0,0,1-1.54.46h-1.5v-.21c.42,0,.47-.08.47-.53v-2.06c0-.46-.06-.5-.47-.54v-.2Zm-.45,2.76c0,.39.1.52.5.52.73,0,1.15-.51,1.15-1.54a1.69,1.69,0,0,0-.39-1.2,1.13,1.13,0,0,0-.87-.3.53.53,0,0,0-.33.07c0,.05-.06.14-.06.3Z"/><path class="cls-3" d="M195.08,140.64v-.21c.35,0,.35-.1.27-.34s-.14-.41-.22-.62h-1.06c-.06.17-.14.37-.19.54-.12.34,0,.39.44.42v.21H193v-.21c.34,0,.43-.09.61-.54l1.13-2.81L195,137c.34.94.71,1.91,1.07,2.82.2.5.25.54.6.58v.21Zm-.47-2.6c-.16.39-.32.75-.45,1.15H195Z"/><path class="cls-3" d="M200.52,140.64v-.21c.41,0,.46-.07.46-.52v-2.07c0-.46-.06-.5-.46-.54v-.2h1.68v.2c-.41,0-.47.08-.47.54v2.07c0,.45.05.48.47.52v.21Z"/></g><rect class="cls-3" x="98.58" y="138.68" width="18.12" height="0.18"/><rect class="cls-3" x="209.93" y="138.68" width="18.12" height="0.18"/></g></g></svg>