<svg xmlns="http://www.w3.org/2000/svg" viewBox="0 0 1029.39 214.21"><defs><style>.cls-1{fill:#999055;}</style></defs><title>estof</title><g id="レイヤー_2" data-name="レイヤー 2"><g id="ESTOF字有り"><rect y="17.82" width="1029.39" height="178.57"/><polygon class="cls-1" points="220.55 88.2 220.49 88.24 220.49 88.17 212.48 92.86 155.07 126 155.07 126 111.36 100.77 111.42 50.4 155.07 25.2 285.84 100.8 285.84 75.6 155.07 0 89.6 37.8 89.54 113.37 155.01 151.17 155.07 151.14 155.07 151.21 220.55 113.4 264.2 138.6 264.2 163.81 264.2 214.21 286.02 201.61 286.02 126 220.55 88.2"/><polygon class="cls-1" points="111.42 75.6 155.07 100.8 198.72 75.6 155.07 50.4 111.42 75.6"/><polygon class="cls-1" points="176.9 163.81 220.55 189.01 264.2 163.81 220.55 138.6 176.9 163.81"/><polygon class="cls-1" points="368.39 110.98 368.39 111.95 367.4 111.95 367.4 102.26 378.8 102.26 378.8 105.36 368.39 105.36 368.39 107.88 384.83 107.88 384.83 104.21 385.82 104.21 385.82 107.88 388.57 107.88 387.97 107.1 443.74 35.07 332.21 35.07 332.21 179.14 443.74 179.14 390.98 110.98 368.39 110.98"/><path class="cls-1" d="M529.31,110.28a6.13,6.13,0,0,1-3.92,1.28h-6.12v-3.1h8.5c1.45,0,2.17-.46,2.17-1.36H515.51l-5.91,2.72-52.86,69.32H566.6v-72H530.93A3.92,3.92,0,0,1,529.31,110.28Z"/><path class="cls-1" d="M456.74,35.79V107.1h35.67a3.91,3.91,0,0,1,1.62-3.18,6.13,6.13,0,0,1,3.92-1.27h6.12v3.1h-8.51c-1.44,0-2.17.45-2.17,1.35h14.17l6.32-2.9L566.6,35.07Z"/><path class="cls-1" d="M691,35.07H579.48l55.77,144.07ZM616.25,101.3h11.39v2.85H617.23v1.4h36v-1h1v5h-1v-1h-36v1.41h10.41v2.85H616.25Z"/><path class="cls-1" d="M815.44,179.14V35.07H703.91l0,144.06Zm-69.5-67.38a5.9,5.9,0,0,1-3.91-1.37,4.15,4.15,0,0,1,0-6.58,5.89,5.89,0,0,1,3.91-1.36h27.45a5.89,5.89,0,0,1,3.9,1.36,4.14,4.14,0,0,1,0,6.58,5.89,5.89,0,0,1-3.9,1.37Z"/><path class="cls-1" d="M777.94,107.1a1.32,1.32,0,0,0-.63-1.09,2.55,2.55,0,0,0-1.54-.46H743.56A2.55,2.55,0,0,0,742,106a1.27,1.27,0,0,0,0,2.19,2.55,2.55,0,0,0,1.54.46h32.21a2.55,2.55,0,0,0,1.54-.46A1.33,1.33,0,0,0,777.94,107.1Z"/><path class="cls-1" d="M939.85,179.14V35.07H828.32v72Zm-73.78-76.77v1h36v-1h1v5h-1v-1H883.5v3.48h-1v-3.48H866.07v2.33h10.41v3.08H865.09v-9.47Z"/><polygon class="cls-1" points="404.41 110.98 404.41 111.95 405.39 111.95 405.39 102.26 394 102.26 394 105.36 404.41 105.36 404.41 107.88 388.57 107.88 390.98 110.98 404.41 110.98"/><path class="cls-1" d="M507.56,107.1l-.92.43a11.26,11.26,0,0,1-4.72.93h-6.36c-1.44,0-2.16-.46-2.17-1.36h-1a3.92,3.92,0,0,0,1.62,3.18,6.13,6.13,0,0,0,3.92,1.28h5.16a11.76,11.76,0,0,0,4.88-1l1.61-.74,2.07-2.72Z"/><path class="cls-1" d="M515.51,107.1l.93-.42a11.33,11.33,0,0,1,4.74-.93h6.59c1.45,0,2.18.45,2.18,1.35h1a3.91,3.91,0,0,0-1.62-3.18,6.13,6.13,0,0,0-3.92-1.27H520a11.6,11.6,0,0,0-4.9,1l-1.21.55-2.21,2.9Z"/></g></g></svg>