<svg xmlns="http://www.w3.org/2000/svg" viewBox="0 0 1029.39 333.31"><defs><style>.cls-1{fill:#231815;}.cls-2{fill:#999055;}</style></defs><title>estof</title><g id="レイヤー_2" data-name="レイヤー 2"><g id="ESTOF字有り"><rect class="cls-1" width="1029.39" height="333.31"/><polygon class="cls-2" points="220.55 147.75 220.49 147.79 220.49 147.72 212.48 152.41 155.07 185.55 155.07 185.55 111.36 160.32 111.42 109.95 155.07 84.75 285.84 160.35 285.84 135.15 155.07 59.55 89.6 97.35 89.54 172.92 155.01 210.72 155.07 210.69 155.07 210.75 220.55 172.95 264.2 198.15 264.2 223.36 264.2 273.76 286.02 261.16 286.02 185.55 220.55 147.75"/><polygon class="cls-2" points="111.42 135.15 155.07 160.35 198.72 135.15 155.07 109.95 111.42 135.15"/><polygon class="cls-2" points="176.9 223.36 220.55 248.56 264.2 223.36 220.55 198.16 176.9 223.36"/><polygon class="cls-2" points="368.39 170.53 368.39 171.5 367.4 171.5 367.4 161.81 378.8 161.81 378.8 164.91 368.39 164.91 368.39 167.43 384.83 167.43 384.83 163.76 385.82 163.76 385.82 167.43 388.57 167.43 387.97 166.65 443.74 94.62 332.21 94.62 332.21 238.69 443.74 238.69 390.98 170.53 368.39 170.53"/><path class="cls-2" d="M529.31,169.83a6.13,6.13,0,0,1-3.92,1.28h-6.12V168h8.5c1.45,0,2.17-.46,2.17-1.36H515.51l-5.91,2.72-52.86,69.31H566.6v-72H530.93A3.92,3.92,0,0,1,529.31,169.83Z"/><path class="cls-2" d="M456.74,95.34v71.31h35.67a3.91,3.91,0,0,1,1.62-3.18A6.13,6.13,0,0,1,498,162.2h6.12v3.1h-8.51c-1.44,0-2.17.45-2.17,1.35h14.17l6.32-2.9L566.6,94.62Z"/><path class="cls-2" d="M691,94.62H579.48l55.77,144.07Zm-74.76,66.23h11.39v2.85H617.23v1.4h36v-1h1v5h-1v-1h-36v1.41h10.41v2.85H616.25Z"/><path class="cls-2" d="M815.44,238.69V94.62H703.91l0,144.06Zm-69.5-67.38a5.9,5.9,0,0,1-3.91-1.37,4.15,4.15,0,0,1,0-6.58,5.89,5.89,0,0,1,3.91-1.36h27.45a5.89,5.89,0,0,1,3.9,1.36,4.14,4.14,0,0,1,0,6.58,5.89,5.89,0,0,1-3.9,1.37Z"/><path class="cls-2" d="M777.94,166.65a1.32,1.32,0,0,0-.63-1.09,2.55,2.55,0,0,0-1.54-.46H743.56a2.55,2.55,0,0,0-1.54.46,1.27,1.27,0,0,0,0,2.19,2.55,2.55,0,0,0,1.54.46h32.21a2.55,2.55,0,0,0,1.54-.46A1.33,1.33,0,0,0,777.94,166.65Z"/><path class="cls-2" d="M939.85,238.69V94.62H828.32v72Zm-73.78-76.78v1h36v-1h1v5h-1v-1H883.5v3.48h-1V166H866.07v2.33h10.41v3.08H865.09v-9.48Z"/><polygon class="cls-2" points="404.41 170.53 404.41 171.5 405.39 171.5 405.39 161.81 394 161.81 394 164.91 404.41 164.91 404.41 167.43 388.57 167.43 390.98 170.53 404.41 170.53"/><path class="cls-2" d="M507.56,166.65l-.92.43a11.26,11.26,0,0,1-4.72.93h-6.36c-1.44,0-2.16-.46-2.17-1.36h-1a3.92,3.92,0,0,0,1.62,3.18,6.13,6.13,0,0,0,3.92,1.28h5.16a11.76,11.76,0,0,0,4.88-1l1.61-.74,2.07-2.72Z"/><path class="cls-2" d="M515.51,166.65l.93-.42a11.33,11.33,0,0,1,4.74-.93h6.59c1.45,0,2.18.45,2.18,1.35h1a3.91,3.91,0,0,0-1.62-3.18,6.13,6.13,0,0,0-3.92-1.27H520a11.6,11.6,0,0,0-4.9,1l-1.21.55-2.21,2.9Z"/></g></g></svg>