<svg xmlns="http://www.w3.org/2000/svg" xmlns:xlink="http://www.w3.org/1999/xlink" viewBox="0 0 952.57 219.76"><defs><style>.cls-1,.cls-2,.cls-3{fill:none;}.cls-2{stroke:#fff;stroke-width:1.45px;}.cls-2,.cls-3{stroke-miterlimit:10;}.cls-3{stroke:#1b98d0;stroke-linecap:round;stroke-width:2.52px;opacity:0.5;}.cls-4{clip-path:url(#clip-path);}.cls-5{fill:#2980c4;}.cls-6{fill:#00a2e1;}.cls-7{fill:#84bde7;}.cls-8{fill:#a0d1f1;}.cls-9{fill:#c0e5f9;}.cls-10{fill:#fff;}.cls-11{clip-path:url(#clip-path-2);}</style><clipPath id="clip-path" transform="translate(0 -0.01)"><path class="cls-1" d="M412.24,52.61V181.79h-31V59.84H354.36v122h-31V59.84H293.89l.48.16,2.12.71V181.79h-31V49.51h57.88V26.77H265.48V16.44H412.24V26.77H353.05l1.31.42V49.51h57.88ZM303,76.71l-4.49-2.25v41.19h22.74V85.83L319.58,85Zm0,49.6-4.49-2.24v41.19h22.74V135.44l-1.71-.86Zm57.88-49.6-4.49-2.25v41.19h22.74V85.83L377.45,85Zm0,49.58L356.43,124v41.25h22.74V135.44l-1.71-.86Zm-274.23-83h-3.1V33h57.88V17.75l-22.69-7.56-2.12-.71V0h4.26l.48.16,48.95,16.31,2.12.71V33h57.88V43.31H172.47v6.2h33.07V59.84h-8.29V99.11H116.64V59.84H108.4V49.51h33.07v-6.2Zm61,26.16V71.2l.06,18.29h18.51v-20Zm96.13,54.45h3.1v10.33H205.54v47.54H108.36V137.35l0-3.1H67.05V123.92h62V109.56H120.8V99.22H133l.48.16,20.36,6.79v-7h39.27v15.61l-2.12.71-24.8,8.27-.47.16ZM139.4,144.59v1l0,25.84h35.14V144.59ZM160,123.92h2.09V109.5h-2v1l0,10.34ZM544.52,58.53l-2.12-.71-24.47-8.15-.47-.16H503.18V27.64l-2.12-.71-24.8-8.27-4.08-1.36V49.51H447.37V59.84h24.81v97.9l-22.69,7.57-2.12.7v9.47h4.26l.48-.16L501.06,159l2.12-.71V59.84h10.34V171.46H497v10.33h20.48l.47-.16,24.47-8.15,2.12-.71V58.53ZM577.59,42l-2.12-.7L526.52,25l-.47-.16h-4.26v9.48l2.12.71,22.68,7.56v55.7l2.12.7,24.8,8.27,4.08,1.36V42ZM891.77,84.5v-5l0-24.81V52.76L890,51.9l-14.81-7.41V26.77H780.35l-.48.16L755.4,35.09l-2.12.7v9.48h4.26l.48-.16,24-8h62.2v7L796.74,59.89l-2.12.71V164.5l2.12.71L846,181.63l.48.16H867V171.46h-18.8l-22.54-7.52V61.16L869,46.69V66.2l-12.06-6-4.48-2.24V89.66l1.71.86,16.54,8.27,4.48,2.24V76.22l12,6Zm-258.56,25,.47-.16,25.12-8.37,3-1-1-3-.5-1.48V59.84h24.8V49.51h-24.8V27.64l-2.12-.71-24.8-8.27-4.08-1.36V49.51H612.73V59.84h16.54V99.11H612.73v10.34h20.48ZM724.06,155l2.35.59v9.66h-4l-.37-.1-28.72-7.18v14.85l-2.12.71-24.47,8.15-.47.16h-9.95l-.48-.16-26.53-8.84-2.12-.71V138.39h35.14V83.44l4.08,1.37,24.8,8.26,2.12.71v53.49Zm-61.72-6.23h-2.07v22.74h2.07Zm64.07-33.07V51.57h-31V117l2.12.71L722,125.83l.47.16H743V115.65H726.41Z"/></clipPath><clipPath id="clip-path-2" transform="translate(0 -0.01)"><path class="cls-2" d="M409.14,54.68h0v124H384.33V56.74H351.26v122h-24.8V56.74H274.79l18.6,6.2V178.69H268.58V56.74h0V52.61h57.88V23.67H268.58V19.54H409.14v4.13H333l18.27,5.79V52.61h57.88ZM301.66,112.55h16.53V87.75l-16.53-8.27Zm0,49.61h16.53V137.35l-16.53-8.26Zm57.87-49.61h16.54V87.75l-16.54-8.27Zm0,49.63h16.54V137.35l-16.54-8.29Zm-215-109.57H111.5v4.13h90.94V52.61H169.37V40.21h57.88V36.07H169.37V19.43L120.42,3.11h-.66V7.25l24.81,8.27V36.07H86.69v4.14h57.88ZM70.15,131.15H243.79V127H70.15Zm107.52,6.2h24.77v41.34h-91V137.35h66.21Zm0,37.21V141.49H123.88l12.42,4.13,0,28.94ZM194.15,96H119.74V62.94h74.41Zm-24.8-3.42V66.37H130l14.55,4.84.07,21.38Zm20.67,20V106.4h0v-4.13H156.94v4.13h8.27v14.42ZM132.5,102.32h-8.6v4.14h7.93l.34.11v14.25h24.77l0-10.34ZM517,52.61H500.08V29.87l-24.8-8.27v31h-24.8v4.13h24.8V160l-24.8,8.27v4.13h.65l48.95-16.32v-2.18h0V56.74h16.2l.34.11v117.6l-.34.11h-16.2v4.13H517l24.47-8.15V60.76Zm8.59-24.7h-.65v4.14l24.8,8.27V96l24.8,8.27v-60ZM657.83,98l-.66-2V56.74H682V52.61H657.17V29.87l-24.8-8.27v31H615.83v4.13h16.54V102.1l-.34.11h-16.2v4.14H632.7Zm33,51.85L723.31,158v4.14h-.5L690.24,154v14.41h0v2.18l-24.46,8.15h-8.94l-26.54-8.84V141.49h35.14V87.75L690.24,96v53.67Zm-25.69,24.73.33-.11V145.82l-.44-.2h-7.83v28.83l.34.11Zm58.2-55.92v-64h-24.8v57.87h0v2.18L723,122.88h16.87v-4.13h-16.2ZM855.6,87.75,872.13,96V71.21L855.6,62.94Zm33-33.07-16.52-8.27,0,24.8,16.52,8.27Zm-66.12,111.5V58.92l49.6-16.53V40.21h0V31.94h0V29.87H780.85L756.39,38v4.14H757L781.52,34h65.81V46.3L797.72,62.83V65h0v95.08h0v2.18L847,178.69h16.88v-4.13h-16.2Z"/></clipPath></defs><title>kanade</title><g id="レイヤー_2" data-name="レイヤー 2"><g id="喜雨かなで"><path class="cls-3" d="M293.4,130.68c49.55-3,113.31-4.83,182.89-4.83,22.45,0,44.31.19,65.27.54" transform="translate(0 -0.01)"/><path class="cls-3" d="M614.85,128.46c87.71,3.55,147,10.38,147,18.21,0,8.06-62.73,15.05-154.53,18.51" transform="translate(0 -0.01)"/><path class="cls-3" d="M541.6,167c-21,.36-42.84.55-65.31.55s-44.16-.19-65.05-.54" transform="translate(0 -0.01)"/><path class="cls-3" d="M340.41,165c-89.18-3.53-149.74-10.41-149.74-18.33,0-4.26,17.58-8.23,47.74-11.53" transform="translate(0 -0.01)"/><path class="cls-3" d="M395.28,117c25.94-.59,53.07-.9,81-.9,84.64,0,161.94,2.87,220.86,7.61" transform="translate(0 -0.01)"/><path class="cls-3" d="M743.85,128.33c42,5.11,67,11.46,67,18.34,0,10.93-62.79,20.52-157.21,25.92" transform="translate(0 -0.01)"/><path class="cls-3" d="M597.16,175.18c-37.49,1.33-78.25,2.06-120.87,2.06-49.84,0-97.13-1-139.62-2.79" transform="translate(0 -0.01)"/><path class="cls-3" d="M279.69,171.4c-83.59-5.55-137.93-14.56-137.93-24.73,0-13.17,91.22-24.4,219.1-28.69" transform="translate(0 -0.01)"/><path class="cls-3" d="M387.27,107.19c28.63-.65,58.42-1,89-1,222,0,402,18.13,402,40.48,0,5.61-11.33,11-31.81,15.81" transform="translate(0 -0.01)"/><path class="cls-3" d="M756.2,175.73c-72.38,7.07-171.1,11.42-279.91,11.42-76.56,0-148.13-2.15-209-5.89" transform="translate(0 -0.01)"/><path class="cls-3" d="M172.44,173.18c-61.13-7.1-98.12-16.37-98.12-26.51,0-15.53,86.84-29,214.28-35.8" transform="translate(0 -0.01)"/><path class="cls-3" d="M54.5,170.42c-34-7.1-53.24-15.18-53.24-23.75,0-14,51.68-26.77,135.52-36.07" transform="translate(0 -0.01)"/><path class="cls-3" d="M213,103.73c49.09-3.55,104.61-6.14,164.26-7.51" transform="translate(0 -0.01)"/><path class="cls-3" d="M509.94,95.22c44.05.34,86.45,1.32,126.38,2.87" transform="translate(0 -0.01)"/><path class="cls-3" d="M741.31,103.86c126.68,9.27,210,25,210,42.81,0,9-21.22,17.46-58.53,24.83" transform="translate(0 -0.01)"/><path class="cls-3" d="M813.59,183c-42.14,4.62-92.26,8.37-147.92,11" transform="translate(0 -0.01)"/><path class="cls-3" d="M544.16,197.73q-33.25.51-67.87.52c-115.66,0-221.67-4.49-304-11.95" transform="translate(0 -0.01)"/><g class="cls-4"><rect class="cls-5" x="62" width="848.32" height="77.8"/><rect class="cls-6" x="62" y="47.99" width="848.32" height="77.8"/><rect class="cls-7" x="62" y="86.89" width="848.32" height="107.06"/><path class="cls-8" d="M196.46,67.32h0a3.11,3.11,0,0,1-3.28,2.91H160.35a3.1,3.1,0,0,1-3.28-2.91h0a3.11,3.11,0,0,1,3.28-2.92h0a3.11,3.11,0,0,0,3.28-2.91h0a3.11,3.11,0,0,0-3.28-2.91h-6.57a3.11,3.11,0,0,1-3.28-2.92h0a3.1,3.1,0,0,1,3.28-2.91h26.27a3.11,3.11,0,0,1,3.28,2.91h0a3.12,3.12,0,0,1-3.28,2.92h-6.57a3.11,3.11,0,0,0-3.28,2.91h0a3.11,3.11,0,0,0,3.28,2.91h19.7A3.12,3.12,0,0,1,196.46,67.32Z" transform="translate(0 -0.01)"/><path class="cls-8" d="M316.87,58.61h0a3.1,3.1,0,0,0,3.28,2.91h19.71a3.12,3.12,0,0,1,3.28,2.92h0a3.12,3.12,0,0,1-3.28,2.92h0a3.11,3.11,0,0,0-3.28,2.91h0a3.12,3.12,0,0,0,3.28,2.92h46a3.12,3.12,0,0,0,3.29-2.92h0a3.11,3.11,0,0,0-3.29-2.91H353a3.12,3.12,0,0,1-3.28-2.92h0A3.12,3.12,0,0,1,353,61.52h0a3.11,3.11,0,0,0,3.28-2.91h0A3.12,3.12,0,0,0,353,55.69H320.15A3.11,3.11,0,0,0,316.87,58.61Z" transform="translate(0 -0.01)"/><path class="cls-8" d="M568.18,66.23h0a3.11,3.11,0,0,1-3.28,2.91H545.19a3.11,3.11,0,0,0-3.28,2.92h0A3.11,3.11,0,0,0,545.19,75h0a3.11,3.11,0,0,1,3.29,2.91h0a3.12,3.12,0,0,1-3.29,2.92h-46A3.12,3.12,0,0,1,496,77.89h0A3.11,3.11,0,0,1,499.23,75h32.83a3.12,3.12,0,0,0,3.28-2.92h0a3.12,3.12,0,0,0-3.28-2.92h0a3.11,3.11,0,0,1-3.28-2.91h0a3.12,3.12,0,0,1,3.28-2.92H564.9A3.12,3.12,0,0,1,568.18,66.23Z" transform="translate(0 -0.01)"/><path class="cls-8" d="M827.75,62.08h0A3.11,3.11,0,0,0,831,65h19.71A3.12,3.12,0,0,1,854,67.91h0a3.11,3.11,0,0,1-3.28,2.91h0a3.12,3.12,0,0,0-3.28,2.92h0a3.11,3.11,0,0,0,3.28,2.91h46A3.11,3.11,0,0,0,900,73.75h0a3.12,3.12,0,0,0-3.28-2.92H863.86a3.11,3.11,0,0,1-3.28-2.91h0A3.12,3.12,0,0,1,863.86,65h0a3.11,3.11,0,0,0,3.28-2.91h0a3.11,3.11,0,0,0-3.28-2.91H831A3.11,3.11,0,0,0,827.75,62.08Z" transform="translate(0 -0.01)"/><path class="cls-9" d="M196.58,100.62h0a3.12,3.12,0,0,0,3.29,2.92h0a3.11,3.11,0,0,1,3.28,2.91h0a3.11,3.11,0,0,1-3.28,2.91H180.16a3.11,3.11,0,0,1-3.28-2.91h0a3.11,3.11,0,0,1,3.28-2.91h6.57a3.11,3.11,0,0,0,3.28-2.92h0a3.1,3.1,0,0,0-3.28-2.91h0a3.12,3.12,0,0,1-3.28-2.92h0a3.12,3.12,0,0,1,3.28-2.92h13.14a3.12,3.12,0,0,1,3.28,2.92h0a3.12,3.12,0,0,1-3.28,2.92h0A3.11,3.11,0,0,0,196.58,100.62ZM847.45,165h-19.7a3.11,3.11,0,0,1-3.28-2.91h0a3.11,3.11,0,0,1,3.28-2.91h6.57a3.12,3.12,0,0,0,3.28-2.92h0a3.11,3.11,0,0,0-3.28-2.91H808.05a3.11,3.11,0,0,0-3.28,2.91h0a3.12,3.12,0,0,0,3.28,2.92h6.57A3.11,3.11,0,0,1,817.9,162h0a3.11,3.11,0,0,1-3.28,2.91h0a3.12,3.12,0,0,0-3.28,2.92h0a3.11,3.11,0,0,0,3.28,2.91h32.83a3.11,3.11,0,0,0,3.28-2.91h0A3.12,3.12,0,0,0,847.45,165ZM288.28,106.82h-19.7a3.11,3.11,0,0,1-3.28-2.91h0a3.11,3.11,0,0,1,3.28-2.91h6.57a3.11,3.11,0,0,0,3.28-2.92h0a3.1,3.1,0,0,0-3.28-2.91H248.88a3.11,3.11,0,0,0-3.28,2.91h0a3.12,3.12,0,0,0,3.28,2.92h6.57a3.11,3.11,0,0,1,3.28,2.91h0a3.11,3.11,0,0,1-3.28,2.91h0a3.12,3.12,0,0,0-3.28,2.92h0a3.11,3.11,0,0,0,3.28,2.91h32.83a3.11,3.11,0,0,0,3.29-2.91h0A3.12,3.12,0,0,0,288.28,106.82ZM742,93.12H709.11A3.11,3.11,0,0,0,705.83,96h0A3.1,3.1,0,0,0,709.11,99h0a3.12,3.12,0,0,1,3.29,2.92h0a3.12,3.12,0,0,1-3.29,2.92H676.28A3.11,3.11,0,0,0,673,107.7h0a3.12,3.12,0,0,0,3.28,2.92h46a3.12,3.12,0,0,0,3.28-2.92h0a3.11,3.11,0,0,0-3.28-2.91h0a3.12,3.12,0,0,1-3.28-2.92h0A3.12,3.12,0,0,1,722.24,99H742A3.11,3.11,0,0,0,745.23,96h0A3.12,3.12,0,0,0,742,93.12Zm82.52,14.58h0a3.11,3.11,0,0,0,3.28-2.91h0a3.12,3.12,0,0,0-3.28-2.92H811.34a3.11,3.11,0,0,0-3.28,2.92h0a3.1,3.1,0,0,0,3.28,2.91h0a3.12,3.12,0,0,1,3.28,2.92h0a3.12,3.12,0,0,1-3.28,2.92H798.2a3.11,3.11,0,0,0-3.28,2.91h0a3.12,3.12,0,0,0,3.28,2.92h26.27a3.12,3.12,0,0,0,3.28-2.92h0a3.11,3.11,0,0,0-3.28-2.91h0a3.12,3.12,0,0,1-3.28-2.92h0A3.12,3.12,0,0,1,824.47,107.7ZM417,153.17h0a3.11,3.11,0,0,0,3.28-2.91h0a3.12,3.12,0,0,0-3.28-2.92H403.89a3.12,3.12,0,0,0-3.29,2.92h0a3.11,3.11,0,0,0,3.29,2.91h0a3.12,3.12,0,0,1,3.28,2.92h0a3.12,3.12,0,0,1-3.28,2.91H390.75a3.11,3.11,0,0,0-3.28,2.91h0a3.12,3.12,0,0,0,3.28,2.92H417a3.12,3.12,0,0,0,3.28-2.92h0A3.11,3.11,0,0,0,417,159h0a3.12,3.12,0,0,1-3.28-2.91h0A3.12,3.12,0,0,1,417,153.17ZM692.94,144a2.09,2.09,0,0,0,.35,0h217V123.44H513.44l-.21,0h-19.7a3.12,3.12,0,0,1-3.28-2.92h0a3.12,3.12,0,0,1,3.28-2.91h6.57a2.94,2.94,0,1,0,0-5.83H473.83a2.94,2.94,0,1,0,0,5.83h6.57a3.12,3.12,0,0,1,3.28,2.91h0a3.12,3.12,0,0,1-3.28,2.92l-.21,0H62V144H184.55a2.91,2.91,0,0,0-1.85,2.62A3.11,3.11,0,0,0,186,149.5h0a3.12,3.12,0,0,1,3.28,2.92h0a3.12,3.12,0,0,1-3.28,2.92H153.15a2.94,2.94,0,1,0,0,5.83h46a2.94,2.94,0,1,0,0-5.83h0a3.12,3.12,0,0,1-3.28-2.92h0a3.12,3.12,0,0,1,3.28-2.92h19.71a3.11,3.11,0,0,0,3.28-2.91,2.91,2.91,0,0,0-1.85-2.62H672.89a2.09,2.09,0,0,0,.35,0h6.57a3.11,3.11,0,0,1,3.28,2.91h0a3.11,3.11,0,0,1-3.28,2.91,2.94,2.94,0,1,0,0,5.83h19.7a2.94,2.94,0,1,0,0-5.83h-6.57a3.11,3.11,0,0,1-3.28-2.91h0A3.11,3.11,0,0,1,692.94,144Z" transform="translate(0 -0.01)"/><path class="cls-8" d="M655.47,71.44h0a3.11,3.11,0,0,1-3.28,2.91h-19.7a3.11,3.11,0,0,1-3.29-2.91h0a3.11,3.11,0,0,1,3.29-2.91h0a3.12,3.12,0,0,0,3.28-2.92h0a3.11,3.11,0,0,0-3.28-2.91h-6.57a3.12,3.12,0,0,1-3.29-2.92h0a3.11,3.11,0,0,1,3.29-2.91h19.7a3.11,3.11,0,0,1,3.28,2.91h0a3.12,3.12,0,0,1-3.28,2.92h0a3.11,3.11,0,0,0-3.28,2.91h0a3.12,3.12,0,0,0,3.28,2.92h6.57A3.11,3.11,0,0,1,655.47,71.44Z" transform="translate(0 -0.01)"/></g><rect class="cls-7" x="521.29" y="208.66" width="48.69" height="6.2"/><rect class="cls-7" x="315.83" y="208.66" width="113.74" height="6.2"/><rect class="cls-7" x="178.69" y="208.66" width="46.85" height="6.2"/><rect class="cls-7" x="247.27" y="208.66" width="46.82" height="6.2"/><rect class="cls-7" x="451.3" y="208.66" width="48.25" height="6.2"/><rect class="cls-7" x="61.89" y="208.66" width="95.06" height="6.2"/><rect class="cls-7" x="801.86" y="208.66" width="95.07" height="6.2"/><rect class="cls-7" x="732.73" y="208.66" width="47.4" height="6.2"/><rect class="cls-7" x="662.12" y="208.66" width="48.88" height="6.2"/><rect class="cls-7" x="591.71" y="208.66" width="48.67" height="6.2"/><rect class="cls-10" x="315.83" y="210.72" width="113.74" height="2.07"/><rect class="cls-10" x="451.3" y="210.72" width="48.25" height="2.07"/><rect class="cls-10" x="521.29" y="210.72" width="48.69" height="2.07"/><rect class="cls-10" x="178.69" y="210.72" width="46.85" height="2.07"/><rect class="cls-10" x="247.27" y="210.72" width="46.82" height="2.07"/><rect class="cls-10" x="662.12" y="210.72" width="48.88" height="2.07"/><rect class="cls-10" x="591.71" y="210.72" width="48.67" height="2.07"/><rect class="cls-10" x="801.86" y="210.72" width="95.08" height="2.07"/><rect class="cls-10" x="61.84" y="210.72" width="95.12" height="2.07"/><rect class="cls-10" x="732.73" y="210.72" width="47.4" height="2.07"/><polygon class="cls-7" points="172.54 204.19 170.47 210.43 172.73 218.02 169.01 218.02 167.56 212.09 167.56 218.02 163.96 218.02 163.96 204.19 167.56 204.19 167.56 209.56 169.16 204.19 172.54 204.19"/><path class="cls-10" d="M172.54,204.19l-2.07,6.25,2.26,7.59H169l-1.46-5.94V218H164V204.19h3.6v5.38l1.6-5.38h3.38m2-1.45h-12v16.73h12.16l-.55-1.86L172,210.46l1.92-5.82.63-1.9Z" transform="translate(0 -0.01)"/><rect class="cls-7" x="234.6" y="204.19" width="3.6" height="13.83"/><path class="cls-10" d="M238.2,204.19V218h-3.6V204.19h3.6m1.45-1.45h-6.49v16.73h6.49V202.74Z" transform="translate(0 -0.01)"/><path class="cls-7" d="M309.07,204.19v9.25a16,16,0,0,1-.1,2.21,2.94,2.94,0,0,1-.61,1.3,3.09,3.09,0,0,1-1.33,1,5,5,0,0,1-1.94.35,5.55,5.55,0,0,1-2.19-.41,3.4,3.4,0,0,1-1.42-1.07,3,3,0,0,1-.55-1.39c-.06-.49-.09-1.51-.09-3.07v-8.19h3.6v10.37a3.9,3.9,0,0,0,.1,1.16.38.38,0,0,0,.4.25.43.43,0,0,0,.44-.27,5.7,5.7,0,0,0,.09-1.31v-10.2Z" transform="translate(0 -0.01)"/><path class="cls-10" d="M309.07,204.19v9.25a16,16,0,0,1-.1,2.21,2.94,2.94,0,0,1-.61,1.3,3.09,3.09,0,0,1-1.33,1,5,5,0,0,1-1.94.35,5.55,5.55,0,0,1-2.19-.41,3.4,3.4,0,0,1-1.42-1.07,3,3,0,0,1-.55-1.39c-.06-.49-.09-1.51-.09-3.07v-8.19h3.6v10.37a3.9,3.9,0,0,0,.1,1.16.38.38,0,0,0,.4.25.43.43,0,0,0,.44-.27,5.7,5.7,0,0,0,.09-1.31v-10.2h3.6m1.45-1.45H299.4v9.64a31.86,31.86,0,0,0,.09,3.24,4.42,4.42,0,0,0,.82,2.06,4.6,4.6,0,0,0,2,1.55,6.93,6.93,0,0,0,2.76.53,6.3,6.3,0,0,0,2.5-.46,4.52,4.52,0,0,0,1.93-1.48,4.44,4.44,0,0,0,.88-1.94,17.31,17.31,0,0,0,.12-2.44v-10.7Z" transform="translate(0 -0.01)"/><polygon class="cls-7" points="444.63 204.19 442.56 210.43 444.82 218.02 441.11 218.02 439.65 212.09 439.65 218.02 436.05 218.02 436.05 204.19 439.65 204.19 439.65 209.56 441.25 204.19 444.63 204.19"/><path class="cls-10" d="M444.63,204.19l-2.07,6.25,2.26,7.59h-3.71l-1.46-5.94V218h-3.6V204.19h3.6v5.38l1.6-5.38h3.38m2-1.45h-12v16.73h12.16l-.55-1.86-2.13-7.15,1.92-5.82.63-1.9Z" transform="translate(0 -0.01)"/><polygon class="cls-7" points="512.91 204.19 514.97 218.02 511.29 218.02 511.1 215.53 509.81 215.53 509.6 218.02 505.88 218.02 507.71 204.19 512.91 204.19"/><path class="cls-10" d="M512.91,204.19,515,218h-3.68l-.19-2.49h-1.29L509.6,218h-3.72l1.83-13.84h5.2m1.25-1.45h-7.72l-.16,1.26-1.84,13.83-.21,1.64h12.42l-.25-1.66L514.34,204l-.18-1.24Z" transform="translate(0 -0.01)"/><path class="cls-7" d="M511,213.09q-.27-2.35-.54-5.81-.56,4-.69,5.81Z" transform="translate(0 -0.01)"/><path class="cls-7" d="M510.46,207.28q-.56,4-.69,5.81H511q-.27-2.35-.54-5.81Z" transform="translate(0 -0.01)"/><polygon class="cls-7" points="584.86 204.19 584.86 218.02 581.71 218.02 579.84 211.73 579.84 218.02 576.83 218.02 576.83 204.19 579.84 204.19 581.85 210.41 581.85 204.19 584.86 204.19"/><path class="cls-10" d="M584.86,204.19V218h-3.15l-1.87-6.29V218h-3V204.19h3l2,6.23v-6.23h3m1.45-1.45H575.38v16.73h10.93V202.74Z" transform="translate(0 -0.01)"/><polygon class="cls-7" points="653.78 204.19 655.83 218.02 652.16 218.02 651.96 215.53 650.68 215.53 650.46 218.02 646.74 218.02 648.58 204.19 653.78 204.19"/><path class="cls-10" d="M653.78,204.19,655.83,218h-3.67l-.2-2.49h-1.28l-.22,2.49h-3.72l1.84-13.84h5.2m1.24-1.45h-7.71l-.17,1.26-1.83,13.83-.22,1.64h12.42l-.25-1.66-2-13.83-.19-1.24Z" transform="translate(0 -0.01)"/><path class="cls-7" d="M651.87,213.09c-.18-1.57-.37-3.51-.55-5.81q-.55,4-.69,5.81Z" transform="translate(0 -0.01)"/><path class="cls-10" d="M651.32,207.28q-.55,4-.69,5.81h1.24c-.18-1.57-.37-3.51-.55-5.81Z" transform="translate(0 -0.01)"/><path class="cls-7" d="M717.69,204.19h2.7a16.67,16.67,0,0,1,3.52.24,2.7,2.7,0,0,1,1.4.79,2.47,2.47,0,0,1,.6,1.21,18.44,18.44,0,0,1,.12,2.64v4.85a11,11,0,0,1-.18,2.49,1.94,1.94,0,0,1-.61,1,2.44,2.44,0,0,1-1.08.49,9.1,9.1,0,0,1-1.93.15h-4.54Z" transform="translate(0 -0.01)"/><path class="cls-10" d="M720.39,204.19a16.67,16.67,0,0,1,3.52.24,2.7,2.7,0,0,1,1.4.79,2.47,2.47,0,0,1,.6,1.21,18.44,18.44,0,0,1,.12,2.64v4.85a11,11,0,0,1-.18,2.49,1.94,1.94,0,0,1-.61,1,2.44,2.44,0,0,1-1.08.49,9.1,9.1,0,0,1-1.93.15h-4.54V204.19h2.7m0-1.45h-4.14v16.73h6a11.48,11.48,0,0,0,2.24-.17,4,4,0,0,0,1.68-.79,3.21,3.21,0,0,0,1.09-1.72,10.66,10.66,0,0,0,.23-2.87v-4.85a17.5,17.5,0,0,0-.14-2.89,4,4,0,0,0-.93-1.92,4.14,4.14,0,0,0-2.12-1.23,17,17,0,0,0-3.89-.29Z" transform="translate(0 -0.01)"/><path class="cls-7" d="M721.29,206.56v9.1c.52,0,.84-.11,1-.31a4.6,4.6,0,0,0,.18-1.7v-5.37a7.27,7.27,0,0,0-.06-1.21.56.56,0,0,0-.27-.39A1.86,1.86,0,0,0,721.29,206.56Z" transform="translate(0 -0.01)"/><path class="cls-10" d="M721.29,206.56v9.1c.52,0,.84-.11,1-.31a4.6,4.6,0,0,0,.18-1.7v-5.37a7.27,7.27,0,0,0-.06-1.21.56.56,0,0,0-.27-.39,1.86,1.86,0,0,0-.81-.12Z" transform="translate(0 -0.01)"/><polygon class="cls-7" points="788.62 204.19 794.62 204.19 794.62 206.95 792.22 206.95 792.22 209.58 794.46 209.58 794.46 212.21 792.22 212.21 792.22 215.25 794.86 215.25 794.86 218.02 788.62 218.02 788.62 204.19"/><path class="cls-10" d="M794.62,204.19V207h-2.4v2.62h2.24v2.63h-2.24v3h2.64V218h-6.24V204.19h6m1.44-1.45h-8.89v16.73h8.89V202.74Z" transform="translate(0 -0.01)"/><g class="cls-11"><rect class="cls-5" x="62" width="848.32" height="77.8"/><rect class="cls-6" x="62" y="47.99" width="848.32" height="77.8"/><rect class="cls-7" x="62" y="86.89" width="848.32" height="107.06"/><path class="cls-8" d="M196.46,67.32h0a3.11,3.11,0,0,1-3.28,2.91H160.35a3.1,3.1,0,0,1-3.28-2.91h0a3.11,3.11,0,0,1,3.28-2.92h0a3.11,3.11,0,0,0,3.28-2.91h0a3.11,3.11,0,0,0-3.28-2.91h-6.57a3.11,3.11,0,0,1-3.28-2.92h0a3.1,3.1,0,0,1,3.28-2.91h26.27a3.11,3.11,0,0,1,3.28,2.91h0a3.12,3.12,0,0,1-3.28,2.92h-6.57a3.11,3.11,0,0,0-3.28,2.91h0a3.11,3.11,0,0,0,3.28,2.91h19.7A3.12,3.12,0,0,1,196.46,67.32Z" transform="translate(0 -0.01)"/><path class="cls-8" d="M316.87,58.61h0a3.1,3.1,0,0,0,3.28,2.91h19.71a3.12,3.12,0,0,1,3.28,2.92h0a3.12,3.12,0,0,1-3.28,2.92h0a3.11,3.11,0,0,0-3.28,2.91h0a3.12,3.12,0,0,0,3.28,2.92h46a3.12,3.12,0,0,0,3.29-2.92h0a3.11,3.11,0,0,0-3.29-2.91H353a3.12,3.12,0,0,1-3.28-2.92h0A3.12,3.12,0,0,1,353,61.52h0a3.11,3.11,0,0,0,3.28-2.91h0A3.12,3.12,0,0,0,353,55.69H320.15A3.11,3.11,0,0,0,316.87,58.61Z" transform="translate(0 -0.01)"/><path class="cls-8" d="M568.18,66.23h0a3.11,3.11,0,0,1-3.28,2.91H545.19a3.11,3.11,0,0,0-3.28,2.92h0A3.11,3.11,0,0,0,545.19,75h0a3.11,3.11,0,0,1,3.29,2.91h0a3.12,3.12,0,0,1-3.29,2.92h-46A3.12,3.12,0,0,1,496,77.89h0A3.11,3.11,0,0,1,499.23,75h32.83a3.12,3.12,0,0,0,3.28-2.92h0a3.12,3.12,0,0,0-3.28-2.92h0a3.11,3.11,0,0,1-3.28-2.91h0a3.12,3.12,0,0,1,3.28-2.92H564.9A3.12,3.12,0,0,1,568.18,66.23Z" transform="translate(0 -0.01)"/><path class="cls-8" d="M827.75,62.08h0A3.11,3.11,0,0,0,831,65h19.71A3.12,3.12,0,0,1,854,67.91h0a3.11,3.11,0,0,1-3.28,2.91h0a3.12,3.12,0,0,0-3.28,2.92h0a3.11,3.11,0,0,0,3.28,2.91h46A3.11,3.11,0,0,0,900,73.75h0a3.12,3.12,0,0,0-3.28-2.92H863.86a3.11,3.11,0,0,1-3.28-2.91h0A3.12,3.12,0,0,1,863.86,65h0a3.11,3.11,0,0,0,3.28-2.91h0a3.11,3.11,0,0,0-3.28-2.91H831A3.11,3.11,0,0,0,827.75,62.08Z" transform="translate(0 -0.01)"/><path class="cls-9" d="M196.58,100.62h0a3.12,3.12,0,0,0,3.29,2.92h0a3.11,3.11,0,0,1,3.28,2.91h0a3.11,3.11,0,0,1-3.28,2.91H180.16a3.11,3.11,0,0,1-3.28-2.91h0a3.11,3.11,0,0,1,3.28-2.91h6.57a3.11,3.11,0,0,0,3.28-2.92h0a3.1,3.1,0,0,0-3.28-2.91h0a3.12,3.12,0,0,1-3.28-2.92h0a3.12,3.12,0,0,1,3.28-2.92h13.14a3.12,3.12,0,0,1,3.28,2.92h0a3.12,3.12,0,0,1-3.28,2.92h0A3.11,3.11,0,0,0,196.58,100.62ZM847.45,165h-19.7a3.11,3.11,0,0,1-3.28-2.91h0a3.11,3.11,0,0,1,3.28-2.91h6.57a3.12,3.12,0,0,0,3.28-2.92h0a3.11,3.11,0,0,0-3.28-2.91H808.05a3.11,3.11,0,0,0-3.28,2.91h0a3.12,3.12,0,0,0,3.28,2.92h6.57A3.11,3.11,0,0,1,817.9,162h0a3.11,3.11,0,0,1-3.28,2.91h0a3.12,3.12,0,0,0-3.28,2.92h0a3.11,3.11,0,0,0,3.28,2.91h32.83a3.11,3.11,0,0,0,3.28-2.91h0A3.12,3.12,0,0,0,847.45,165ZM288.28,106.82h-19.7a3.11,3.11,0,0,1-3.28-2.91h0a3.11,3.11,0,0,1,3.28-2.91h6.57a3.11,3.11,0,0,0,3.28-2.92h0a3.1,3.1,0,0,0-3.28-2.91H248.88a3.11,3.11,0,0,0-3.28,2.91h0a3.12,3.12,0,0,0,3.28,2.92h6.57a3.11,3.11,0,0,1,3.28,2.91h0a3.11,3.11,0,0,1-3.28,2.91h0a3.12,3.12,0,0,0-3.28,2.92h0a3.11,3.11,0,0,0,3.28,2.91h32.83a3.11,3.11,0,0,0,3.29-2.91h0A3.12,3.12,0,0,0,288.28,106.82ZM742,93.12H709.11A3.11,3.11,0,0,0,705.83,96h0A3.1,3.1,0,0,0,709.11,99h0a3.12,3.12,0,0,1,3.29,2.92h0a3.12,3.12,0,0,1-3.29,2.92H676.28A3.11,3.11,0,0,0,673,107.7h0a3.12,3.12,0,0,0,3.28,2.92h46a3.12,3.12,0,0,0,3.28-2.92h0a3.11,3.11,0,0,0-3.28-2.91h0a3.12,3.12,0,0,1-3.28-2.92h0A3.12,3.12,0,0,1,722.24,99H742A3.11,3.11,0,0,0,745.23,96h0A3.12,3.12,0,0,0,742,93.12Zm82.52,14.58h0a3.11,3.11,0,0,0,3.28-2.91h0a3.12,3.12,0,0,0-3.28-2.92H811.34a3.11,3.11,0,0,0-3.28,2.92h0a3.1,3.1,0,0,0,3.28,2.91h0a3.12,3.12,0,0,1,3.28,2.92h0a3.12,3.12,0,0,1-3.28,2.92H798.2a3.11,3.11,0,0,0-3.28,2.91h0a3.12,3.12,0,0,0,3.28,2.92h26.27a3.12,3.12,0,0,0,3.28-2.92h0a3.11,3.11,0,0,0-3.28-2.91h0a3.12,3.12,0,0,1-3.28-2.92h0A3.12,3.12,0,0,1,824.47,107.7ZM417,153.17h0a3.11,3.11,0,0,0,3.28-2.91h0a3.12,3.12,0,0,0-3.28-2.92H403.89a3.12,3.12,0,0,0-3.29,2.92h0a3.11,3.11,0,0,0,3.29,2.91h0a3.12,3.12,0,0,1,3.28,2.92h0a3.12,3.12,0,0,1-3.28,2.91H390.75a3.11,3.11,0,0,0-3.28,2.91h0a3.12,3.12,0,0,0,3.28,2.92H417a3.12,3.12,0,0,0,3.28-2.92h0A3.11,3.11,0,0,0,417,159h0a3.12,3.12,0,0,1-3.28-2.91h0A3.12,3.12,0,0,1,417,153.17ZM692.94,144a2.09,2.09,0,0,0,.35,0h217V123.44H513.44l-.21,0h-19.7a3.12,3.12,0,0,1-3.28-2.92h0a3.12,3.12,0,0,1,3.28-2.91h6.57a2.94,2.94,0,1,0,0-5.83H473.83a2.94,2.94,0,1,0,0,5.83h6.57a3.12,3.12,0,0,1,3.28,2.91h0a3.12,3.12,0,0,1-3.28,2.92l-.21,0H62V144H184.55a2.91,2.91,0,0,0-1.85,2.62A3.11,3.11,0,0,0,186,149.5h0a3.12,3.12,0,0,1,3.28,2.92h0a3.12,3.12,0,0,1-3.28,2.92H153.15a2.94,2.94,0,1,0,0,5.83h46a2.94,2.94,0,1,0,0-5.83h0a3.12,3.12,0,0,1-3.28-2.92h0a3.12,3.12,0,0,1,3.28-2.92h19.71a3.11,3.11,0,0,0,3.28-2.91,2.91,2.91,0,0,0-1.85-2.62H672.89a2.09,2.09,0,0,0,.35,0h6.57a3.11,3.11,0,0,1,3.28,2.91h0a3.11,3.11,0,0,1-3.28,2.91,2.94,2.94,0,1,0,0,5.83h19.7a2.94,2.94,0,1,0,0-5.83h-6.57a3.11,3.11,0,0,1-3.28-2.91h0A3.11,3.11,0,0,1,692.94,144Z" transform="translate(0 -0.01)"/><path class="cls-8" d="M655.47,71.44h0a3.11,3.11,0,0,1-3.28,2.91h-19.7a3.11,3.11,0,0,1-3.29-2.91h0a3.11,3.11,0,0,1,3.29-2.91h0a3.12,3.12,0,0,0,3.28-2.92h0a3.11,3.11,0,0,0-3.28-2.91h-6.57a3.12,3.12,0,0,1-3.29-2.92h0a3.11,3.11,0,0,1,3.29-2.91h19.7a3.11,3.11,0,0,1,3.28,2.91h0a3.12,3.12,0,0,1-3.28,2.92h0a3.11,3.11,0,0,0-3.28,2.91h0a3.12,3.12,0,0,0,3.28,2.92h6.57A3.11,3.11,0,0,1,655.47,71.44Z" transform="translate(0 -0.01)"/></g><path class="cls-2" d="M409.14,54.68h0v124H384.33V56.74H351.26v122h-24.8V56.74H274.79l18.6,6.2V178.69H268.58V56.74h0V52.61h57.88V23.67H268.58V19.54H409.14v4.13H333l18.27,5.79V52.61h57.88ZM301.66,112.55h16.53V87.75l-16.53-8.27Zm0,49.61h16.53V137.35l-16.53-8.26Zm57.87-49.61h16.54V87.75l-16.54-8.27Zm0,49.63h16.54V137.35l-16.54-8.29Zm-215-109.57H111.5v4.13h90.94V52.61H169.37V40.21h57.88V36.07H169.37V19.43L120.42,3.11h-.66V7.25l24.81,8.27V36.07H86.69v4.14h57.88ZM70.15,131.15H243.79V127H70.15Zm107.52,6.2h24.77v41.34h-91V137.35h66.21Zm0,37.21V141.49H123.88l12.42,4.13,0,28.94ZM194.15,96H119.74V62.94h74.41Zm-24.8-3.42V66.37H130l14.55,4.84.07,21.38Zm20.67,20V106.4h0v-4.13H156.94v4.13h8.27v14.42ZM132.5,102.32h-8.6v4.14h7.93l.34.11v14.25h24.77l0-10.34ZM517,52.61H500.08V29.87l-24.8-8.27v31h-24.8v4.13h24.8V160l-24.8,8.27v4.13h.65l48.95-16.32v-2.18h0V56.74h16.2l.34.11v117.6l-.34.11h-16.2v4.13H517l24.47-8.15V60.76Zm8.59-24.7h-.65v4.14l24.8,8.27V96l24.8,8.27v-60ZM657.83,98l-.66-2V56.74H682V52.61H657.17V29.87l-24.8-8.27v31H615.83v4.13h16.54V102.1l-.34.11h-16.2v4.14H632.7Zm33,51.85L723.31,158v4.14h-.5L690.24,154v14.41h0v2.18l-24.46,8.15h-8.94l-26.54-8.84V141.49h35.14V87.75L690.24,96v53.67Zm-25.69,24.73.33-.11V145.82l-.44-.2h-7.83v28.83l.34.11Zm58.2-55.92v-64h-24.8v57.87h0v2.18L723,122.88h16.87v-4.13h-16.2ZM855.6,87.75,872.13,96V71.21L855.6,62.94Zm33-33.07-16.52-8.27,0,24.8,16.52,8.27Zm-66.12,111.5V58.92l49.6-16.53V40.21h0V31.94h0V29.87H780.85L756.39,38v4.14H757L781.52,34h65.81V46.3L797.72,62.83V65h0v95.08h0v2.18L847,178.69h16.88v-4.13h-16.2Z" transform="translate(0 -0.01)"/></g></g></svg>