<svg xmlns="http://www.w3.org/2000/svg" viewBox="0 0 311.29 71.9"><defs><style>.cls-1{fill:#231815;}.cls-2{fill:#c30d23;}.cls-3{fill:#fff;}</style></defs><title>mousou</title><g id="レイヤー_2" data-name="レイヤー 2"><g id="レイヤー_1-2" data-name="レイヤー 1"><rect class="cls-1" x="144.9" y="16.91" width="9.57" height="31.36"/><rect class="cls-1" x="157.34" y="0.44" width="9.57" height="47.84"/><rect class="cls-2" x="120.03" y="26.48" width="9.57" height="21.8"/><rect class="cls-1" x="132.46" y="0.44" width="9.57" height="47.84"/><rect class="cls-1" x="126.25" y="10.69" width="9.57" height="22" transform="translate(152.72 -109.34) rotate(90)"/><rect class="cls-1" x="126.25" y="-2.34" width="9.57" height="22" transform="translate(139.69 -122.37) rotate(90)"/><rect class="cls-1" x="144.9" y="0.44" width="9.57" height="13.01" transform="translate(299.37 13.88) rotate(180)"/><rect class="cls-1" x="151.12" y="-2.34" width="9.57" height="22" transform="translate(164.56 -147.24) rotate(90)"/><rect class="cls-1" x="153.03" y="8.78" width="9.57" height="25.83" transform="translate(179.51 -136.12) rotate(90)"/><rect class="cls-1" x="151.12" y="24.87" width="9.57" height="22" transform="translate(191.78 -120.03) rotate(90)"/><rect class="cls-1" x="164.03" y="41.58" width="9.57" height="3.82" transform="translate(212.31 -125.33) rotate(90)"/><rect class="cls-1" x="256.53" width="9.57" height="23.12"/><path class="cls-1" d="M232.25,48.27V38.89c21,.8,24.28-13.15,24.28-13.15h9.57C262.45,48.42,232.25,48.27,232.25,48.27Z"/><rect class="cls-1" x="231.66" y="0.44" width="9.57" height="35.44"/><rect class="cls-1" x="244.09" y="0.44" width="9.57" height="28.71"/><rect class="cls-1" x="289.29" y="0.44" width="9.57" height="39.71"/><rect class="cls-1" x="276.85" y="0.44" width="9.57" height="47.84"/><rect class="cls-1" x="283.07" y="24.36" width="9.57" height="22" transform="translate(323.21 -252.49) rotate(90)"/><rect class="cls-1" x="281.29" y="2.01" width="9.57" height="25.56" transform="translate(300.87 -271.28) rotate(90)"/><rect class="cls-1" x="201.05" y="0.44" width="9.57" height="23.92"/><rect class="cls-1" x="213.49" y="24.36" width="9.57" height="23.92"/><rect class="cls-1" x="188.61" y="8.66" width="9.57" height="30.05"/><rect class="cls-1" x="182.39" y="-5.78" width="9.57" height="22" transform="translate(192.39 -181.96) rotate(90)"/><rect class="cls-1" x="182.39" y="32.49" width="9.57" height="22" transform="translate(230.67 -143.69) rotate(90)"/><rect class="cls-1" x="212.05" y="-1" width="9.57" height="12.44" transform="translate(222.06 -211.61) rotate(90)"/><rect class="cls-1" x="207.27" y="32.49" width="9.57" height="22" transform="translate(255.54 -168.56) rotate(90)"/><rect class="cls-1" x="207.27" y="8.57" width="9.57" height="22" transform="translate(231.63 -192.47) rotate(90)"/><rect class="cls-1" x="91.01" y="0.52" width="9.57" height="23.24"/><rect class="cls-1" x="103.44" y="0.52" width="9.57" height="23.04"/><rect class="cls-1" x="66.13" y="13.52" width="9.57" height="13.13"/><rect class="cls-1" x="78.57" y="0.52" width="9.57" height="26.13"/><rect class="cls-1" x="72.35" y="-4.65" width="9.57" height="22" transform="translate(83.48 -70.79) rotate(90)"/><rect class="cls-1" x="72.35" y="5.99" width="9.57" height="22" transform="translate(94.12 -60.14) rotate(90)"/><rect class="cls-1" x="91.01" y="26.35" width="9.57" height="34.44" transform="translate(139.36 -52.22) rotate(90)"/><rect class="cls-1" x="66.13" y="27.96" width="9.57" height="20.4"/><rect class="cls-1" x="97.23" y="10.77" width="9.57" height="22" transform="translate(123.78 -80.24) rotate(90)"/><rect class="cls-1" x="97.23" y="-5.7" width="9.57" height="22" transform="translate(107.31 -96.71) rotate(90)"/><rect class="cls-1" x="103.44" y="27.96" width="9.57" height="20.4"/><rect class="cls-1" x="91.01" y="27.96" width="9.57" height="20.4"/><rect class="cls-1" x="78.57" y="27.96" width="9.57" height="20.4"/><rect class="cls-2" x="300.29" y="29.14" width="9.57" height="12.44" transform="translate(340.43 -269.71) rotate(90)"/><rect class="cls-2" x="88.52" y="61.27" width="147.53" height="10.63"/><path class="cls-3" d="M101.26,68.57V64h.64l.84,2.43h0l.84-2.43h.64v4.6h-.66v-2.8h0l-.65,2h-.33l-.65-2h0v2.8Z"/><path class="cls-3" d="M109.33,65.05a1.26,1.26,0,0,1,.1-.49,1,1,0,0,1,.26-.35,1.12,1.12,0,0,1,.75-.28,1.16,1.16,0,0,1,.4.07,1.13,1.13,0,0,1,.35.21,1,1,0,0,1,.26.35,1.26,1.26,0,0,1,.09.49v2.43a1.28,1.28,0,0,1-.09.5,1,1,0,0,1-.26.34,1,1,0,0,1-.35.21,1.16,1.16,0,0,1-.4.07,1.12,1.12,0,0,1-.4-.07,1,1,0,0,1-.35-.21,1,1,0,0,1-.26-.34,1.27,1.27,0,0,1-.1-.5Zm.66,2.43a.42.42,0,0,0,.14.35.43.43,0,0,0,.31.12.45.45,0,0,0,.31-.12.42.42,0,0,0,.13-.35V65.05a.43.43,0,0,0-.13-.35.44.44,0,0,0-.31-.11.42.42,0,0,0-.31.11.44.44,0,0,0-.14.35Z"/><path class="cls-3" d="M118.78,64v3.56a1.16,1.16,0,0,1-.08.42,1.13,1.13,0,0,1-.23.34,1.18,1.18,0,0,1-.35.23,1.09,1.09,0,0,1-.82,0,1.08,1.08,0,0,1-.57-.57,1,1,0,0,1-.08-.42V64h.65v3.5a.49.49,0,0,0,.12.36.41.41,0,0,0,.58,0,.49.49,0,0,0,.12-.36V64Z"/><path class="cls-3" d="M126.05,65.29h-.66v-.15a.71.71,0,0,0-.11-.39.39.39,0,0,0-.36-.16.38.38,0,0,0-.22,0,.4.4,0,0,0-.13.13.4.4,0,0,0-.07.19.78.78,0,0,0,0,.22,1.55,1.55,0,0,0,0,.23.3.3,0,0,0,.05.16.25.25,0,0,0,.11.12.75.75,0,0,0,.2.1l.51.2a1.62,1.62,0,0,1,.35.2,1.09,1.09,0,0,1,.22.26,1.72,1.72,0,0,1,.09.36,2.94,2.94,0,0,1,0,.44,2.23,2.23,0,0,1-.06.54,1.13,1.13,0,0,1-.19.43,1,1,0,0,1-.35.28,1.27,1.27,0,0,1-.54.1,1,1,0,0,1-.44-.08,1.11,1.11,0,0,1-.36-.23,1.21,1.21,0,0,1-.24-.35,1.18,1.18,0,0,1-.08-.43v-.24h.66v.2a.56.56,0,0,0,.1.33.41.41,0,0,0,.36.15.6.6,0,0,0,.26,0,.41.41,0,0,0,.15-.14.64.64,0,0,0,.06-.22,2.44,2.44,0,0,0,0-.28c0-.12,0-.22,0-.3a.42.42,0,0,0-.17-.3l-.2-.1-.47-.19a1,1,0,0,1-.57-.46,1.54,1.54,0,0,1-.15-.72,1.57,1.57,0,0,1,.07-.49,1.17,1.17,0,0,1,.21-.4.94.94,0,0,1,.35-.27,1.12,1.12,0,0,1,.5-.1,1.13,1.13,0,0,1,.45.09,1.21,1.21,0,0,1,.35.24,1,1,0,0,1,.3.71Z"/><path class="cls-3" d="M131,65.05a1.1,1.1,0,0,1,.1-.49.92.92,0,0,1,.26-.35,1.13,1.13,0,0,1,.35-.21,1.07,1.07,0,0,1,.39-.07,1.09,1.09,0,0,1,.4.07,1.31,1.31,0,0,1,.36.21,1,1,0,0,1,.25.35,1.1,1.1,0,0,1,.1.49v2.43a1.12,1.12,0,0,1-.1.5,1,1,0,0,1-.25.34,1.17,1.17,0,0,1-.76.28,1.07,1.07,0,0,1-.39-.07,1,1,0,0,1-.35-.21.88.88,0,0,1-.26-.34,1.12,1.12,0,0,1-.1-.5Zm.66,2.43a.42.42,0,0,0,.13.35.45.45,0,0,0,.31.12.47.47,0,0,0,.32-.12.42.42,0,0,0,.13-.35V65.05a.43.43,0,0,0-.13-.35.46.46,0,0,0-.32-.11.44.44,0,0,0-.31.11.43.43,0,0,0-.13.35Z"/><path class="cls-3" d="M140.46,64v3.56a1.16,1.16,0,0,1-.08.42,1,1,0,0,1-.23.34,1.13,1.13,0,0,1-.34.23,1,1,0,0,1-.41.08.91.91,0,0,1-.41-.08,1.13,1.13,0,0,1-.34-.23,1,1,0,0,1-.32-.76V64H139v3.5a.49.49,0,0,0,.12.36.37.37,0,0,0,.29.12.4.4,0,0,0,.29-.12.53.53,0,0,0,.11-.36V64Z"/><path class="cls-3" d="M151.32,68.57V64H152v2.1h0l1-2.1h.66l-.9,1.84,1.06,2.76h-.69l-.75-2-.36.67v1.38Z"/><path class="cls-3" d="M158.61,68.57V64h.66v4.6Z"/><path class="cls-3" d="M164.43,68.57V64h.66v2.1h0l1-2.1h.66l-.9,1.84,1.06,2.76h-.69l-.75-2-.36.67v1.38Z"/><path class="cls-3" d="M171.67,65.05a1.26,1.26,0,0,1,.09-.49,1,1,0,0,1,.26-.35,1.16,1.16,0,0,1,1.15-.21,1.31,1.31,0,0,1,.36.21,1.16,1.16,0,0,1,.25.35,1.26,1.26,0,0,1,.09.49v2.43a1.28,1.28,0,0,1-.09.5,1.11,1.11,0,0,1-.25.34,1.1,1.1,0,0,1-.36.21,1.18,1.18,0,0,1-.8,0,1,1,0,0,1-.35-.21,1,1,0,0,1-.26-.34,1.28,1.28,0,0,1-.09-.5Zm.65,2.43a.42.42,0,0,0,.14.35.43.43,0,0,0,.31.12.45.45,0,0,0,.31-.12.42.42,0,0,0,.14-.35V65.05a.43.43,0,0,0-.45-.46.42.42,0,0,0-.31.11.44.44,0,0,0-.14.35Z"/><path class="cls-3" d="M181.11,64v3.56A1.16,1.16,0,0,1,181,68a1.13,1.13,0,0,1-.23.34,1.18,1.18,0,0,1-.35.23.91.91,0,0,1-.41.08.94.94,0,0,1-.41-.08,1.08,1.08,0,0,1-.57-.57,1,1,0,0,1-.08-.42V64h.65v3.5a.49.49,0,0,0,.12.36.41.41,0,0,0,.58,0,.49.49,0,0,0,.12-.36V64Z"/><path class="cls-3" d="M194.1,65.29h-.66v-.15a.64.64,0,0,0-.11-.39.38.38,0,0,0-.35-.16.36.36,0,0,0-.22,0,.44.44,0,0,0-.14.13.54.54,0,0,0-.07.19,1.5,1.5,0,0,0,0,.22,1.55,1.55,0,0,0,0,.23.43.43,0,0,0,.05.16.25.25,0,0,0,.11.12.69.69,0,0,0,.21.1l.5.2a1.41,1.41,0,0,1,.35.2.9.9,0,0,1,.22.26,1.27,1.27,0,0,1,.09.36,2.94,2.94,0,0,1,0,.44,2.23,2.23,0,0,1-.06.54,1.13,1.13,0,0,1-.19.43.89.89,0,0,1-.35.28,1.27,1.27,0,0,1-.54.1,1.08,1.08,0,0,1-.44-.08,1.11,1.11,0,0,1-.36-.23,1,1,0,0,1-.23-.35,1,1,0,0,1-.09-.43v-.24h.66v.2a.56.56,0,0,0,.1.33A.43.43,0,0,0,193,68a.57.57,0,0,0,.26,0,.34.34,0,0,0,.15-.14.64.64,0,0,0,.06-.22,2.44,2.44,0,0,0,0-.28,2.63,2.63,0,0,0,0-.3.65.65,0,0,0-.05-.18.34.34,0,0,0-.12-.12l-.2-.1-.47-.19a1,1,0,0,1-.57-.46,1.54,1.54,0,0,1-.15-.72,1.93,1.93,0,0,1,.07-.49,1,1,0,0,1,.22-.4.91.91,0,0,1,.34-.27,1.12,1.12,0,0,1,.5-.1,1.06,1.06,0,0,1,.45.09,1.09,1.09,0,0,1,.35.24,1,1,0,0,1,.3.71Z"/><path class="cls-3" d="M199.72,68.57V66.62l-.9-2.65h.7l.53,1.82h0l.53-1.82h.7l-.91,2.65v1.95Z"/><path class="cls-3" d="M206.1,65.05a1.1,1.1,0,0,1,.1-.49,1,1,0,0,1,.25-.35,1.17,1.17,0,0,1,.36-.21,1.07,1.07,0,0,1,.39-.07,1.09,1.09,0,0,1,.4.07,1.31,1.31,0,0,1,.36.21,1,1,0,0,1,.25.35,1.26,1.26,0,0,1,.1.49v2.43a1.27,1.27,0,0,1-.1.5,1,1,0,0,1-.25.34,1.17,1.17,0,0,1-.76.28,1.07,1.07,0,0,1-.39-.07,1,1,0,0,1-.36-.21,1,1,0,0,1-.25-.34,1.12,1.12,0,0,1-.1-.5Zm.66,2.43a.42.42,0,0,0,.13.35.45.45,0,0,0,.31.12.47.47,0,0,0,.32-.12.45.45,0,0,0,.13-.35V65.05a.42.42,0,0,0-.45-.46.44.44,0,0,0-.31.11.43.43,0,0,0-.13.35Z"/><path class="cls-3" d="M214.94,64v3.51a1.11,1.11,0,0,1-.3.79,1.09,1.09,0,0,1-.35.24,1.16,1.16,0,0,1-.47.09.87.87,0,0,1-.53-.14,1.59,1.59,0,0,1-.33-.27l.51-.41.17.12a.45.45,0,0,0,.19,0l.14,0a.37.37,0,0,0,.15-.08.42.42,0,0,0,.11-.17.56.56,0,0,0,.05-.28V64Z"/><path class="cls-3" d="M220,65.05a1.1,1.1,0,0,1,.1-.49.92.92,0,0,1,.26-.35,1.13,1.13,0,0,1,.35-.21,1.09,1.09,0,0,1,.4-.07,1.07,1.07,0,0,1,.39.07,1.31,1.31,0,0,1,.36.21,1,1,0,0,1,.25.35,1.1,1.1,0,0,1,.1.49v2.43a1.12,1.12,0,0,1-.1.5,1,1,0,0,1-.25.34,1.1,1.1,0,0,1-.36.21,1.07,1.07,0,0,1-.39.07,1.09,1.09,0,0,1-.4-.07,1,1,0,0,1-.35-.21.88.88,0,0,1-.26-.34,1.12,1.12,0,0,1-.1-.5Zm.66,2.43a.42.42,0,0,0,.13.35.45.45,0,0,0,.32.12.45.45,0,0,0,.31-.12.42.42,0,0,0,.13-.35V65.05a.43.43,0,0,0-.13-.35.44.44,0,0,0-.31-.11.45.45,0,0,0-.32.11.43.43,0,0,0-.13.35Z"/><rect class="cls-1" x="297.24" y="-5.92" width="1.47" height="14.2" transform="translate(296.8 299.15) rotate(-90)"/><rect class="cls-1" x="307.98" y="-0.58" width="1.47" height="3.51" transform="translate(307.54 309.89) rotate(-90)"/><rect class="cls-1" x="36.93" y="26.47" width="9.57" height="20.47"/><rect class="cls-1" x="24.49" y="26.47" width="9.57" height="21.8"/><rect class="cls-2" x="13.49" y="1.06" width="9.57" height="12.44" transform="translate(11 25.55) rotate(-90)"/><rect class="cls-1" x="36.85" y="2.44" width="9.57" height="34.44" transform="translate(21.97 61.29) rotate(-90)"/><rect class="cls-1" x="24.49" y="0.15" width="9.57" height="23.33"/><rect class="cls-1" x="36.93" y="24.94" width="9.57" height="34.44" transform="translate(83.87 0.45) rotate(90)"/><rect class="cls-1" x="24.49" y="13.65" width="9.57" height="34.44" transform="translate(60.14 1.59) rotate(90)"/><rect class="cls-1" x="36.93" y="-9.95" width="9.57" height="34.44" transform="translate(34.44 48.99) rotate(-90)"/><rect class="cls-1" x="11.76" y="27.82" width="1.47" height="14.2" transform="translate(-22.42 47.41) rotate(-90)"/><rect class="cls-1" x="1.02" y="33.16" width="1.47" height="3.51" transform="translate(-33.16 36.67) rotate(-90)"/><rect class="cls-3" x="8.81" y="26.34" width="1.47" height="14.2" transform="translate(-23.9 42.99) rotate(-90)"/></g></g></svg>